<svg width="64" height="64" viewBox="0 0 64 64" fill="none" xmlns="http://www.w3.org/2000/svg">
<path d="M43.8925 21.7119L43.8783 21.5748L43.6561 21.5938L43.6703 21.7308L43.8925 21.7119ZM45.3861 25.3042L45.3909 25.3798L45.5469 25.3657C45.5421 25.3184 45.561 25.2428 45.5941 25.1483L45.5799 25.0112C45.5138 25.0159 45.4475 25.1152 45.3861 25.3042ZM39.558 29.8277C39.5486 29.7001 39.1515 29.2038 38.3669 28.3293C38.3528 28.1687 38.6221 27.9276 39.1751 27.6109L40.7539 26.2354C41.1084 25.7863 41.3164 25.0584 41.3779 24.0469L41.3589 23.8153C41.2975 23.1158 40.7918 22.5533 39.8323 22.1232C39.265 21.7403 38.244 21.5276 36.7693 21.4898C35.5498 21.5938 33.9569 22.0286 31.9953 22.7991C31.4564 23.1867 30.842 23.5743 30.1519 23.9618L30.1613 24.0801C30.2039 24.0753 30.27 24.0517 30.3456 23.9997C30.426 23.9902 30.4733 24.0281 30.478 24.1037L30.5961 24.0422L30.6529 24.0374L30.6576 24.0894C30.6624 24.1509 30.2369 24.4866 29.3766 25.0868L29.4429 25.2097L29.3861 25.2144L29.2443 25.1624C29.249 25.2049 29.1876 25.2333 29.0694 25.2428L29.0741 25.2948L29.2113 25.4649C29.1688 25.4697 29.1025 25.4508 29.0128 25.4177C28.8141 25.4366 28.6204 25.5406 28.4266 25.7391L28.507 25.3893C28.7953 24.1462 28.9938 23.0448 29.0978 22.0901L29.0836 22.0286C28.8851 21.9009 28.6913 21.7213 28.5116 21.4944C28.5164 21.3479 28.5164 21.2629 28.5116 21.2439L28.4975 21.1919L28.4408 21.2062C27.8169 22.1421 26.6163 23.7397 24.8343 25.9991C23.4778 27.6062 22.7781 28.4996 22.7356 28.6792C22.1826 29.2511 21.9179 29.5962 21.9463 29.7143C21.7998 29.8088 21.7383 29.9033 21.7619 30.0073C21.7194 30.0168 21.691 30.0027 21.6815 29.9601C21.4453 30.3429 21.0954 30.5887 20.6275 30.6974L20.1359 30.8109C20.0698 30.8251 20.0366 30.8723 20.0414 30.9527L20.0555 31.0142L20.2399 30.9716L20.2541 31.0236L19.8381 31.1843L19.1008 31.3544L18.7131 31.3781C18.6564 31.4348 19.0204 31.3734 18.8786 31.4064L18.3965 31.5199C18.1034 31.5861 17.9428 31.5624 17.9144 31.4443L17.8576 31.4584C17.8671 31.5104 17.8718 31.5483 17.8624 31.5813L17.834 31.4632L17.4464 31.5529C17.418 31.3734 16.8934 30.7211 15.8771 29.5962C15.8583 29.3787 16.2174 29.0619 16.9501 28.6508L19.0204 26.8309C19.4836 26.2354 19.7578 25.2806 19.8476 23.9666L19.8193 23.6593C19.7389 22.7329 19.0676 21.9861 17.8056 21.4094C17.0588 20.9037 15.7164 20.6342 13.7785 20.5917C12.1714 20.7288 10.0726 21.3007 7.49189 22.2981C6.78289 22.8132 5.97464 23.3237 5.06714 23.8294L5.08127 23.9902C5.14277 23.9854 5.22302 23.9524 5.32227 23.8957C5.42627 23.8862 5.48302 23.9334 5.49252 24.0281L5.65314 23.9382L5.73352 23.9334L5.73827 24.0091C5.74302 24.0847 5.18052 24.5243 4.04139 25.3278L4.13114 25.4697L4.05089 25.4744L3.87589 25.4129C3.88064 25.4602 3.80027 25.4933 3.63489 25.5074L3.64427 25.5926L3.83339 25.8006C3.77202 25.8053 3.68689 25.7863 3.57814 25.7486C3.20952 25.7817 2.85027 26.0463 2.49577 26.5474L2.58552 26.6892C2.89277 26.4056 3.07239 26.2638 3.12439 26.2591L3.14327 26.4907C3.09127 26.4954 3.01089 26.5284 2.90227 26.5852L3.09602 26.8783C3.46939 26.4764 3.88064 26.1314 4.32977 25.8431C4.55189 25.8998 4.67002 25.9707 4.67477 26.0463L4.84489 26.0322C6.06439 25.1293 7.26977 24.4771 8.46564 24.0753L8.47977 24.2359C8.25764 24.5668 8.10639 24.7371 8.02602 24.7464C8.03552 24.8599 8.07327 24.9592 8.14414 25.0443C8.16314 25.2476 7.61952 26.6183 6.51814 29.1518C4.01777 35.0413 1.91902 39.3993 0.212769 42.2166C0.217394 42.2732 0.250519 42.3488 0.312019 42.4434C0.732644 42.3442 0.997393 42.2402 1.11077 42.1408L1.20064 42.1314L1.21477 42.2922L1.37077 42.2779L1.53152 42.1882C1.53627 42.2354 1.58827 42.2591 1.69689 42.2496L1.71114 42.4103C1.72527 42.5663 1.63552 42.8026 1.44639 43.1288C1.27627 43.3226 1.09189 43.7291 0.898144 44.3483L0.902769 44.4239L1.05877 44.4097C1.73952 43.6487 2.25464 42.9018 2.60914 42.1739C4.59439 41.5926 6.10702 41.0207 7.15627 40.4582C8.21039 40.3683 9.01389 40.0894 9.56227 39.6309L9.55277 39.5459L9.15577 39.6641L9.06589 39.6736L9.05639 39.5884C9.83164 39.4703 10.3658 39.3001 10.6635 39.0638C12.1714 37.9009 13.3105 37.0786 14.081 36.5917C15.6644 35.4289 16.6949 34.2944 17.1628 33.1932C17.2479 33.1743 17.3329 33.1553 17.4275 33.1317C17.6496 33.1223 17.7725 33.1176 17.8056 33.1081C17.7961 33.0656 17.8151 33.0419 17.8576 33.0324C18.2121 32.9947 18.042 33.0561 18.2689 33.0041L18.8644 32.8671C18.8266 32.8764 18.8124 32.8954 18.8219 32.9332L18.9116 32.8764C18.8928 32.8764 18.8786 32.8718 18.8644 32.8671L18.9636 32.8434L18.9164 32.8718C18.9826 32.8812 19.0535 32.8764 19.1339 32.8576L19.1764 33.0324L16.468 37.3386L15.8676 38.0901L15.5746 39.0732L15.6314 39.0591L15.9244 38.9362L15.8299 39.3191L15.8583 39.4324L15.9385 39.5317C15.9008 39.5412 15.8866 39.5648 15.896 39.6073L15.9103 39.6688L16.0331 39.6404C16.2128 39.4844 16.2884 39.3427 16.26 39.2151C16.4538 39.2481 16.5814 39.2623 16.6476 39.2434L16.6618 39.3048C16.5436 39.3332 16.4821 39.4277 16.4726 39.5884L16.4869 39.6499L16.553 39.6357C17.5363 38.5627 19.9469 34.8901 21.8801 32.3991C21.8186 32.1297 22.8254 31.7562 24.9051 31.2741L24.9714 31.2599C25.047 31.5861 24.8863 32.3754 24.4893 33.6281C24.234 34.3843 24.1111 34.8003 24.13 34.8664C23.7991 35.8732 23.6431 36.4168 23.662 36.5019L22.9246 38.9172C22.4473 40.1557 22.0834 41.4556 21.8281 42.8263C21.8706 42.8168 21.9368 42.8216 22.0314 42.8452L22.1353 42.7553C22.1448 42.7979 22.1731 42.8121 22.2156 42.8026L22.1731 42.6277L22.4945 42.6183C22.589 42.5947 22.6694 42.4764 22.7356 42.2591C22.7214 41.9329 22.7876 41.7581 22.9341 41.7202C23.1326 40.9451 23.2555 40.5574 23.2981 40.5432C23.4824 39.7728 23.6195 39.3332 23.7093 39.2244C23.9883 38.2224 24.1914 37.7072 24.3238 37.6741L24.3521 37.7971L24.1489 38.3217C23.7944 39.8957 23.4351 41.1388 23.0713 42.0511L23.1753 42.5048L23.2414 42.4907C24.1205 40.5999 25.3873 36.8564 27.0369 31.2599C27.0843 30.7683 27.3205 30.3854 27.7413 30.1161L27.6466 30.0168L27.6325 29.9648C27.8216 29.9223 27.9539 29.8467 28.0295 29.7427C28.0201 29.7001 27.8546 29.6387 27.5333 29.5536L28.3558 26.0274C28.5353 25.8667 28.6393 25.7817 28.6724 25.7817L28.6866 25.9613C28.644 25.9659 28.5779 25.9896 28.5023 26.0416L28.6583 26.2638C28.9418 25.9566 29.249 25.6918 29.5846 25.4697C29.7548 25.5169 29.8399 25.5737 29.8494 25.6304L29.9723 25.6209C30.9081 24.9356 31.8251 24.4439 32.7279 24.1462L32.7374 24.2643C32.572 24.5148 32.4585 24.6424 32.397 24.6472C32.4065 24.7323 32.4301 24.8079 32.4726 24.8741C32.4869 25.0301 32.0804 26.0699 31.2485 27.9984C29.3483 32.4652 27.7554 35.7692 26.4603 37.9152C26.465 37.9577 26.4934 38.0144 26.5454 38.0901C26.862 38.0144 27.0653 37.9341 27.1456 37.8584L27.2024 37.8537L27.2119 37.9719L27.3441 37.9624L27.4624 37.9009C27.467 37.9341 27.5096 37.9483 27.59 37.9436L27.5994 38.0712C27.6089 38.1846 27.5428 38.3642 27.3961 38.6099C27.2591 38.7566 27.1173 39.0638 26.966 39.5317L26.9708 39.5932L27.0936 39.5837C27.6089 39.0071 28.0011 38.4398 28.2706 37.8821C29.7784 37.4378 30.927 37.0077 31.7211 36.5822C32.5294 36.5113 33.1391 36.3033 33.5551 35.9536L33.5504 35.8922L33.2431 35.9819L33.177 35.9867L33.1723 35.9252C33.7584 35.8402 34.1696 35.7078 34.3918 35.5329C35.5356 34.6537 36.4006 34.0251 36.9868 33.6564C38.8113 32.3282 39.662 31.0519 39.558 29.8277ZM39.2461 29.9081L39.2886 30.3854C39.2319 30.5037 39.1705 30.5651 39.1138 30.5698L39.0429 29.7568C39.1751 29.8041 39.2414 29.8513 39.2461 29.9081ZM3.45527 26.0606L3.37489 26.0652L3.36077 25.9187L3.68689 25.8903L3.69164 25.9659C3.63964 25.9707 3.55927 25.9991 3.45527 26.0606ZM1.86239 41.9943C1.67327 41.9093 1.50314 41.8762 1.35664 41.8903L1.33764 41.6587C1.32827 41.5689 1.38027 41.5074 1.49364 41.4838C1.59764 41.4744 1.65914 41.5501 1.66852 41.7013C1.94277 41.3657 2.09402 41.1956 2.12239 41.1908L2.29727 41.2617C2.24052 41.7344 2.09402 41.9754 1.86239 41.9943ZM18.8834 24.1887C18.803 24.1982 18.6423 23.9477 18.4106 23.4513L18.3965 23.3048C18.5478 23.2907 18.7038 23.5364 18.8691 24.0422L18.8834 24.1887ZM18.6564 22.4257L18.5903 22.5817L16.2789 21.6174C17.8198 21.6694 18.6139 21.9388 18.6564 22.4257ZM8.89577 30.8062L8.56964 30.8346L8.55539 30.6879L8.88152 30.6597L8.89577 30.8062ZM8.63102 25.7722L8.71139 25.7674L8.73027 25.9991C8.65464 26.0038 8.55539 26.1172 8.43252 26.3347L8.41827 26.1739C8.56489 25.9991 8.64052 25.8667 8.63102 25.7722ZM7.94564 27.3887L7.97402 27.6959L7.89364 27.7007L7.86527 27.3934L7.94564 27.3887ZM7.58639 27.9654L7.74239 27.9512C7.72827 28.2064 7.65739 28.3436 7.52977 28.3529L7.44939 28.3577C7.54864 28.1876 7.59589 28.0552 7.58639 27.9654ZM7.31702 28.7689L7.40677 28.7594L7.41152 28.8351L7.26502 29.0809L7.10902 29.0951L7.10427 29.0194C7.26027 29.0053 7.33114 28.9249 7.31702 28.7689ZM7.05227 29.4922L7.00502 29.8797L6.92464 29.8844L6.89164 29.5016L7.05227 29.4922ZM4.40064 37.0313C4.29664 37.5607 4.18314 37.8301 4.06502 37.8396L4.06027 37.7639C4.03189 37.5039 4.14539 37.2582 4.40064 37.0313ZM3.91377 38.0853L3.91852 38.1609C3.92789 38.2649 3.88064 38.3264 3.77664 38.3311L3.77202 38.2554C3.76252 38.1657 3.80977 38.1089 3.91377 38.0853ZM3.77202 40.2738L4.01777 40.2502L4.02714 40.3353C3.96577 40.3399 3.88539 40.3731 3.78614 40.4298L3.63014 40.4439C3.62064 40.3637 3.67264 40.3022 3.77189 40.2738H3.77202ZM10.7675 38.1137C9.38727 38.7943 8.57427 39.2576 8.33327 39.4986C6.83964 40.0186 6.09752 40.3399 6.11164 40.4676C4.78352 40.9923 3.90902 41.3799 3.48839 41.6209C3.38914 41.6304 3.24727 41.5926 3.05827 41.5074C3.03464 41.2381 3.15752 41.0207 3.41739 40.8458C3.64902 40.8268 3.87114 40.8599 4.08389 40.9497C4.32977 40.8221 4.75989 40.6803 5.36964 40.5291L5.35539 40.3683L4.86389 40.4109C4.92527 40.3258 5.39789 40.1037 6.28652 39.7444L6.53239 39.7208L6.53714 39.7964C6.11639 39.8342 5.88477 39.9572 5.83277 40.1793C5.84227 40.2786 5.89902 40.3211 6.00302 40.3117C6.31964 40.1131 6.47564 39.9949 6.47089 39.9618C7.07127 39.8484 8.73027 38.9787 11.4481 37.3574L11.4624 37.5039C11.4671 37.5748 11.2355 37.7733 10.7675 38.1137ZM6.59852 39.4844C6.99564 39.4513 7.33589 39.2907 7.61952 39.0118C7.73289 39.0023 7.79439 39.0448 7.79914 39.1441C7.60527 39.1631 7.23189 39.3237 6.68839 39.6357L6.60802 39.6404L6.59852 39.4844ZM13.3246 34.3181L11.2401 35.9678C9.68977 36.9841 8.85789 37.4944 8.73977 37.5039C6.27239 38.8606 4.73627 39.5648 4.14064 39.6168L4.05089 39.6262C4.12652 39.3474 5.22302 37.1022 7.35014 32.8764C8.28602 32.7961 9.76077 32.3613 11.7696 31.5672L12.2611 31.5246C13.2774 31.4348 14.0384 31.6333 14.5395 32.1061L14.5678 32.4132C14.1896 33.5004 13.7738 34.1338 13.3246 34.3181ZM9.25027 32.0257L9.58589 31.9973L9.59052 32.0729L9.25502 32.1013L9.25027 32.0257ZM13.9628 31.2268L14.2086 31.2032C14.4355 31.3119 14.5536 31.4064 14.5631 31.4916L14.5678 31.5672C14.3504 31.5861 14.1471 31.4727 13.9628 31.2268ZM14.6293 27.4313C14.4119 27.6912 13.8163 28.1356 12.8425 28.7594C12.5211 28.7878 11.3253 29.2511 9.25502 30.1586C9.15102 30.1113 9.04227 30.0924 8.92414 30.1019L8.90989 29.9553C8.88627 29.6576 9.01864 29.2842 9.31164 28.8304C9.47239 27.9796 9.64727 27.4927 9.84114 27.3746L11.5664 23.4939C11.5474 23.2528 11.9161 23.0684 12.6724 22.9408L12.9181 22.9172L12.9371 23.1394C13.6791 23.0259 14.1424 22.9598 14.322 22.9456C15.6928 22.8274 16.4065 23.1063 16.4633 23.7728L16.6193 23.7586L16.5861 23.3663L16.7563 23.3521C17.158 23.5743 17.3755 23.8437 17.4039 24.1603C17.4228 24.3778 17.3046 24.6472 17.054 24.9687C16.9501 24.9781 16.8886 24.9024 16.8791 24.7512L16.709 24.7654L16.6713 25.2381C15.9764 26.2779 15.4706 26.8121 15.1586 26.8404C14.875 27.2328 14.7001 27.4266 14.6293 27.4313ZM15.688 30.1492C15.5463 30.0546 15.4328 30.0121 15.3478 30.0168L15.3288 29.7852L15.4848 29.7711L15.8299 29.9743C15.844 30.0829 15.7968 30.1397 15.688 30.1492ZM16.7846 31.4489C16.9359 31.5104 17.0258 31.5766 17.0446 31.6381L16.969 31.6569L16.9738 31.6617C16.9595 31.6617 16.9406 31.6664 16.9264 31.6712L16.813 31.7609L16.7846 31.4489ZM16.8886 32.1013L16.8745 32.0398L17.073 31.9926L17.0871 32.0541L16.8886 32.1013ZM17.366 32.6354C17.5693 32.6023 17.6685 32.5882 18.0466 32.5031L18.0609 32.5646L17.3424 32.7299C17.3519 32.6968 17.3613 32.6638 17.366 32.6354ZM18.0656 32.9332C17.7631 32.9616 17.8293 32.9237 17.3471 33.0324L17.3329 32.9711L17.9333 32.7772L18.2216 32.7111L18.2499 32.8244C18.1223 32.8528 18.2169 32.8528 18.0656 32.9332ZM18.7038 32.7819C18.6328 32.8008 18.5761 32.7678 18.543 32.6874L18.7274 32.6448C18.8076 32.6259 18.8596 32.6591 18.8786 32.7394L18.7038 32.7819ZM20.4336 30.9196L20.4195 30.8582L20.7173 30.7873L20.7456 30.9007L20.4336 30.9196ZM22.2819 42.2543C22.3008 42.1692 22.3055 42.1078 22.296 42.0652L22.3623 42.0511C22.4425 42.0322 22.4898 42.0606 22.5088 42.1362L22.5229 42.1976L22.2819 42.2543ZM23.577 31.4064L23.4446 31.3828C23.2319 31.4679 23.0523 31.5293 22.9058 31.5624L22.7829 31.5908C22.712 31.6097 22.6553 31.5813 22.6269 31.5057L23.4919 31.3072L23.7755 31.1748L23.87 31.2836C23.7329 31.3119 23.6336 31.3544 23.577 31.4064ZM24.2434 31.1937L24.2293 31.1323C24.2718 31.1228 24.3285 31.0898 24.39 31.0283L25.0044 30.8866L25.0186 30.9479C24.6925 31.0283 24.4325 31.1087 24.2434 31.1937ZM24.338 29.9506C24.2954 29.9601 24.2388 29.9979 24.1678 30.0546C24.1584 30.0121 24.0733 30.0121 23.9125 30.0499C23.8843 29.9317 24.338 29.7663 25.2786 29.5488L25.4109 29.5204L25.4393 29.6339C24.7775 29.8277 24.4089 29.9364 24.338 29.9506ZM25.9924 28.1639C25.9261 28.9154 25.6615 29.3409 25.1935 29.4496L25.1794 29.3882L24.7634 29.5488L24.579 29.5914C24.4845 29.6151 24.3994 29.6103 24.3238 29.5867L24.286 29.4212C24.2718 29.3598 24.8721 28.5278 26.0916 26.9302L26.2334 26.9539C26.2854 27.1713 26.205 27.5731 25.9924 28.1639ZM28.9181 25.6587L28.8615 25.6634L28.852 25.5453L29.0978 25.5217L29.1025 25.5831C29.06 25.5926 28.9985 25.6162 28.9181 25.6587ZM27.7129 37.7639C27.571 37.6977 27.4434 37.6694 27.3348 37.6788L27.3205 37.4992C27.3158 37.4378 27.3536 37.3952 27.434 37.3716C27.5144 37.3622 27.5616 37.4188 27.571 37.5418C27.7743 37.2818 27.8878 37.1494 27.9114 37.1494L28.039 37.2014C27.9918 37.5607 27.883 37.7497 27.7129 37.7639ZM40.6358 24.2454C40.5743 24.2502 40.4561 24.0611 40.2718 23.6782L40.2624 23.5601C40.3805 23.5506 40.5034 23.7349 40.6263 24.1131L40.6358 24.2454ZM40.4656 22.8936L40.4089 23.0164L38.66 22.2838C39.8275 22.3217 40.4325 22.5249 40.4656 22.8936ZM33.0494 29.2606L32.8035 29.2842L32.7941 29.1659L33.0399 29.1471L33.0494 29.2606ZM32.8461 25.4366L32.9123 25.4318L32.9264 25.6114C32.865 25.6162 32.7894 25.7013 32.6995 25.8667L32.6901 25.7486C32.7989 25.6114 32.8508 25.5074 32.8461 25.4366ZM32.3309 26.6656L32.3498 26.8972L32.2836 26.9019L32.2646 26.6703L32.3309 26.6656ZM32.052 27.1052L32.1749 27.0957C32.1608 27.2942 32.1088 27.3982 32.0189 27.4077L31.9528 27.4123C32.0236 27.2801 32.0568 27.1761 32.052 27.1052ZM31.8535 27.7102L31.9103 27.7054L31.9149 27.7668L31.8063 27.9559L31.6833 27.9654L31.6786 27.9039C31.8063 27.8944 31.8629 27.8283 31.8535 27.7102ZM31.655 28.2584L31.6124 28.5609L31.5556 28.5657L31.532 28.2679L31.655 28.2584ZM29.6366 33.9919C29.5563 34.3891 29.4713 34.5923 29.3814 34.6017L29.3766 34.5497C29.3625 34.3512 29.4475 34.1622 29.6366 33.9919ZM29.2633 34.7908L29.2679 34.8428C29.2774 34.9278 29.2396 34.9752 29.1545 34.9798L29.1498 34.9184C29.145 34.8569 29.1829 34.8144 29.2633 34.7908ZM29.1593 36.4546L29.3483 36.4404L29.353 36.5018C29.3105 36.5066 29.2443 36.5302 29.1686 36.5728L29.0458 36.5822C29.041 36.5161 29.0789 36.4736 29.1593 36.4546ZM34.4674 34.8144C33.4275 35.3297 32.8083 35.6794 32.6145 35.8591C31.48 36.2561 30.9176 36.5019 30.927 36.6012C29.9203 37.0029 29.2585 37.2912 28.9465 37.4756C28.8709 37.4803 28.7621 37.4519 28.6204 37.3858C28.6015 37.1826 28.696 37.0171 28.8945 36.8942C29.0741 36.8801 29.2443 36.9037 29.4003 36.9698C29.5894 36.8753 29.9155 36.7713 30.3788 36.6532L30.3693 36.5349L29.9816 36.5633C30.029 36.4972 30.3929 36.3269 31.0689 36.0528L31.2579 36.0387L31.2626 36.0907C30.9413 36.1191 30.7616 36.2136 30.7238 36.3837C30.7285 36.4593 30.7758 36.4972 30.8561 36.4877C31.0925 36.3317 31.2059 36.2419 31.2059 36.2136C31.6596 36.1332 32.917 35.4714 34.9826 34.2331L34.992 34.3512C34.9968 34.4032 34.8219 34.5544 34.4674 34.8144ZM31.3005 35.8543C31.6076 35.8259 31.8676 35.7078 32.0851 35.4998C32.1654 35.4903 32.2128 35.5282 32.2174 35.6038C32.0756 35.6179 31.7968 35.7362 31.376 35.9631L31.3099 35.9678L31.3005 35.8543ZM36.4148 31.9264L34.8408 33.1932C33.6638 33.9636 33.0258 34.3512 32.9264 34.3607C31.0546 35.3911 29.8919 35.9252 29.4334 35.9631L29.3673 35.9678C29.4239 35.7551 30.2606 34.0487 31.8771 30.8439C32.5814 30.7826 33.6969 30.4469 35.2284 29.8419L35.6113 29.8088C36.3816 29.7427 36.9584 29.8939 37.3365 30.2578L37.3554 30.4894C37.067 31.3024 36.7551 31.7798 36.4148 31.9264ZM33.3235 30.1869L33.5693 30.1633L33.574 30.2248L33.3283 30.2484L33.3235 30.1869ZM36.9016 29.5772L37.0908 29.5631C37.2656 29.6481 37.3554 29.7238 37.3601 29.7852L37.3649 29.8372C37.1994 29.8513 37.0434 29.7663 36.9016 29.5772ZM37.3979 26.6987C37.2325 26.8972 36.7835 27.2374 36.0509 27.7102C35.805 27.7338 34.8975 28.0836 33.3283 28.7642C33.2526 28.7358 33.1675 28.7264 33.0776 28.7312L33.0683 28.6129C33.0494 28.3861 33.1486 28.1024 33.366 27.7574C33.4889 27.1052 33.626 26.7412 33.7678 26.6561L35.0865 23.7066C35.0724 23.5317 35.3513 23.3899 35.9185 23.2812L36.1075 23.2671L36.1218 23.4467C36.6795 23.3568 37.0293 23.3048 37.171 23.2907C38.2109 23.2008 38.7545 23.4088 38.797 23.9193L38.9199 23.9098L38.8963 23.6262L39.0193 23.6168C39.3218 23.7822 39.4824 23.9808 39.5014 24.2171C39.5155 24.3873 39.4304 24.5952 39.2508 24.8363C39.1705 24.8457 39.1233 24.7891 39.1138 24.6662L38.9909 24.6756L38.953 25.0301C38.4284 25.8289 38.0455 26.2402 37.8044 26.2591C37.5918 26.5474 37.4594 26.6939 37.3979 26.6987ZM37.951 28.6649L37.9368 28.4853L38.0596 28.4759L38.3244 28.6366C38.3291 28.7122 38.2913 28.7548 38.2109 28.7642C38.0975 28.6933 38.0124 28.6602 37.951 28.6649ZM15.948 40.1462L15.8251 40.1746L15.7211 40.2643C15.74 40.3399 15.7873 40.3683 15.8676 40.3494C15.948 40.3306 15.9811 40.2833 15.9623 40.2077L15.948 40.1462ZM15.4801 39.2151L15.4943 39.2764C15.5746 39.2576 15.6076 39.2103 15.5888 39.1347L15.5746 39.0732C15.499 39.0922 15.4659 39.1394 15.4801 39.2151ZM18.8076 31.2977L18.9495 31.2647L18.9211 31.1418L18.7794 31.1748L18.8076 31.2977ZM61.6981 34.8996C60.2611 35.2209 60.0815 35.1642 59.779 35.1878L59.7885 35.3061L59.9209 35.2966L59.9918 35.2918L59.9729 35.2777L60.1288 35.2162C61.5515 35.0602 61.717 35.1169 61.7028 34.9562L61.6981 34.8996ZM53.9604 35.9252L53.9699 36.0434H53.9888L53.9794 35.9252H53.9604ZM53.0718 32.8103L52.9441 32.7678C52.8401 33.0467 52.7881 33.2121 52.7929 33.2593L52.7976 33.3113C52.8969 33.3066 52.9868 33.1364 53.0718 32.8103ZM61.9911 34.8759L62.0006 34.9941L62.2085 35.0318L62.1991 34.9137L61.9911 34.8759ZM52.2115 36.0717L51.8901 36.0339L51.8334 36.1568L51.8381 36.2183L53.7524 36.0576L53.743 35.9394L52.2115 36.0717ZM51.3418 31.8792L51.3371 31.8177L51.2709 31.8224L51.1528 31.8981L51.2189 32.0114C51.3088 32.0021 51.3513 31.9594 51.3418 31.8792ZM62.8986 34.0062L62.9885 33.9967C63.0405 33.9919 63.0641 33.9494 63.0594 33.8738L63.0074 33.7603C62.6813 33.7887 62.53 33.8029 62.2653 33.9494L62.2605 33.8881L61.8683 33.9258C61.8588 33.8077 61.8258 33.7462 61.7738 33.7509L61.5705 33.7698C61.3341 33.7887 61.2206 33.7793 61.1025 33.8691C61.0978 33.8266 61.0836 33.8077 61.06 33.8077L60.8331 33.8266L60.7008 33.9022C60.696 33.8597 60.6819 33.8407 60.6581 33.8407L60.5779 33.9117L60.5731 33.8502L60.2564 33.8266L60.1808 33.8313L60.1903 33.9494L60.351 33.9919L60.5023 33.9826C60.5543 34.0157 60.6109 34.0251 60.6771 34.0203L60.8095 33.9542L60.8141 34.0062C60.0721 34.1906 60.0768 34.1574 59.5663 34.2426C59.5096 34.2047 59.467 34.1858 59.4386 34.1906L59.4293 34.1999C59.3725 34.1952 59.3394 34.1574 59.3348 34.0959L59.5994 34.0629C59.6183 34.0629 59.6325 34.0818 59.779 34.1102C59.9918 34.0062 60.0011 33.9636 60.1146 33.9542L60.1051 33.8359C59.3773 33.9778 59.6703 33.8833 58.758 33.9636L58.7155 33.9683L58.706 33.8502C59.8783 33.7084 59.486 33.7887 59.8878 33.6753C59.8925 33.7178 59.9066 33.7367 59.9303 33.7367C59.9775 33.6894 60.0295 33.6658 60.091 33.6564L60.1714 33.6517C60.5825 33.6186 60.7196 33.6989 61.5326 33.4721L61.5374 33.5241L61.6698 33.4578L61.7926 33.4484C61.7831 33.3302 61.9628 33.3113 62.0243 33.3066L62.0148 33.1789C60.5873 33.4673 60.2139 33.3869 59.8169 33.5004L59.8121 33.4484C59.4388 33.5146 59.4245 33.4862 59.33 33.4909C59.3016 33.4957 59.2591 33.5193 59.2118 33.5666C59.2071 33.5241 59.1929 33.5051 59.1645 33.5051C59.1504 33.5051 59.1456 33.5098 59.1409 33.5098L57.9309 33.7083C57.9261 33.6753 57.912 33.6564 57.8836 33.6611C57.255 33.7934 57.4251 33.8171 56.5838 33.8927C56.5459 33.8974 56.494 33.9163 56.4278 33.9589C56.423 33.9258 56.4041 33.9069 56.3616 33.9116L55.8464 33.9542L55.5014 34.0392C55.4966 34.0062 55.4778 33.9873 55.4351 33.9919C55.2414 34.0439 55.0713 34.0771 54.9341 34.0866H54.9246C54.8396 34.0959 54.9673 34.0629 54.901 34.0346L54.797 34.0959C54.6458 34.1102 54.7261 34.0866 54.2063 34.0912C53.294 34.2047 53.3933 34.2188 53.294 34.2236L52.9536 34.1999C52.9584 34.2331 52.9395 34.2567 52.9016 34.2567C52.514 34.2047 52.3155 34.1432 52.3108 34.0723C52.3628 33.7037 52.4526 33.5146 52.5803 33.5051L52.6464 33.5004L52.5896 33.6233L52.6559 33.6186C52.7788 33.5524 52.8355 33.4909 52.8308 33.4342L52.8213 33.3066L52.6984 33.3161L52.6889 33.1979C52.6795 33.1081 52.6936 33.0277 52.7268 32.9616L53.0056 32.5126L53.0151 32.6307L53.1474 32.6212L53.138 32.5031L53.0624 32.3943C53.1616 32.3093 53.2373 32.2619 53.2986 32.2573L53.294 32.1958L53.1144 32.2101L53.1001 32.0304C53.4594 31.2836 53.6295 30.8487 53.6201 30.7258L53.7478 30.7778C53.8281 30.7731 53.8659 30.7258 53.8611 30.6407L53.7383 30.6502L53.7335 30.5982C53.7241 30.5083 53.743 30.4233 53.7808 30.3477C53.9746 30.1444 54.0644 29.9412 54.0455 29.7284C54.0834 29.7237 54.1023 29.7427 54.107 29.7852C54.2724 29.6907 54.4 29.4402 54.4945 29.0242C54.7876 28.4948 55.2035 27.4361 55.7471 25.8526C56.787 23.0543 56.7445 22.7566 56.891 22.0948L56.7681 22.1042C56.7775 22.1893 56.7586 22.2697 56.7209 22.3453C56.6358 22.3122 56.5696 22.2933 56.5224 22.2981L56.5176 22.2461C56.4986 22.0049 56.598 21.7167 56.8249 21.3763L56.8815 21.3716L56.9855 21.7781L57.1084 21.7687C57.1038 21.7403 57.1368 21.5796 57.203 21.2818C57.1983 21.2203 57.151 21.1826 57.0564 21.1778L56.9383 21.2534C56.9289 21.1683 56.9335 20.9462 56.9478 20.5917L56.8863 20.5964C56.7823 20.4924 56.7303 20.4073 56.7255 20.3364L56.0496 20.4026C56.0449 20.3553 56.0213 20.2844 55.974 20.1947C55.9693 20.1332 56.1205 20.0717 56.4325 20.0103L56.5696 20.0623L56.6973 19.9867C56.7019 20.0292 56.7255 20.0481 56.7728 20.0434L56.9004 19.9678C56.9051 20.0103 56.9288 20.0292 56.9761 20.0244L57.0375 20.0198L57.028 19.8827C56.9335 19.8922 56.683 19.8922 56.286 19.8779L56.1584 19.9631L56.1536 19.8874C52.982 20.1473 51.1811 20.2939 50.751 20.3364C50.6943 20.3412 50.4721 20.3364 50.0798 20.3269C50.0845 20.3789 50.0373 20.4073 49.9428 20.4168L49.8056 20.3553L49.3424 20.4736C49.2336 20.4829 49.0494 20.4782 48.7941 20.4499C48.7233 20.5066 48.6381 20.5397 48.5341 20.5492C48.4774 20.5538 49.21 20.5113 49.8906 20.4641C49.8198 20.5208 49.7111 20.5538 49.5599 20.5681C49.4559 20.5776 49.366 20.5633 49.2904 20.5208C49.1864 20.5681 48.8509 20.6437 48.2884 20.7571L48.1513 20.7052L45.9391 21.0454C45.854 21.0029 45.7548 20.9887 45.6414 20.9982C45.5231 21.0077 45.3246 21.0502 45.0505 21.1258L43.9823 21.5701L44.0626 21.7024C44.1146 21.6977 44.1903 21.6694 44.28 21.6174L44.6583 21.6504L44.6109 22.0049C44.2611 22.1609 44.0579 22.3926 44.0011 22.6857C43.4765 22.9172 43.2165 23.0827 43.2165 23.1819L43.2213 23.2434L43.3016 23.2387L43.4434 23.1631L43.6089 23.3616L43.6325 23.6357C43.6419 23.7208 42.758 25.5784 40.9903 29.2086C39.4588 32.7063 38.6553 34.6207 38.5796 34.9657C38.055 35.1122 37.7524 35.3249 37.6626 35.6086C37.6721 35.6983 37.828 35.7598 38.1305 35.7834L38.1448 35.9204L38.0076 36.1473L38.0313 36.4216C38.0455 36.5633 38.4284 36.6721 39.1799 36.7477C39.1751 36.7004 39.1989 36.6721 39.2508 36.6673C39.265 36.8374 39.2178 37.1683 39.109 37.6599L39.1894 37.6552C39.5013 37.2298 39.6479 36.9367 39.6336 36.7761L39.6999 36.7713C39.7755 36.7666 39.8559 36.8517 39.9504 37.0359C39.8559 37.0738 39.525 37.8253 38.9578 39.2954L39.0381 39.4277L39.1185 39.4231C39.8133 37.6647 40.2481 36.6909 40.4278 36.5066C41.34 36.4262 42.9188 36.2656 45.1593 36.0244L45.301 35.9394C45.3058 35.9867 45.3341 36.0103 45.3861 36.0056L45.5326 35.9914L45.6745 35.9063C45.6791 35.9536 45.7075 35.9772 45.7595 35.9724L47.4564 35.8259C47.9055 35.7882 48.1181 35.6511 48.0993 35.4194C48.0945 35.3581 48.3593 35.2871 48.8934 35.2114C48.9454 35.2067 49.021 35.2209 49.125 35.2541C49.1203 35.2114 49.3896 35.1689 49.9285 35.1217C49.9428 34.8381 50.0325 34.6868 50.1933 34.6727L50.179 34.5356C50.0278 34.5497 49.8576 34.5876 49.6591 34.6537C49.3046 34.6348 49.0778 34.6064 48.9831 34.5733C48.8886 34.6253 48.8178 34.6537 48.7658 34.6584L47.584 34.6963L47.4423 34.7719C47.4375 34.7293 47.4091 34.7104 47.3571 34.7152L47.291 34.7199L47.1398 34.7956C47.135 34.7529 47.0121 34.7199 46.7663 34.6868L46.6151 34.7766L46.322 34.8002L46.3173 34.7246C47.8393 34.5592 48.5909 34.3512 48.5719 34.1054C48.6713 34.0959 48.7233 34.1432 48.7326 34.2426L49.177 34.1291L49.1628 33.9919L45.5185 34.0912C45.5231 34.1386 45.4995 34.1668 45.4476 34.1716L45.0033 34.1338C44.8898 34.1432 44.7953 34.1763 44.7196 34.2331L44.5543 34.1716C44.0958 34.2094 43.7554 34.2662 43.5285 34.3371C43.2165 34.3134 42.8715 34.3181 42.4886 34.3512L41.6709 34.4221L41.2928 34.3796C41.2739 34.1386 41.7418 32.9521 42.706 30.8251C42.985 30.1066 43.2401 29.6576 43.486 29.4874C43.538 29.4827 43.6136 29.5016 43.7176 29.5441L44.299 29.3456L44.5968 29.3928C45.0978 29.3503 45.6791 29.2086 46.3456 28.9627C46.5111 28.9486 46.634 28.9581 46.7238 28.9958L47.1681 28.8918L48.4916 28.7784C49.054 28.7312 49.6638 28.6082 50.3255 28.4049L50.3114 28.2679C50.0656 28.2916 49.938 28.2491 49.9285 28.1497C49.9144 27.9654 49.7348 27.8898 49.3896 27.9181L49.3755 27.7811L49.7395 27.6771L50.6943 27.5967L50.68 27.4597C50.6423 27.4643 50.4485 27.4597 50.0893 27.4454L50.075 27.2989L50.4438 27.2658C50.543 27.2564 50.5855 27.2091 50.5761 27.1146C50.0798 27.1288 49.8293 27.1052 49.8245 27.0389C46.3645 27.2091 44.6299 27.2422 44.6204 27.1334C44.5684 27.1382 44.4975 27.1713 44.403 27.2281L44.3131 27.0862C45.2301 25.1388 45.769 24.1557 45.925 24.1414C45.9296 24.2171 45.8919 24.3399 45.8068 24.5054L45.8115 24.5668L45.958 24.5527C46.322 23.6829 46.6293 23.2339 46.8845 23.2151C47.9716 23.1204 46.7333 23.0496 49.0588 22.6857C49.1534 22.7282 49.2195 22.7471 49.2668 22.7423C50.179 22.5581 51.4505 22.3642 53.0813 22.1657L53.0718 22.0286L52.202 22.1089L52.1926 21.9719C52.2966 21.9624 52.3816 21.9293 52.4526 21.8727L52.4573 21.9483C52.5046 21.9436 52.5708 21.9104 52.6559 21.8537C52.8071 21.8396 52.9205 21.8537 53.0009 21.8963C53.3034 21.8159 53.5491 21.7687 53.7288 21.7497L54.2724 21.6977C54.4048 21.6127 54.4661 21.5371 54.4615 21.4662L54.4568 21.4047C54.3196 21.4188 54.1636 21.4094 53.9794 21.3763C53.9746 21.3007 54.0124 21.2487 54.1023 21.2251L55.1138 21.1306L55.577 21.0123C55.5816 21.0643 55.6054 21.0833 55.6431 21.0833C55.6904 21.0786 55.7566 21.0454 55.8416 20.9887C55.8653 20.9934 55.8936 20.9934 55.9173 20.9982C55.8559 21.1258 55.7849 21.3102 55.714 21.5512L55.5816 21.5607C55.5723 21.4708 55.5486 21.3906 55.506 21.3196L55.4399 21.3243C54.2109 24.7464 53.6626 26.3394 52.5283 28.9674C52.3203 29.6387 52.1454 30.0121 51.9941 30.0924C51.9989 30.1681 52.0461 30.2058 52.1265 30.1964C52.1548 30.5273 52.0791 30.8534 51.8949 31.1748C51.3701 32.6874 51.0204 33.5146 50.8408 33.6658L50.9589 34.3796C50.9636 34.4552 50.9259 34.4977 50.8455 34.5072L50.7226 34.5167C50.7036 34.3181 50.6328 34.2236 50.5051 34.2378L50.439 34.2426C50.2783 34.4931 50.1554 34.7813 50.075 35.1169L50.1979 35.1074C50.3634 34.9988 50.439 34.8712 50.4248 34.7246L50.6706 34.7009L50.8124 34.7529C50.699 34.9326 50.647 35.0744 50.6564 35.1831L50.7226 35.2966L50.5619 35.6747L50.5666 35.7362C50.7084 35.7219 50.8644 35.7692 51.0299 35.8684C51.1433 35.8591 51.2661 35.8071 51.4033 35.7172C51.545 35.7031 52.0744 35.6983 52.9868 35.6983L53.4451 35.5423C54.003 35.5376 54.0928 35.5518 54.5749 35.5093L54.7734 35.4903L54.8774 35.4194L54.8821 35.4809C55.3879 35.4383 55.421 35.4714 55.818 35.5187L55.8228 35.5802L55.5439 35.6038L55.5533 35.7219C55.6384 35.7126 55.714 35.6888 55.7755 35.6369C55.8464 35.6322 55.8889 35.6699 55.8936 35.7551C55.7803 35.7646 55.6526 35.7928 55.5108 35.8402L55.3879 35.7976C55.1941 35.8496 55.2366 35.8638 55.1043 35.8732L54.9105 35.8354C54.9153 35.8684 54.8963 35.8921 54.8633 35.8921C54.8679 35.9678 54.9105 36.0056 54.9814 36.0008L55.1799 35.9819L56.215 35.8921L56.6074 35.8071C56.6121 35.8402 56.6263 35.8591 56.6594 35.8543L56.8484 35.7834L57.203 35.7551C57.4771 35.7314 57.4724 35.7126 58.0679 35.6179C58.0633 35.5802 58.0774 35.5659 58.1058 35.5613L58.1105 35.6132C59.0795 35.4478 59.1409 35.4383 59.2969 35.3863L59.311 35.4147C59.5521 35.3581 59.415 35.3722 59.4813 35.3249C59.486 35.3674 59.5001 35.3863 59.5238 35.3863L59.6939 35.3722L59.6845 35.2446L59.3394 35.2398L59.3348 35.2304C59.3205 35.2351 59.311 35.2351 59.2969 35.2398H59.2496V35.2493C59.018 35.2966 59.0133 35.2634 58.862 35.2777L57.997 35.3249L57.9923 35.2634L58.4744 35.1973L58.6493 35.1831L58.7486 35.1122L58.7533 35.1737C59.434 35.1169 59.675 35.2871 62.823 34.6159C62.9931 34.6017 62.979 34.4599 63.0878 34.1668C63.031 34.1716 62.9743 34.1574 62.9223 34.1291C62.6624 34.2283 62.5253 34.1811 62.0243 34.2614C61.9816 34.2662 61.9486 34.2283 61.9344 34.1527L61.9296 34.1007L62.4118 34.1148C62.5016 34.1054 62.6765 34.0912 62.9365 33.9447C62.9365 33.9873 62.8419 34.0109 62.8986 34.0062ZM39.6243 34.3796L39.402 34.3984C39.3926 34.3087 39.5108 33.9683 39.7565 33.3869L39.9031 33.3728C39.9079 33.5098 39.818 33.8454 39.6243 34.3796ZM39.8936 33.3019L39.8889 33.2404C39.8841 33.1648 39.9315 33.1128 40.0355 33.0892L40.0401 33.1506C40.0449 33.2404 39.9976 33.2924 39.8936 33.3019ZM42.8479 35.5849L42.8526 35.6463L42.4839 35.6794L42.4791 35.6179L42.8479 35.5849ZM42.4035 35.5471C42.4083 35.6227 42.2949 35.7078 42.049 35.7928L41.5953 35.7598L41.4488 35.7739L41.4346 35.6369L42.4035 35.5471ZM45.3909 21.7971L45.1686 21.8159L45.164 21.7403C45.1593 21.6647 45.2018 21.6127 45.2963 21.5891L45.3766 21.5843L45.5279 21.6457C45.5326 21.7356 45.4901 21.7876 45.3909 21.7971ZM48.7705 21.1353L48.8414 21.1306L48.8508 21.2676L48.6475 21.2866C48.6429 21.2109 48.6806 21.1589 48.7705 21.1353ZM47.9196 21.4331L47.584 21.3952L47.5793 21.3338C48.0189 21.2959 48.1654 21.2487 48.4349 21.1731C48.4396 21.2251 48.4869 21.2439 48.5719 21.2346L48.5814 21.3716L48.449 21.3858C48.345 21.3952 48.2553 21.3811 48.1796 21.3386C48.0993 21.3906 48.0141 21.4236 47.9196 21.4331ZM48.3404 22.6573L48.3356 22.5958L48.8791 22.5438L48.8839 22.6053L48.3404 22.6573ZM48.9218 22.1846L48.917 22.1089L49.1816 22.0853L49.1864 22.1609L48.9218 22.1846ZM48.9831 21.2582L48.9123 21.2629L48.9738 21.1163L49.5788 21.0597L49.5835 21.1353C49.4275 21.1494 49.2243 21.1919 48.9831 21.2582ZM49.2904 22.5627L49.2809 22.4257L49.5456 22.4021C49.6355 22.3926 49.6828 22.4351 49.6875 22.5297L49.2904 22.5627ZM50.8928 20.3789L50.5524 20.4736L50.491 20.4782C50.3303 20.4924 50.1223 20.4877 49.8765 20.4641C50.3161 20.4357 50.7368 20.4026 50.8928 20.3789ZM50.5288 21.8916L50.5335 21.9529L50.0656 21.9956L50.0609 21.9341L50.5288 21.8916ZM51.2945 22.2554C51.2898 22.1988 51.2 22.1609 51.0156 22.1421L50.5478 22.2744L50.1885 22.2886C50.1081 22.2318 50.0656 22.1941 50.0609 22.1657L50.4769 22.1893L51.4128 22.0381L51.8901 22.0569L51.8949 22.1326C51.6585 22.1562 51.46 22.1988 51.2945 22.2554ZM56.1111 21.0123C56.1678 21.0171 56.2056 21.0171 56.2198 21.0171C56.3853 20.8564 56.5696 20.7288 56.7823 20.6389C56.6121 21.3858 56.3474 21.9388 55.9835 22.2981L55.7188 22.1373C55.9409 21.5748 56.0733 21.2014 56.1111 21.0123ZM55.2981 22.4068L55.3643 22.4021C55.2744 22.5722 55.1941 22.6619 55.1279 22.6667L55.1138 22.4871C55.1563 22.4871 55.2178 22.4587 55.2981 22.4068ZM54.7734 23.6593C54.901 23.1488 55.0239 22.8606 55.1374 22.7849L55.1421 22.8463C55.0759 23.3191 54.9719 23.5696 54.8349 23.5884L54.8585 23.8862C54.745 24.0469 54.693 24.1698 54.6978 24.2643L54.6316 24.2691L54.5938 23.8578C54.6694 23.8484 54.7309 23.7822 54.7734 23.6593ZM54.5701 24.3399C54.5749 24.4109 54.5276 24.5763 54.4331 24.8316L54.3669 24.8363L54.3528 24.6567C54.4425 24.4487 54.5181 24.3447 54.5701 24.3399ZM50.7558 35.4099L50.751 35.3581L50.8739 35.3486L50.888 35.5282C50.8219 35.5329 50.7746 35.4951 50.7558 35.4099ZM56.2056 35.5518C56.2009 35.5093 56.182 35.4903 56.1395 35.4951L55.8323 35.5234L55.8275 35.4619H55.8559L56.5838 35.4006L56.5885 35.4619C56.3758 35.4714 56.2481 35.5046 56.2056 35.5518ZM55.8416 35.4006C55.87 35.4147 55.8559 35.4289 55.8416 35.4383C55.8275 35.4337 55.8086 35.4194 55.8416 35.4006ZM55.8795 34.5497L55.473 34.5828L55.4683 34.5213L55.8369 34.4883L56.1584 34.4079C56.1631 34.4457 56.182 34.4599 56.2245 34.4552C56.6074 34.3891 56.5696 34.3702 56.7539 34.3559C56.8154 34.3512 56.8533 34.3891 56.8579 34.4647L55.8795 34.5497ZM57.3023 34.4268C57.0754 34.4032 57.0611 34.3843 56.9005 34.3984L56.8958 34.3464L57.2596 34.3134L57.2644 34.3654C57.2266 34.3702 57.3636 34.3796 57.3023 34.4268ZM57.3306 34.3607L57.3259 34.3087L57.5244 34.2898L57.5291 34.3418L57.3306 34.3607ZM57.7701 34.3228L57.7655 34.2708C57.7985 34.2662 57.8458 34.2426 57.9073 34.1952C58.0065 34.1858 58.0585 34.2519 58.068 34.3276L57.7701 34.3228ZM58.3326 34.2519L58.3279 34.1906L58.569 34.1716L58.5738 34.2331L58.3326 34.2519ZM58.6683 34.2236C58.6635 34.1527 58.6919 34.1102 58.7534 34.1007L58.8336 34.2047C58.829 34.1716 58.8431 34.1527 58.8715 34.1479L58.933 34.2614L58.6683 34.2236ZM55.0996 35.7646L55.0901 35.6463L55.0523 35.6511L55.0618 35.7692L55.0996 35.7646ZM63.4045 33.6138C63.4423 33.5902 63.4611 33.5666 63.3714 33.5524C63.3288 33.5997 63.4186 33.6138 63.3241 33.6186L63.3288 33.6611C63.3383 33.6517 63.3619 33.6374 63.3808 33.6233L63.3288 33.6658V33.6706L63.2295 33.7982L63.428 33.7273H63.4518L63.4423 33.6091L63.4045 33.6138ZM63.7495 33.8833L63.7116 33.8881L63.7211 34.0062L64 33.9826C63.9953 33.9069 63.8109 33.8833 63.7495 33.8833ZM63.3194 33.6753L63.3241 33.6706V33.6658C63.3241 33.6658 63.3194 33.6706 63.3194 33.6753Z" fill="black"/>
<path d="M45.1734 24.9262L45.1781 25.0019L45.3341 24.9878C45.3294 24.9405 45.3482 24.8649 45.3814 24.7702L45.3672 24.6333C45.301 24.638 45.2349 24.7372 45.1734 24.9262ZM43.6797 21.334L43.6656 21.1969L43.4434 21.2157L43.4576 21.3529L43.6797 21.334ZM39.3454 29.4497C39.3359 29.3221 38.9389 28.8259 38.1543 27.9514C38.14 27.7907 38.4095 27.5496 38.9625 27.233L40.5412 25.8575C40.8957 25.4084 41.1036 24.6805 41.1651 23.669L41.1463 23.4374C41.0848 22.7378 40.579 22.1754 39.6195 21.7452C39.0522 21.3624 38.0312 21.1496 36.5566 21.1118C35.3371 21.2157 33.7441 21.6506 31.7826 22.4211C31.2437 22.8087 30.6292 23.1963 29.9391 23.5839L29.9486 23.7021C29.9911 23.6974 30.0572 23.6737 30.133 23.6217C30.2132 23.6122 30.2606 23.6501 30.2652 23.7257L30.3835 23.6642L30.4401 23.6595L30.4449 23.7115C30.4496 23.773 30.0243 24.1085 29.164 24.7089L29.2301 24.8317L29.1734 24.8365L29.0316 24.7845C29.0364 24.827 28.9749 24.8554 28.8568 24.8649L28.8615 24.9169L28.9985 25.087C28.956 25.0917 28.8899 25.0729 28.8 25.0398C28.6015 25.0586 28.4076 25.1626 28.2139 25.3611L28.2943 25.0114C28.5826 23.7682 28.7811 22.6669 28.8851 21.7121L28.8709 21.6506C28.6724 21.523 28.4786 21.3434 28.299 21.1165C28.3037 20.97 28.3037 20.8849 28.299 20.866L28.2847 20.814L28.2281 20.8283C27.6041 21.7641 26.4035 23.3618 24.6216 25.6211C23.265 27.2283 22.5654 28.1215 22.5229 28.3011C21.9699 28.8731 21.7051 29.2181 21.7335 29.3364C21.587 29.4309 21.5255 29.5254 21.5492 29.6294C21.5066 29.6389 21.4783 29.6246 21.4689 29.5821C21.2325 29.965 20.8827 30.2107 20.4147 30.3195L19.9231 30.4329C19.857 30.4471 19.8239 30.4944 19.8286 30.5747L19.8429 30.6361L20.0271 30.5936L20.0414 30.6456L19.6254 30.8064L18.888 30.9765L18.5005 31.0001C18.4438 31.0569 18.8076 30.9954 18.6659 31.0285L18.1838 31.142C17.8908 31.2081 17.73 31.1845 17.7016 31.0664L17.6449 31.0805C17.6544 31.1325 17.6591 31.1702 17.6496 31.2034L17.6213 31.0852L17.2336 31.175C17.2054 30.9954 16.6806 30.3431 15.6644 29.2181C15.6455 29.0008 16.0047 28.684 16.7374 28.2729L18.8076 26.453C19.2709 25.8575 19.545 24.9026 19.6349 23.5886L19.6065 23.2814C19.5261 22.355 18.855 21.6081 17.5929 21.0315C16.8461 20.5257 15.5037 20.2563 13.5658 20.2138C11.9586 20.3507 9.86 20.9227 7.27913 21.9201C6.57013 22.4353 5.76188 22.9457 4.85437 23.4515L4.8685 23.6122C4.93 23.6075 5.01038 23.5745 5.10962 23.5177C5.21362 23.5082 5.27037 23.5555 5.27975 23.6501L5.4405 23.5602L5.52087 23.5555L5.5255 23.6311C5.53025 23.7067 4.96775 24.1464 3.82862 24.9499L3.9185 25.0918L3.83812 25.0965L3.66325 25.035C3.668 25.0822 3.58763 25.1154 3.42213 25.1295L3.43162 25.2146L3.62063 25.4226C3.55925 25.4274 3.47412 25.4084 3.3655 25.3706C2.99675 25.4036 2.6375 25.6684 2.283 26.1694L2.37287 26.3113C2.68012 26.0276 2.85962 25.8859 2.91162 25.8811L2.93062 26.1128C2.87862 26.1174 2.79825 26.1505 2.6895 26.2073L2.88337 26.5002C3.25675 26.0985 3.668 25.7535 4.117 25.4651C4.33913 25.5219 4.45738 25.5928 4.462 25.6684L4.63225 25.6543C5.85175 24.7514 7.057 24.0991 8.25288 23.6974L8.26713 23.858C8.04488 24.1889 7.89363 24.3591 7.81325 24.3685C7.82275 24.482 7.86062 24.5813 7.9315 24.6664C7.95038 24.8696 7.40675 26.2404 6.3055 28.7739C3.805 34.6634 1.70638 39.0214 0 41.8385C0.00475 41.8952 0.037875 41.9709 0.09925 42.0654C0.52 41.9661 0.784625 41.8622 0.898125 41.7629L0.987875 41.7535L1.00213 41.9141L1.158 41.9L1.31875 41.8102C1.3235 41.8575 1.3755 41.8811 1.48425 41.8716L1.49838 42.0324C1.5125 42.1884 1.42275 42.4246 1.23363 42.7507C1.0635 42.9446 0.879125 43.3511 0.685375 43.9704L0.690125 44.0459L0.846125 44.0317C1.52675 43.2708 2.042 42.5239 2.3965 41.796C4.38175 41.2146 5.89425 40.6426 6.94362 40.0802C7.99762 39.9904 8.80112 39.7115 9.3495 39.253L9.34 39.168L8.943 39.2861L8.85312 39.2956L8.84375 39.2105C9.61888 39.0924 10.153 38.9221 10.4509 38.6859C11.9586 37.523 13.0977 36.7006 13.8682 36.2138C15.4517 35.051 16.4821 33.9165 16.9501 32.8153C17.0351 32.7963 17.1203 32.7774 17.2148 32.7537C17.4369 32.7444 17.5599 32.7396 17.5929 32.7301C17.5835 32.6876 17.6024 32.664 17.6449 32.6545C17.9994 32.6167 17.8293 32.6781 18.0561 32.6261L18.6518 32.4891L18.751 32.4654L18.7038 32.4937C18.7699 32.5032 18.8407 32.4985 18.9211 32.4796L18.9636 32.6545L16.2553 36.9605L15.655 37.7121L15.3619 38.6952L15.4186 38.6811L15.7116 38.5583L15.6171 38.9411L15.6455 39.0545L15.7259 39.1537C15.688 39.1632 15.6739 39.1869 15.6833 39.2294L15.6975 39.2909L15.8204 39.2625C16 39.1065 16.0756 38.9648 16.0473 38.8371C16.241 38.8701 16.3686 38.8844 16.4349 38.8655L16.449 38.9269C16.3309 38.9552 16.2694 39.0498 16.26 39.2105L16.2741 39.2719L16.3404 39.2577C17.3235 38.1847 19.7341 34.5121 21.6674 32.0211C21.6059 31.7517 22.6127 31.3783 24.6925 30.8961L24.7586 30.882C24.8342 31.2081 24.6736 31.9975 24.2765 33.2501C24.0212 34.0064 23.8984 34.4222 23.9172 34.4885C23.5864 35.4952 23.4304 36.0389 23.4494 36.1239L22.712 38.5392C22.2345 39.7778 21.8706 41.0775 21.6154 42.4482C21.6579 42.4389 21.7241 42.4436 21.8186 42.4673L21.9226 42.3774C21.932 42.42 21.9604 42.4341 22.003 42.4246L21.9604 42.2498L22.2819 42.2404C22.3764 42.2168 22.4567 42.0985 22.5229 41.8811C22.5087 41.555 22.5749 41.3801 22.7214 41.3423C22.9199 40.5671 23.0429 40.1795 23.0854 40.1653C23.2698 39.3949 23.4068 38.9552 23.4966 38.8465C23.7755 37.8445 23.9788 37.3293 24.1111 37.2961L24.1395 37.419L23.9363 37.9438C23.5816 39.5177 23.2225 40.7609 22.8585 41.6731L22.9625 42.1269L23.0286 42.1127C23.9079 40.222 25.1746 36.4784 26.8242 30.882C26.8715 30.3904 27.1079 30.0075 27.5285 29.7381L27.434 29.6389L27.4198 29.5869C27.6089 29.5442 27.7413 29.4688 27.8169 29.3647C27.8074 29.3221 27.642 29.2607 27.3205 29.1756L28.143 25.6495C28.3226 25.4887 28.4266 25.4037 28.4596 25.4037L28.4739 25.5833C28.4314 25.588 28.3651 25.6116 28.2895 25.6636L28.4455 25.8859C28.7291 25.5786 29.0364 25.3139 29.3719 25.0918C29.5421 25.139 29.6271 25.1958 29.6366 25.2524L29.7595 25.243C30.6954 24.5576 31.6124 24.066 32.5153 23.7682L32.5246 23.8864C32.3592 24.1369 32.2458 24.2645 32.1844 24.2692C32.1938 24.3544 32.2174 24.43 32.26 24.4961C32.2741 24.6521 31.8676 25.692 31.0357 27.6205C29.1356 32.0872 27.5426 35.3913 26.2475 37.5373C26.2522 37.5798 26.2806 37.6365 26.3326 37.7121C26.6494 37.6365 26.8526 37.5561 26.933 37.4805L26.9896 37.4757L26.9991 37.5939L27.1315 37.5845L27.2496 37.523C27.2544 37.5561 27.2969 37.5702 27.3773 37.5656L27.3867 37.6933C27.3961 37.8066 27.33 37.9862 27.1835 38.232C27.0464 38.3786 26.9046 38.6859 26.7534 39.1537L26.758 39.2153L26.881 39.2057C27.3961 38.6291 27.7885 38.0619 28.0579 37.5041C29.5658 37.0599 30.7144 36.6296 31.5084 36.2043C32.3167 36.1334 32.9264 35.9254 33.3424 35.5756L33.3376 35.5141L33.0304 35.604L32.9642 35.6087L32.9595 35.5473C33.5456 35.4621 33.9569 35.3299 34.179 35.155C35.3229 34.2758 36.1879 33.6471 36.774 33.2784C38.5985 31.9502 39.4494 30.674 39.3454 29.4497ZM39.0334 29.5301L39.0759 30.0075C39.0192 30.1257 38.9578 30.1871 38.901 30.1919L38.8301 29.3789C38.9625 29.4261 39.0286 29.4734 39.0334 29.5301ZM3.2425 25.6826L3.16225 25.6873L3.148 25.5408L3.47412 25.5124L3.47887 25.588C3.42687 25.5927 3.3465 25.6211 3.2425 25.6826ZM1.64962 41.6164C1.46062 41.5312 1.29037 41.4982 1.14388 41.5124L1.125 41.2808C1.1155 41.191 1.1675 41.1295 1.281 41.1059C1.38488 41.0965 1.44638 41.1721 1.45588 41.3234C1.73 40.9878 1.88125 40.8176 1.90963 40.8129L2.0845 40.8838C2.02775 41.3564 1.88125 41.5975 1.64962 41.6164ZM18.6706 23.8108C18.5903 23.8203 18.4295 23.5697 18.198 23.0734L18.1838 22.9269C18.335 22.9128 18.491 23.1585 18.6564 23.6642L18.6706 23.8108ZM18.4438 22.0477L18.3775 22.2037L16.0661 21.2394C17.6071 21.2914 18.4013 21.5609 18.4438 22.0477ZM8.683 30.4283L8.35688 30.4566L8.34275 30.31L8.66887 30.2816L8.683 30.4283ZM8.41825 25.3942L8.49862 25.3895L8.51762 25.6211C8.442 25.6259 8.34275 25.7392 8.21975 25.9567L8.20562 25.796C8.35212 25.6211 8.42775 25.4887 8.41825 25.3942ZM7.73287 27.0107L7.76125 27.318L7.681 27.3228L7.65263 27.0155L7.73287 27.0107ZM7.37375 27.5875L7.52975 27.5732C7.5155 27.8285 7.44462 27.9656 7.317 27.975L7.23663 27.9797C7.33588 27.8096 7.38313 27.6772 7.37375 27.5875ZM7.10425 28.391L7.19413 28.3815L7.19875 28.4571L7.05225 28.703L6.89625 28.7171L6.89162 28.6415C7.04763 28.6274 7.1185 28.547 7.10425 28.391ZM6.83962 29.1143L6.79238 29.5017L6.712 29.5065L6.67887 29.1236L6.83962 29.1143ZM4.18787 36.6534C4.08387 37.1828 3.9705 37.4521 3.85225 37.4616L3.84763 37.386C3.81925 37.126 3.93262 36.8803 4.18787 36.6534ZM3.701 37.7074L3.70575 37.783C3.71525 37.887 3.668 37.9485 3.564 37.9531L3.55925 37.8775C3.54975 37.7878 3.597 37.731 3.701 37.7074ZM3.55925 39.8959L3.805 39.8722L3.8145 39.9574C3.753 39.962 3.67263 39.9951 3.57337 40.0519L3.41738 40.066C3.408 39.9856 3.46 39.9243 3.55925 39.8959ZM10.5548 37.7358C9.17463 38.4164 8.36162 38.8796 8.1205 39.1206C6.62687 39.6406 5.88475 39.962 5.899 40.0896C4.57075 40.6144 3.69625 41.0019 3.27562 41.243C3.17637 41.2524 3.03463 41.2146 2.8455 41.1295C2.82188 40.8601 2.94475 40.6426 3.20475 40.4678C3.43638 40.4489 3.6585 40.482 3.87125 40.5718C4.117 40.4441 4.54713 40.3024 5.15688 40.1511L5.14275 39.9904L4.65112 40.0329C4.7125 39.9479 5.18525 39.7257 6.07387 39.3665L6.31962 39.3429L6.32438 39.4185C5.90375 39.4563 5.67212 39.5791 5.62012 39.8014C5.6295 39.9006 5.68625 39.9431 5.79025 39.9336C6.107 39.7351 6.26288 39.617 6.25825 39.5839C6.8585 39.4705 8.51763 38.6007 11.2355 36.9795L11.2496 37.126C11.2544 37.1969 11.0228 37.3954 10.5548 37.7358ZM6.38588 39.1065C6.78288 39.0734 7.12325 38.9128 7.40675 38.6339C7.52025 38.6244 7.58175 38.6669 7.58638 38.7661C7.39263 38.7851 7.01925 38.9457 6.47563 39.2577L6.39525 39.2625L6.38588 39.1065ZM13.112 33.9401L11.0275 35.5945C9.47713 36.6108 8.64525 37.1213 8.52225 37.1308C6.055 38.4873 4.51875 39.1916 3.92325 39.2436L3.83337 39.253C3.909 38.9741 5.00562 36.729 7.13263 32.5033C8.0685 32.4229 9.54325 31.988 11.5521 31.194L12.0437 31.1514C13.06 31.0616 13.821 31.2601 14.322 31.7327L14.3504 32.04C13.977 33.1225 13.561 33.7559 13.112 33.9401ZM9.0375 31.6477L9.37313 31.6194L9.37788 31.695L9.04225 31.7234L9.0375 31.6477ZM13.7501 30.8489L13.9959 30.8252C14.2228 30.934 14.3409 31.0285 14.3504 31.1136L14.3551 31.1892C14.1376 31.2081 13.9344 31.0946 13.7501 30.8489ZM14.4165 27.0534C14.1991 27.3132 13.6035 27.7576 12.6299 28.3815C12.3084 28.4099 11.1125 28.8731 9.04225 29.7806C8.93825 29.7334 8.8295 29.7145 8.71138 29.7239L8.69725 29.5774C8.67362 29.2796 8.80587 28.9062 9.099 28.4525C9.25963 27.6016 9.43462 27.1147 9.62838 26.9966L11.3536 23.116C11.3348 22.8749 11.7034 22.6905 12.4596 22.5629L12.7055 22.5392L12.7244 22.7615C13.4665 22.648 13.9296 22.5819 14.1093 22.5676C15.4801 22.4495 16.1938 22.7284 16.2505 23.3949L16.4065 23.3806L16.3734 22.9884L16.5436 22.9741C16.9454 23.1962 17.1628 23.4657 17.1911 23.7824C17.21 23.9999 17.0919 24.2693 16.8414 24.5908C16.7374 24.6001 16.6759 24.5245 16.6665 24.3733L16.4963 24.3875L16.4585 24.8601C15.7636 25.9 15.2579 26.4341 14.946 26.4625C14.6624 26.8548 14.4875 27.0486 14.4165 27.0534ZM15.4754 29.7712C15.3335 29.6766 15.2201 29.6341 15.135 29.6389L15.1161 29.4073L15.2721 29.393L15.6171 29.5964C15.6314 29.705 15.584 29.7618 15.4754 29.7712ZM16.572 31.071C16.7233 31.1325 16.813 31.1986 16.8319 31.2601L16.7563 31.279L16.761 31.2837C16.7469 31.2837 16.7279 31.2885 16.7138 31.2933L16.6003 31.383L16.572 31.071ZM16.6759 31.7234L16.6618 31.6619L16.8603 31.6146L16.8745 31.6761L16.6759 31.7234ZM17.1534 32.2575C17.3566 32.2244 17.4559 32.2102 17.834 32.1251L17.8481 32.1865L17.1297 32.352C17.1391 32.3189 17.1486 32.2859 17.1534 32.2575ZM17.8529 32.5553C17.5504 32.5836 17.6165 32.5457 17.1344 32.6545L17.1203 32.593L17.7253 32.3993L18.0136 32.3331L18.042 32.4465C17.9096 32.4749 18.0041 32.4749 17.8529 32.5553ZM18.491 32.404C18.4201 32.4229 18.3634 32.3899 18.3302 32.3095L18.5146 32.2669C18.595 32.248 18.647 32.2811 18.6659 32.3615L18.491 32.404ZM20.221 30.5416L20.2068 30.4803L20.5046 30.4093L20.533 30.5227L20.221 30.5416ZM22.0691 41.8764C22.088 41.7913 22.0928 41.7299 22.0833 41.6873L22.1495 41.6731C22.2299 41.6542 22.2771 41.6826 22.296 41.7582L22.3102 41.8196L22.0691 41.8764ZM23.3643 31.0285L23.2319 31.0049C23.0192 31.09 22.8396 31.1514 22.693 31.1845L22.5701 31.2129C22.4993 31.2318 22.4425 31.2034 22.4141 31.1278L23.2791 30.9292L23.5627 30.7969L23.6574 30.9056C23.5203 30.934 23.421 30.9765 23.3643 31.0285ZM24.0308 30.8158L24.0165 30.7544C24.0591 30.7449 24.1157 30.7119 24.1772 30.6504L24.7917 30.5085L24.8059 30.57C24.4798 30.6504 24.2197 30.7308 24.0308 30.8158ZM24.1252 29.5726C24.0828 29.5821 24.026 29.6199 23.9551 29.6766C23.9456 29.6341 23.8606 29.6341 23.6999 29.6719C23.6715 29.5538 24.1252 29.3884 25.0659 29.1709L25.1982 29.1425L25.2266 29.256C24.5649 29.4497 24.1961 29.5585 24.1252 29.5726ZM25.7796 27.786C25.7135 28.5375 25.4487 28.9629 24.9807 29.0716L24.9666 29.0103L24.5506 29.1709L24.3664 29.2135C24.2717 29.2371 24.1868 29.2324 24.1111 29.2087L24.0732 29.0433C24.0591 28.9819 24.6594 28.1499 25.8789 26.5522L26.0206 26.5759C26.0726 26.7934 25.9924 27.1951 25.7796 27.786ZM28.7055 25.2807L28.6488 25.2855L28.6392 25.1674L28.8851 25.1438L28.8897 25.2051C28.8472 25.2146 28.7859 25.2382 28.7055 25.2807ZM27.5001 37.386C27.3584 37.3197 27.2307 37.2914 27.122 37.3009L27.1079 37.1213C27.1031 37.0599 27.1409 37.0173 27.2213 36.9936C27.3016 36.9843 27.3489 37.0409 27.3584 37.1637C27.5616 36.9039 27.675 36.7715 27.6986 36.7715L27.8263 36.8235C27.779 37.1827 27.6704 37.3717 27.5001 37.386ZM40.423 23.8675C40.3616 23.8722 40.2434 23.6831 40.0591 23.3003L40.0496 23.1821C40.1678 23.1726 40.2907 23.357 40.4136 23.7351L40.423 23.8675ZM40.2529 22.5156L40.1961 22.6385L38.4473 21.9059C39.6147 21.9437 40.2197 22.147 40.2529 22.5156ZM32.8366 28.8826L32.5909 28.9062L32.5814 28.788L32.8271 28.7644L32.8366 28.8826ZM32.6334 25.0586L32.6995 25.0539L32.7137 25.2335C32.6522 25.2382 32.5766 25.3234 32.4869 25.4887L32.4774 25.3706C32.5861 25.2335 32.6381 25.1295 32.6334 25.0586ZM32.1181 26.2876L32.1371 26.5192L32.0709 26.524L32.052 26.2924L32.1181 26.2876ZM31.8393 26.7271L31.9621 26.7178C31.948 26.9163 31.896 27.0202 31.8062 27.0296L31.74 27.0344C31.8109 26.9021 31.844 26.7981 31.8393 26.7271ZM31.6408 27.3323L31.6975 27.3275L31.7022 27.3889L31.5935 27.578L31.4706 27.5875L31.4659 27.526C31.5935 27.5165 31.6503 27.4504 31.6408 27.3323ZM31.4422 27.8805L31.3997 28.183L31.343 28.1877L31.3194 27.89L31.4422 27.8805ZM29.4239 33.614C29.3436 34.0111 29.2585 34.2144 29.1686 34.2238L29.164 34.1718C29.1497 33.9733 29.2349 33.7841 29.4239 33.614ZM29.0505 34.4129L29.0553 34.4649C29.0648 34.5499 29.0269 34.5971 28.9417 34.6019L28.9371 34.5405C28.9324 34.479 28.9701 34.4365 29.0505 34.4129ZM28.9465 36.0766L29.1356 36.0625L29.1402 36.1239C29.0977 36.1286 29.0316 36.1523 28.956 36.1949L28.8331 36.2043C28.8284 36.1381 28.8661 36.0956 28.9465 36.0766ZM34.2546 34.4365C33.2147 34.9517 32.5955 35.3015 32.4017 35.4811C31.2674 35.8781 30.7049 36.1239 30.7144 36.2231C29.7075 36.625 29.0457 36.9132 28.7339 37.0976C28.6583 37.1024 28.5495 37.074 28.4076 37.0079C28.3888 36.8046 28.4832 36.6391 28.6819 36.5163C28.8615 36.5021 29.0316 36.5257 29.1876 36.5919C29.3766 36.4974 29.7028 36.3934 30.166 36.2751L30.1566 36.157L29.7738 36.1901C29.821 36.1239 30.1849 35.9537 30.8609 35.6796L31.0499 35.6654L31.0546 35.7174C30.7332 35.7458 30.5536 35.8404 30.5158 36.0105C30.5205 36.0861 30.5677 36.1239 30.6481 36.1145C30.8845 35.9585 30.9979 35.8686 30.9979 35.8404C31.4517 35.76 32.709 35.0982 34.7746 33.8599L34.784 33.978C34.784 34.0252 34.6091 34.1765 34.2546 34.4365ZM31.0877 35.4764C31.395 35.448 31.655 35.3299 31.8724 35.1219C31.9528 35.1171 32 35.1502 32.0047 35.2259C31.8629 35.24 31.584 35.3582 31.1634 35.5851L31.0972 35.5898L31.0877 35.4764ZM36.2021 31.5485L34.6281 32.8153C33.4511 33.5856 32.813 33.9733 32.7137 33.9827C30.842 35.0131 29.6791 35.5473 29.2206 35.5851L29.1545 35.5898C29.2112 35.3771 30.0479 33.6707 31.6644 30.466C32.3686 30.4046 33.4842 30.069 35.0156 29.464L35.3985 29.4309C36.169 29.3647 36.7456 29.516 37.1237 29.8799L37.1427 30.1115C36.8544 30.9245 36.5424 31.4019 36.2021 31.5485ZM33.1107 29.809L33.3566 29.7854L33.3613 29.8469L33.1155 29.8705L33.1107 29.809ZM36.6889 29.1993L36.878 29.1851C37.0529 29.2701 37.1427 29.3458 37.1474 29.4073L37.1521 29.4593C36.9868 29.4734 36.8307 29.3884 36.6889 29.1993ZM37.1852 26.3206C37.0197 26.5192 36.5707 26.8595 35.8381 27.3323C35.5924 27.3559 34.6847 27.7056 33.1155 28.3862C33.0399 28.3579 32.9548 28.3485 32.865 28.3531L32.8555 28.235C32.8366 28.0081 32.9359 27.7245 33.1534 27.3795C33.2762 26.7271 33.4132 26.3632 33.5551 26.2781L34.8739 23.3286C34.8596 23.1537 35.1385 23.012 35.7057 22.9032L35.8949 22.8891L35.909 23.0686C36.4668 22.9789 36.8165 22.9269 36.9584 22.9128C37.9982 22.8229 38.5417 23.0309 38.5844 23.5414L38.7072 23.5319L38.6836 23.2483L38.8065 23.2389C39.109 23.4042 39.2697 23.6028 39.2886 23.8391C39.3027 24.0093 39.2178 24.2172 39.0381 24.4584C38.9577 24.4678 38.9105 24.4111 38.901 24.2881L38.7781 24.2976L38.7404 24.6521C38.2156 25.451 37.8328 25.8621 37.5918 25.8811C37.379 26.1694 37.2466 26.316 37.1852 26.3206ZM37.7383 28.287L37.7241 28.1074L37.847 28.098L38.1116 28.2586C38.1164 28.3343 38.0786 28.3769 37.9982 28.3862C37.8848 28.3154 37.7998 28.2822 37.7383 28.287ZM15.7353 39.7682L15.6124 39.7966L15.5084 39.8864C15.5274 39.962 15.5746 39.9904 15.655 39.9715C15.7352 39.9526 15.7684 39.9054 15.7495 39.8298L15.7353 39.7682ZM15.2674 38.8371L15.2815 38.8985C15.3619 38.8796 15.395 38.8324 15.3761 38.7568L15.3619 38.6952C15.2862 38.7141 15.2531 38.7615 15.2674 38.8371ZM18.6139 32.5505L18.7038 32.4937C18.6848 32.4937 18.6706 32.489 18.6564 32.4844C18.6234 32.4937 18.6091 32.5174 18.6139 32.5505ZM18.595 30.9198L18.7367 30.8868L18.7084 30.7638L18.5666 30.7969L18.595 30.9198ZM51.9989 35.6938L51.6774 35.656L51.6206 35.7789L51.6254 35.8404L53.5397 35.6796L53.5303 35.5615L51.9989 35.6938ZM53.7477 35.5473L53.7571 35.6654H53.776L53.7666 35.5473H53.7477ZM61.7784 34.4979L61.7879 34.6161L61.9959 34.6539L61.9864 34.5358L61.7784 34.4979ZM61.4854 34.5215C60.0485 34.843 59.8689 34.7862 59.5664 34.8099L59.5757 34.928L59.7081 34.9186L59.779 34.9139L59.7601 34.8997L59.9161 34.8383C61.3389 34.6823 61.5042 34.739 61.4901 34.5782L61.4854 34.5215ZM52.8591 32.4324L52.7315 32.3899C52.6275 32.6686 52.5755 32.8341 52.5802 32.8814L52.5849 32.9334C52.6842 32.9286 52.774 32.7585 52.8591 32.4324ZM51.1291 31.5013L51.1244 31.4397L51.0583 31.4445L50.94 31.5201L51.0062 31.6335C51.096 31.6241 51.1385 31.5815 51.1291 31.5013ZM54.8869 35.3865L54.8774 35.2684L54.8396 35.2731L54.849 35.3912L54.8869 35.3865ZM62.686 33.6283L62.7757 33.6187C62.8277 33.614 62.8514 33.5715 62.8466 33.4959L62.7946 33.3824C62.4685 33.4107 62.3172 33.425 62.0526 33.5715L62.0479 33.51L61.6555 33.5479C61.6461 33.4296 61.613 33.3682 61.561 33.373L61.3577 33.3919C61.1214 33.4108 61.008 33.4014 60.8898 33.4911C60.8851 33.4486 60.8709 33.4296 60.8473 33.4296L60.6204 33.4486L60.488 33.5243C60.4832 33.4816 60.4691 33.4628 60.4455 33.4628L60.3651 33.5336L60.3604 33.4722L60.0438 33.4486L59.9681 33.4534L59.9775 33.5715L60.1382 33.614L60.2895 33.6046C60.3415 33.6376 60.3983 33.6471 60.4644 33.6424L60.5967 33.5763L60.6015 33.6283C59.8594 33.8125 59.8641 33.7795 59.3536 33.8645C59.2969 33.8267 59.2544 33.8079 59.226 33.8125L59.2165 33.822C59.1599 33.8172 59.1268 33.7795 59.122 33.718L59.3867 33.6849C59.4056 33.6849 59.4198 33.7039 59.5662 33.7323C59.779 33.6283 59.7885 33.5856 59.9019 33.5763L59.8925 33.458C59.1645 33.5999 59.4576 33.5052 58.5454 33.5856L58.5028 33.5904L58.4934 33.4722C59.6656 33.3304 59.2733 33.4107 59.675 33.2974C59.6797 33.3399 59.694 33.3588 59.7176 33.3588C59.7649 33.3115 59.8169 33.2879 59.8783 33.2784L59.9586 33.2738C60.3699 33.2406 60.507 33.321 61.32 33.0941L61.3246 33.1461L61.457 33.0799L61.5799 33.0705C61.5705 32.9523 61.7501 32.9334 61.8115 32.9286L61.8021 32.801C60.3746 33.0894 60.0011 33.009 59.6041 33.1225L59.5994 33.0705C59.226 33.1366 59.2119 33.1082 59.1172 33.113C59.0889 33.1178 59.0464 33.1414 58.9991 33.1886C58.9944 33.1461 58.9802 33.1271 58.9519 33.1271C58.9376 33.1271 58.933 33.1319 58.9282 33.1319L57.7181 33.3304C57.7135 33.2974 57.6992 33.2784 57.6709 33.2831C57.0423 33.4155 57.2124 33.4391 56.371 33.5147C56.3332 33.5195 56.2812 33.5384 56.2151 33.5809C56.2104 33.5479 56.1914 33.529 56.1489 33.5336L55.6336 33.5763L55.2886 33.6613C55.2839 33.6283 55.265 33.6093 55.2225 33.614C55.0286 33.666 54.8585 33.6991 54.7214 33.7085H54.712C54.6269 33.718 54.7545 33.6849 54.6884 33.6566L54.5844 33.718C54.4331 33.7323 54.5135 33.7085 53.9935 33.7133C53.0812 33.8267 53.1805 33.8409 53.0812 33.8456L52.7409 33.822C52.7456 33.8551 52.7267 33.8787 52.6889 33.8787C52.3014 33.8267 52.1029 33.7653 52.0981 33.6944C52.1501 33.3258 52.2399 33.1366 52.3675 33.1271L52.4338 33.1225L52.377 33.2454L52.4431 33.2406C52.566 33.1744 52.6227 33.113 52.618 33.0562L52.6086 32.9286L52.4856 32.9381L52.4762 32.8199C52.4668 32.7301 52.481 32.6497 52.514 32.5836L52.7929 32.1345L52.8024 32.2528L52.9347 32.2432L52.9253 32.1251L52.8496 32.0164C52.9489 31.9312 53.0245 31.884 53.086 31.8792L53.0812 31.8179L52.9016 31.832L52.8875 31.6524C53.2467 30.9056 53.4169 30.4707 53.4074 30.3479L53.535 30.3999C53.6154 30.3951 53.6531 30.3479 53.6485 30.2627L53.5255 30.2723L53.5209 30.2203C53.5114 30.1304 53.5303 30.0454 53.5681 29.9698C53.7619 29.7665 53.8517 29.5633 53.8327 29.3505C53.8706 29.3457 53.8895 29.3648 53.8942 29.4073C54.0597 29.3128 54.1874 29.0621 54.2819 28.6462C54.5749 28.1169 54.9909 27.058 55.5344 25.4746C56.5744 22.6764 56.5317 22.3786 56.6782 21.7169L56.5554 21.7262C56.5649 21.8114 56.546 21.8918 56.5081 21.9674C56.423 21.9343 56.3569 21.9154 56.3096 21.9201L56.3049 21.8681C56.286 21.627 56.3853 21.3388 56.6121 20.9984L56.6689 20.9936L56.7729 21.4001L56.8957 21.3908C56.891 21.3624 56.9241 21.2016 56.9902 20.9039C56.9855 20.8424 56.9383 20.8046 56.8438 20.7999L56.7256 20.8755C56.7161 20.7904 56.7209 20.5682 56.735 20.2138L56.6735 20.2185C56.5696 20.1145 56.5176 20.0294 56.5129 19.9585L55.8369 20.0246C55.8323 19.9774 55.8086 19.9065 55.7612 19.8166C55.7566 19.7553 55.9079 19.6937 56.2197 19.6324L56.3569 19.6844L56.4845 19.6088C56.4893 19.6513 56.5129 19.6701 56.5601 19.6654L56.6878 19.5897C56.6925 19.6324 56.7161 19.6513 56.7634 19.6465L56.8249 19.6417L56.8154 19.5047C56.7209 19.5141 56.4704 19.5141 56.0732 19.5L55.9456 19.5851L55.9409 19.5095C52.7693 19.7694 50.9684 19.916 50.5382 19.9585C50.4815 19.9633 50.2594 19.9585 49.8671 19.949C49.8717 20.001 49.8245 20.0294 49.73 20.0389L49.5929 19.9774L49.1297 20.0956C49.021 20.105 48.8366 20.1003 48.5814 20.0719C48.5105 20.1286 48.4254 20.1617 48.3214 20.1712C48.2648 20.1759 48.9974 20.1334 49.678 20.0861C49.6071 20.1429 49.4984 20.1759 49.3471 20.1901C49.2431 20.1995 49.1534 20.1854 49.0778 20.1429C48.9738 20.1901 48.6381 20.2657 48.0756 20.3791L47.9386 20.3271L45.7265 20.6675C45.6414 20.625 45.5421 20.6107 45.4286 20.6202C45.3105 20.6296 45.112 20.6723 44.8379 20.7479L43.7696 21.1921L43.8499 21.3245C43.9019 21.3197 43.9775 21.2914 44.0674 21.2394L44.4455 21.2725L44.3983 21.627C44.0485 21.783 43.8453 22.0146 43.7885 22.3076C43.2639 22.5393 43.0039 22.7047 43.0039 22.804L43.0086 22.8654L43.0889 22.8607L43.2308 22.7851L43.3961 22.9836L43.4198 23.2578C43.4292 23.3429 42.5454 25.2004 40.7775 28.8306C39.2461 32.3284 38.4425 34.2428 38.3669 34.5878C37.8423 34.7343 37.5397 34.947 37.4499 35.2306C37.4594 35.3204 37.6154 35.3819 37.9179 35.4055L37.932 35.5425L37.795 35.7694L37.8186 36.0436C37.8328 36.1854 38.2156 36.2941 38.9673 36.3697C38.9625 36.3225 38.9861 36.2941 39.0381 36.2894C39.0522 36.4595 39.005 36.7904 38.8963 37.282L38.9766 37.2773C39.2886 36.8519 39.4351 36.5588 39.421 36.3981L39.4871 36.3934C39.5628 36.3886 39.6431 36.4738 39.7376 36.658C39.6431 36.6959 39.3122 37.4474 38.745 38.9174L38.8254 39.0497L38.9058 39.045C39.6006 37.2868 40.0355 36.313 40.215 36.1286C41.1274 36.0483 42.706 35.8876 44.9465 35.6465L45.0884 35.5614C45.093 35.6087 45.1214 35.6324 45.1734 35.6276L45.32 35.6134L45.4618 35.5284C45.4665 35.5756 45.4949 35.5992 45.5469 35.5945L47.2438 35.448C47.6928 35.4101 47.9055 35.2731 47.8865 35.0415C47.8819 34.98 48.1465 34.9091 48.6806 34.8335C48.7326 34.8287 48.8083 34.843 48.9123 34.876C48.9075 34.8335 49.177 34.791 49.7159 34.7437C49.73 34.4601 49.8197 34.3089 49.9805 34.2946L49.9664 34.1576C49.8151 34.1718 49.6449 34.2096 49.4464 34.2758C49.0919 34.2569 48.865 34.2285 48.7705 34.1954C48.6759 34.2474 48.605 34.2758 48.553 34.2805L47.3714 34.3182L47.2295 34.3939C47.2248 34.3514 47.1965 34.3325 47.1445 34.3372L47.0783 34.3419L46.927 34.4176C46.9222 34.375 46.7994 34.3419 46.5536 34.3089L46.4024 34.3986L46.1094 34.4222L46.1046 34.3466C47.6266 34.1813 48.3781 33.9733 48.3592 33.7275C48.4585 33.718 48.5105 33.7653 48.5199 33.8645L48.9642 33.7511L48.9501 33.614L45.3058 33.7133C45.3105 33.7605 45.2869 33.7889 45.2349 33.7936L44.7905 33.7559C44.6771 33.7652 44.5826 33.7984 44.507 33.8551L44.3415 33.7936C43.883 33.8315 43.5426 33.8881 43.3158 33.9591C43.0039 33.9355 42.6587 33.9401 42.2759 33.9733L41.4582 34.0441L41.0801 34.0016C41.0611 33.7605 41.5291 32.5741 42.4934 30.4471C42.7722 29.7286 43.0275 29.2796 43.2733 29.1095C43.3252 29.1047 43.4009 29.1236 43.5049 29.1661L44.0863 28.9676L44.384 29.0149C44.8851 28.9724 45.4665 28.8306 46.133 28.5848C46.2984 28.5706 46.4212 28.5801 46.5111 28.6179L46.9554 28.5139L48.2789 28.4004C48.8414 28.3531 49.4511 28.2303 50.1129 28.027L50.0986 27.89C49.8529 27.9136 49.7253 27.871 49.7159 27.7718C49.7016 27.5875 49.522 27.5118 49.177 27.5401L49.1628 27.4031L49.5267 27.2991L50.4815 27.2188L50.4674 27.0817C50.4295 27.0864 50.2357 27.0817 49.8765 27.0675L49.8624 26.921L50.231 26.8879C50.3302 26.8785 50.3729 26.8311 50.3634 26.7366C49.8671 26.7508 49.6165 26.7271 49.6119 26.661C46.1519 26.8311 44.4171 26.8642 44.4077 26.7555C44.3558 26.7602 44.2848 26.7934 44.1903 26.8501L44.1005 26.7083C45.0174 24.7609 45.5563 23.7776 45.7122 23.7635C45.717 23.8391 45.6791 23.962 45.5988 24.1275L45.6035 24.1889L45.7501 24.1747C46.114 23.305 46.4212 22.856 46.6765 22.8371C47.7636 22.7425 46.5252 22.6716 48.8509 22.3076C48.9454 22.3503 49.0115 22.3691 49.0588 22.3644C49.971 22.18 51.2425 21.9862 52.8732 21.7878L52.8638 21.6506L51.9941 21.731L51.9846 21.5939C52.0886 21.5845 52.1738 21.5514 52.2446 21.4946L52.2494 21.5703C52.2966 21.5656 52.3628 21.5325 52.4479 21.4757C52.5991 21.4616 52.7125 21.4757 52.7929 21.5182C53.0954 21.438 53.3412 21.3906 53.5209 21.3717L54.0644 21.3197C54.1968 21.2347 54.2583 21.1591 54.2535 21.0881L54.2487 21.0267C54.1116 21.0409 53.9557 21.0315 53.7714 20.9984C53.7666 20.9227 53.8044 20.8708 53.8942 20.8471L54.9058 20.7526L55.369 20.6344C55.3737 20.6864 55.3974 20.7053 55.4351 20.7053C55.4824 20.7006 55.5486 20.6675 55.6336 20.6107C55.6574 20.6155 55.6856 20.6155 55.7093 20.6202C55.6479 20.7479 55.577 20.9323 55.506 21.1732L55.3737 21.1827C55.3643 21.0929 55.3406 21.0125 55.2981 20.9416L55.2319 20.9464C54.003 24.3685 53.4546 25.9615 52.3203 28.5895C52.1123 29.2608 51.9374 29.6341 51.7861 29.7145C51.7909 29.7901 51.8381 29.8279 51.9185 29.8185C51.9469 30.1494 51.8713 30.4755 51.6869 30.7969C51.1621 32.3095 50.8124 33.1366 50.6328 33.2879L50.751 34.0016C50.7556 34.0773 50.7179 34.1198 50.6375 34.1292L50.5146 34.1388C50.4958 33.9401 50.4247 33.8456 50.2972 33.8599L50.231 33.8645C50.0702 34.115 49.9474 34.4034 49.8671 34.739L49.99 34.7295C50.1554 34.6209 50.231 34.4932 50.2169 34.3466L50.4626 34.323L50.6044 34.375C50.491 34.5546 50.439 34.6965 50.4485 34.8051L50.5146 34.9186L50.3539 35.2968L50.3586 35.3582C50.5005 35.344 50.6564 35.3913 50.8219 35.4905C50.9353 35.4811 51.0583 35.4291 51.1953 35.3392C51.3371 35.3251 51.8665 35.3204 52.7788 35.3204L53.2373 35.1644C53.795 35.1596 53.8848 35.1739 54.3669 35.1313L54.5654 35.1124L54.6694 35.0415L54.6741 35.103C55.1799 35.0604 55.213 35.0935 55.61 35.1407L55.6147 35.2022L55.3359 35.2259L55.3454 35.344C55.4304 35.3345 55.506 35.3109 55.5675 35.2589C55.6384 35.2542 55.6809 35.292 55.6856 35.3771C55.5722 35.3865 55.4446 35.4149 55.3027 35.4621L55.1799 35.4196C54.9861 35.4716 55.0286 35.4858 54.8963 35.4952L54.7025 35.4575C54.7072 35.4905 54.6884 35.5141 54.6553 35.5141C54.66 35.5898 54.7025 35.6276 54.7734 35.6229L54.9719 35.604L56.0071 35.5141L56.3994 35.4291C56.4041 35.4621 56.4182 35.4811 56.4514 35.4764L56.6405 35.4055L56.995 35.3771C57.2691 35.3535 57.2644 35.3345 57.86 35.24C57.8553 35.2022 57.8694 35.188 57.8978 35.1833L57.9025 35.2353C58.8715 35.0699 58.9329 35.0604 59.0889 35.0084L59.1031 35.0367C59.3441 34.98 59.2071 34.9942 59.2733 34.947C59.278 34.9895 59.2921 35.0084 59.3158 35.0084L59.486 34.9943L59.4765 34.8666L59.1315 34.8619L59.1268 34.8524C59.1125 34.8571 59.1031 34.8571 59.0889 34.8619H59.0416V34.8714C58.81 34.9186 58.8052 34.8855 58.654 34.8997L57.789 34.947L57.7844 34.8855L58.2665 34.8194L58.4414 34.8051L58.5406 34.7343L58.5454 34.7957C59.226 34.739 59.467 34.9091 62.615 34.238C62.7853 34.2238 62.771 34.082 62.8797 33.7889C62.823 33.7936 62.7663 33.7795 62.7144 33.7511C62.4544 33.8504 62.3172 33.8031 61.8162 33.8835C61.7738 33.8883 61.7406 33.8504 61.7264 33.7747L61.7216 33.7227L62.2038 33.7369C62.2936 33.7275 62.4685 33.7132 62.7285 33.5667C62.7285 33.6092 62.6292 33.6329 62.6859 33.6283H62.686ZM39.4115 34.0016L39.1894 34.0205C39.1799 33.9307 39.2981 33.5904 39.5439 33.009L39.6904 32.9949C39.6951 33.1319 39.6052 33.4675 39.4115 34.0016ZM39.681 32.9239L39.6763 32.8625C39.6715 32.7869 39.7188 32.7349 39.8228 32.7113L39.8275 32.7726C39.8322 32.8625 39.7849 32.9145 39.681 32.9239ZM42.6351 35.2069L42.6399 35.2684L42.2713 35.3015L42.2665 35.24L42.6351 35.2069ZM42.1909 35.1691C42.1956 35.2448 42.0821 35.3299 41.8364 35.4149L41.3825 35.3819L41.236 35.396L41.2219 35.2589L42.1909 35.1691ZM45.1781 21.419L44.956 21.438L44.9512 21.3624C44.9465 21.2868 44.9891 21.2348 45.0836 21.2111L45.164 21.2064L45.3153 21.2678C45.3199 21.3576 45.2774 21.4096 45.1781 21.419ZM48.5578 20.7572L48.6286 20.7526L48.6381 20.8896L48.4349 20.9085C48.4301 20.8329 48.4679 20.781 48.5578 20.7572ZM47.7069 21.0551L47.3714 21.0172L47.3666 20.9559C47.8063 20.918 47.9528 20.8707 48.2221 20.7951C48.2269 20.8471 48.2741 20.866 48.3592 20.8566L48.3686 20.9936L48.2364 21.0079C48.1324 21.0172 48.0425 21.0031 47.9669 20.9605C47.8865 21.0125 47.8015 21.0456 47.7069 21.0551ZM48.1276 22.2794L48.1229 22.2179L48.6665 22.1659L48.6712 22.2274L48.1276 22.2794ZM48.709 21.8066L48.7043 21.731L48.969 21.7074L48.9738 21.783L48.709 21.8066ZM48.7705 20.8802L48.6995 20.8849L48.761 20.7384L49.366 20.6816L49.3708 20.7572C49.2148 20.7715 49.0115 20.814 48.7705 20.8802ZM49.0778 22.1848L49.0682 22.0477L49.333 22.0241C49.4227 22.0146 49.47 22.0571 49.4748 22.1518L49.0778 22.1848ZM50.68 20.001L50.3397 20.0956L50.2783 20.1003C50.1176 20.1145 49.9096 20.1098 49.6637 20.0861C50.1034 20.0577 50.5241 20.0246 50.68 20.001ZM50.3161 21.5136L50.3209 21.575L49.8529 21.6176L49.8481 21.5561L50.3161 21.5136ZM51.0819 21.8775C51.0771 21.8209 50.9873 21.783 50.803 21.7641L50.335 21.8965L49.9757 21.9106C49.8954 21.8539 49.8529 21.8161 49.8481 21.7878L50.2641 21.8114L51.2 21.6601L51.6774 21.679L51.6821 21.7546C51.4458 21.7782 51.2472 21.8209 51.0819 21.8775ZM55.8984 20.6344C55.9551 20.6391 55.9929 20.6391 56.0071 20.6391C56.1725 20.4784 56.3569 20.3507 56.5696 20.261C56.3994 21.0079 56.1347 21.5609 55.7707 21.9201L55.506 21.7594C55.7283 21.1969 55.8606 20.8235 55.8984 20.6344ZM55.0854 22.0287L55.1515 22.0241C55.0618 22.1943 54.9814 22.284 54.9152 22.2887L54.901 22.1091C54.9436 22.1091 55.005 22.0807 55.0854 22.0287ZM54.5607 23.2814C54.6884 22.7709 54.8112 22.4826 54.9246 22.407L54.9294 22.4684C54.8633 22.941 54.7592 23.1916 54.6221 23.2105L54.6457 23.5083C54.5324 23.669 54.4804 23.7919 54.485 23.8864L54.4189 23.8911L54.3811 23.4799C54.4568 23.4705 54.5181 23.4042 54.5607 23.2814ZM54.3575 23.962C54.3621 24.0329 54.3149 24.1984 54.2204 24.4536L54.1543 24.4584L54.14 24.2787C54.2299 24.0707 54.3055 23.9667 54.3574 23.962H54.3575ZM50.543 35.032L50.5382 34.98L50.6611 34.9706L50.6754 35.1503C50.6091 35.155 50.5619 35.1171 50.543 35.032ZM55.9929 35.1739C55.9881 35.1312 55.9692 35.1124 55.9268 35.1171L55.6195 35.1455L55.6147 35.084H55.6431L56.371 35.0226L56.3758 35.084C56.1631 35.0935 56.0355 35.1266 55.9929 35.1739ZM55.629 35.0226C55.6574 35.0367 55.6431 35.051 55.629 35.0604C55.6147 35.0556 55.5959 35.0415 55.629 35.0226ZM55.6668 34.1718L55.2603 34.2049L55.2555 34.1434L55.6242 34.1104L55.9456 34.03C55.9504 34.0677 55.9692 34.082 56.0119 34.0772C56.3947 34.0111 56.3569 33.9921 56.5412 33.978C56.6026 33.9732 56.6405 34.0111 56.6452 34.0868L55.6668 34.1718ZM57.0895 34.0489C56.8626 34.0252 56.8485 34.0064 56.6878 34.0205L56.683 33.9685L57.047 33.9355L57.0518 33.9875C57.0139 33.9921 57.151 34.0016 57.0895 34.0489ZM57.1179 33.9827L57.1131 33.9307L57.3116 33.9117L57.3164 33.9637L57.1179 33.9827ZM57.5575 33.9449L57.5527 33.8929C57.5859 33.8882 57.6331 33.8645 57.6945 33.8173C57.7938 33.8079 57.8458 33.874 57.8553 33.9496L57.5575 33.9449ZM58.12 33.874L58.1152 33.8125L58.3563 33.7936L58.361 33.8551L58.12 33.874ZM58.4555 33.8456C58.4509 33.7747 58.4791 33.7322 58.5406 33.7227L58.621 33.8267C58.6162 33.7936 58.6304 33.7748 58.6587 33.77L58.7202 33.8835L58.4555 33.8456ZM63.1066 33.2974L63.1114 33.2926V33.2879C63.1114 33.2879 63.1066 33.2926 63.1066 33.2974ZM63.1917 33.2359C63.2295 33.2122 63.2485 33.1886 63.1586 33.1745C63.1161 33.2218 63.2059 33.2359 63.1114 33.2406L63.1161 33.2831C63.1255 33.2738 63.1493 33.2595 63.1681 33.2454L63.1161 33.2879V33.2926L63.0169 33.4202L63.2154 33.3494H63.239L63.2295 33.2311L63.1917 33.2359ZM63.5368 33.5054L63.499 33.51L63.5084 33.6283L63.7873 33.6046C63.7826 33.529 63.5983 33.5054 63.5368 33.5054Z" fill="#7B4AE2" fill-opacity="0.5"/>
</svg>
