<svg width="64" height="64" viewBox="0 0 64 64" fill="none" xmlns="http://www.w3.org/2000/svg">
<path d="M58.6893 16.596L58.6891 16.5958C58.2922 15.8981 57.692 15.3019 56.8632 14.8211C53.7045 12.9981 50.5438 11.177 47.383 9.35588C43.1445 6.91381 38.9057 4.47156 34.6709 2.02408C33.7391 1.48571 32.8453 1.23914 31.9696 1.25037C31.0931 1.2616 30.1998 1.53162 29.2707 2.08027L29.2707 2.08031C27.4928 3.12986 21.4149 6.62731 15.9114 9.7942C12.2974 11.8738 8.93109 13.8109 7.19284 14.8186L7.19277 14.8187C5.54515 15.7736 4.75322 17.2087 4.75282 19.1232V19.1232C4.75141 23.4154 4.75141 27.7076 4.75141 31.9998C4.75141 36.292 4.75141 40.5842 4.75 44.8767C4.75043 45.8335 4.95015 46.6583 5.33711 47.3584L5.33713 47.3584C5.7344 48.0772 6.34259 48.6898 7.19038 49.1811L7.19044 49.1811C8.92301 50.1856 12.2732 52.1131 15.874 54.1848C21.3875 57.357 27.4885 60.8672 29.2699 61.9193C30.1994 62.4683 31.0929 62.7384 31.9696 62.7496C32.8454 62.7608 33.7394 62.5141 34.6715 61.9755C38.9665 59.4932 43.2655 57.0165 47.5643 54.5399C50.6656 52.7533 53.7667 50.9667 56.8661 49.1781C57.7133 48.6872 58.3213 48.0745 58.7185 47.3565L58.6893 16.596ZM58.6893 16.596C59.0938 17.3061 59.3023 18.1467 59.3027 19.1252M58.6893 16.596L59.3027 19.1252M59.3027 19.1252C59.3041 23.4175 59.3049 29.8548 59.3052 35.219L59.3055 42.0583L59.3056 44.1201L59.3056 44.6795V44.8249V44.8619V44.8712V44.8736V44.8741C59.3052 45.8309 59.1051 46.6558 58.7187 47.3561L59.3027 19.1252Z" stroke="#7B4AE2" stroke-opacity="0.5"/>
<path fill-rule="evenodd" clip-rule="evenodd" d="M37.7691 28.087L46.4147 28.1479C46.4147 24.5457 42.7685 15.7241 32.3147 15.7241C25.6543 15.7241 16.7003 19.9585 16.7003 32.1325C16.7003 44.3064 25.4779 48.2762 32.3147 48.2762C43.3861 48.2762 46.0321 40.6152 46.0321 36.2858L37.7841 35.8142C37.7841 35.8142 38.0048 40.8218 32.2706 40.8218C26.9777 40.8218 26.0944 34.3378 26.0944 32.1325C26.0944 28.7803 27.2865 23.399 32.2706 23.399C37.255 23.399 37.7691 28.087 37.7691 28.087Z" fill="#7B4AE2" fill-opacity="0.5"/>
</svg>
