<svg width="95" height="21" viewBox="0 0 95 21" fill="none" xmlns="http://www.w3.org/2000/svg">
<path d="M10.208 13.072C10.208 13.68 10.048 14.2027 9.728 14.64C9.41867 15.0773 8.99733 15.4133 8.464 15.648C7.93067 15.8827 7.344 16 6.704 16H1.28V4.64H7.136C7.66933 4.64 8.128 4.784 8.512 5.072C8.90667 5.34933 9.20533 5.712 9.408 6.16C9.62133 6.59733 9.728 7.056 9.728 7.536C9.728 8.09067 9.584 8.61333 9.296 9.104C9.01867 9.584 8.61867 9.94133 8.096 10.176C8.74667 10.368 9.25867 10.72 9.632 11.232C10.016 11.7333 10.208 12.3467 10.208 13.072ZM8.368 12.736C8.368 12.416 8.29867 12.128 8.16 11.872C8.032 11.6053 7.85067 11.392 7.616 11.232C7.392 11.0613 7.12533 10.976 6.816 10.976H3.072V14.448H6.704C7.024 14.448 7.30667 14.3733 7.552 14.224C7.808 14.064 8.00533 13.856 8.144 13.6C8.29333 13.3333 8.368 13.0453 8.368 12.736ZM3.072 6.192V9.536H6.368C6.66667 9.536 6.93333 9.46667 7.168 9.328C7.40267 9.17867 7.58933 8.98133 7.728 8.736C7.86667 8.48 7.936 8.192 7.936 7.872C7.936 7.54133 7.872 7.25333 7.744 7.008C7.616 6.752 7.44 6.55467 7.216 6.416C7.00267 6.26667 6.752 6.192 6.464 6.192H3.072ZM11.2449 13.552C11.2449 13.0187 11.3942 12.5547 11.6929 12.16C12.0022 11.7547 12.4235 11.4453 12.9569 11.232C13.4902 11.008 14.1089 10.896 14.8129 10.896C15.1862 10.896 15.5649 10.9227 15.9489 10.976C16.3435 11.0293 16.6902 11.1147 16.9889 11.232V10.704C16.9889 10.1173 16.8129 9.65867 16.4609 9.328C16.1089 8.99733 15.6022 8.832 14.9409 8.832C14.4715 8.832 14.0289 8.91733 13.6129 9.088C13.1969 9.248 12.7542 9.47733 12.2849 9.776L11.6929 8.592C12.2475 8.21867 12.8022 7.94133 13.3569 7.76C13.9222 7.57867 14.5142 7.488 15.1329 7.488C16.2529 7.488 17.1329 7.78667 17.7729 8.384C18.4235 8.97067 18.7489 9.808 18.7489 10.896V14.016C18.7489 14.2187 18.7809 14.3627 18.8449 14.448C18.9195 14.5333 19.0422 14.5813 19.2129 14.592V16C19.0529 16.032 18.9089 16.0533 18.7809 16.064C18.6529 16.0747 18.5462 16.08 18.4609 16.08C18.0875 16.08 17.8049 15.9893 17.6129 15.808C17.4209 15.6267 17.3089 15.4133 17.2769 15.168L17.2289 14.688C16.8662 15.1573 16.4022 15.52 15.8369 15.776C15.2715 16.032 14.7009 16.16 14.1249 16.16C13.5702 16.16 13.0742 16.048 12.6369 15.824C12.1995 15.5893 11.8582 15.2747 11.6129 14.88C11.3675 14.4853 11.2449 14.0427 11.2449 13.552ZM16.5729 14.064C16.7009 13.9253 16.8022 13.7867 16.8769 13.648C16.9515 13.5093 16.9889 13.3867 16.9889 13.28V12.32C16.6902 12.2027 16.3755 12.1173 16.0449 12.064C15.7142 12 15.3889 11.968 15.0689 11.968C14.4289 11.968 13.9062 12.096 13.5009 12.352C13.1062 12.608 12.9089 12.96 12.9089 13.408C12.9089 13.6533 12.9729 13.888 13.1009 14.112C13.2395 14.336 13.4315 14.5173 13.6769 14.656C13.9329 14.7947 14.2475 14.864 14.6209 14.864C15.0049 14.864 15.3729 14.7893 15.7249 14.64C16.0769 14.4907 16.3595 14.2987 16.5729 14.064ZM20.8841 16V7.632H22.6441V16H20.8841ZM20.8841 6.256V4.32H22.6441V6.256H20.8841ZM25.7511 7.632L27.7351 10.496L27.8791 10.768L28.0231 10.496L29.9911 7.632H31.8951L28.8871 11.824L31.9271 16H30.0231L28.0231 13.152L27.8791 12.896L27.7351 13.152L25.7351 16H23.8311L26.8711 11.84L23.8631 7.632H25.7511ZM32.4324 13.552C32.4324 13.0187 32.5817 12.5547 32.8804 12.16C33.1897 11.7547 33.611 11.4453 34.1444 11.232C34.6777 11.008 35.2964 10.896 36.0004 10.896C36.3737 10.896 36.7524 10.9227 37.1364 10.976C37.531 11.0293 37.8777 11.1147 38.1764 11.232V10.704C38.1764 10.1173 38.0004 9.65867 37.6484 9.328C37.2964 8.99733 36.7897 8.832 36.1284 8.832C35.659 8.832 35.2164 8.91733 34.8004 9.088C34.3844 9.248 33.9417 9.47733 33.4724 9.776L32.8804 8.592C33.435 8.21867 33.9897 7.94133 34.5444 7.76C35.1097 7.57867 35.7017 7.488 36.3204 7.488C37.4404 7.488 38.3204 7.78667 38.9604 8.384C39.611 8.97067 39.9364 9.808 39.9364 10.896V14.016C39.9364 14.2187 39.9684 14.3627 40.0324 14.448C40.107 14.5333 40.2297 14.5813 40.4004 14.592V16C40.2404 16.032 40.0964 16.0533 39.9684 16.064C39.8404 16.0747 39.7337 16.08 39.6484 16.08C39.275 16.08 38.9924 15.9893 38.8004 15.808C38.6084 15.6267 38.4964 15.4133 38.4644 15.168L38.4164 14.688C38.0537 15.1573 37.5897 15.52 37.0244 15.776C36.459 16.032 35.8884 16.16 35.3124 16.16C34.7577 16.16 34.2617 16.048 33.8244 15.824C33.387 15.5893 33.0457 15.2747 32.8004 14.88C32.555 14.4853 32.4324 14.0427 32.4324 13.552ZM37.7604 14.064C37.8884 13.9253 37.9897 13.7867 38.0644 13.648C38.139 13.5093 38.1764 13.3867 38.1764 13.28V12.32C37.8777 12.2027 37.563 12.1173 37.2324 12.064C36.9017 12 36.5764 11.968 36.2564 11.968C35.6164 11.968 35.0937 12.096 34.6884 12.352C34.2937 12.608 34.0964 12.96 34.0964 13.408C34.0964 13.6533 34.1604 13.888 34.2884 14.112C34.427 14.336 34.619 14.5173 34.8644 14.656C35.1204 14.7947 35.435 14.864 35.8084 14.864C36.1924 14.864 36.5604 14.7893 36.9124 14.64C37.2644 14.4907 37.547 14.2987 37.7604 14.064ZM46.7756 9.152C46.093 9.16267 45.485 9.31733 44.9516 9.616C44.429 9.91467 44.0556 10.336 43.8316 10.88V16H42.0716V7.632H43.7036V9.504C43.9916 8.928 44.3703 8.46933 44.8396 8.128C45.309 7.776 45.805 7.584 46.3276 7.552C46.4343 7.552 46.5196 7.552 46.5836 7.552C46.6583 7.552 46.7223 7.55733 46.7756 7.568V9.152ZM51.1538 10.24C51.1538 9.54667 51.2764 8.86933 51.5218 8.208C51.7671 7.536 52.1244 6.928 52.5938 6.384C53.0738 5.82933 53.6551 5.392 54.3378 5.072C55.0204 4.74133 55.7938 4.576 56.6578 4.576C57.6818 4.576 58.5671 4.81067 59.3138 5.28C60.0604 5.73867 60.6151 6.33067 60.9778 7.056L59.5698 8C59.3564 7.54133 59.0844 7.17867 58.7538 6.912C58.4338 6.64533 58.0818 6.45867 57.6978 6.352C57.3244 6.24533 56.9564 6.192 56.5938 6.192C55.9964 6.192 55.4738 6.31467 55.0258 6.56C54.5778 6.79467 54.1991 7.10933 53.8898 7.504C53.5911 7.89867 53.3618 8.34133 53.2018 8.832C53.0524 9.32267 52.9778 9.81333 52.9778 10.304C52.9778 10.848 53.0684 11.376 53.2498 11.888C53.4311 12.3893 53.6818 12.8373 54.0018 13.232C54.3324 13.616 54.7218 13.92 55.1698 14.144C55.6178 14.368 56.1084 14.48 56.6418 14.48C57.0044 14.48 57.3831 14.416 57.7778 14.288C58.1724 14.16 58.5351 13.9627 58.8658 13.696C59.2071 13.4187 59.4738 13.056 59.6658 12.608L61.1538 13.456C60.9191 14.0213 60.5511 14.5013 60.0498 14.896C59.5591 15.2907 59.0044 15.5893 58.3858 15.792C57.7778 15.9947 57.1751 16.096 56.5778 16.096C55.7778 16.096 55.0471 15.9307 54.3858 15.6C53.7244 15.2587 53.1538 14.8107 52.6738 14.256C52.1938 13.6907 51.8204 13.0613 51.5538 12.368C51.2871 11.664 51.1538 10.9547 51.1538 10.24ZM63.3438 4.64L66.7678 13.808L70.1758 4.64H72.0798L67.6158 16H65.9198L61.4398 4.64H63.3438Z" fill="#7B4AE2" fill-opacity="0.5"/>
<path d="M87 4V13.5" stroke="#7B4AE2" stroke-opacity="0.5" stroke-linecap="round" stroke-linejoin="round"/>
<path d="M82.5 9L87 13.5L91.5 9" stroke="#7B4AE2" stroke-opacity="0.5" stroke-linecap="round" stroke-linejoin="round"/>
<path d="M81.5 15.5H92.5" stroke="#7B4AE2" stroke-opacity="0.5" stroke-linecap="round" stroke-linejoin="round"/>
</svg>
