<svg width="76" height="64" viewBox="0 0 76 64" fill="none" xmlns="http://www.w3.org/2000/svg">
<path d="M16 20.0001H38" stroke="#7B4AE2" stroke-linecap="round" stroke-linejoin="round"/>
<path d="M50 20.0001H72" stroke="#7B4AE2" stroke-linecap="round" stroke-linejoin="round"/>
<path d="M44 26.0001C47.3137 26.0001 50 23.3138 50 20.0001C50 16.6864 47.3137 14.0001 44 14.0001C40.6863 14.0001 38 16.6864 38 20.0001C38 23.3138 40.6863 26.0001 44 26.0001Z" stroke="#7B4AE2" stroke-linecap="round" stroke-linejoin="round"/>
<path d="M22 50.0001C25.3137 50.0001 28 47.3138 28 44.0001C28 40.6864 25.3137 38.0001 22 38.0001C18.6863 38.0001 16 40.6864 16 44.0001C16 47.3138 18.6863 50.0001 22 50.0001Z" stroke="#7B4AE2" stroke-linecap="round" stroke-linejoin="round"/>
<path d="M66 50.0001C69.3137 50.0001 72 47.3138 72 44.0001C72 40.6864 69.3137 38.0001 66 38.0001C62.6863 38.0001 60 40.6864 60 44.0001C60 47.3138 62.6863 50.0001 66 50.0001Z" stroke="#7B4AE2" stroke-linecap="round" stroke-linejoin="round"/>
<path d="M49.95 20.8251C53.9094 21.9366 57.4785 24.1346 60.2533 27.17C63.028 30.2054 64.8974 33.957 65.65 38.0001" stroke="#7B4AE2" stroke-linecap="round" stroke-linejoin="round"/>
<path d="M22.35 38.0001C23.1025 33.957 24.972 30.2054 27.7467 27.17C30.5214 24.1346 34.0905 21.9366 38.05 20.8251" stroke="#7B4AE2" stroke-linecap="round" stroke-linejoin="round"/>
<g filter="url(#filter0_d_21_2905)">
<circle cx="24" cy="34.0001" r="20" fill="#7B4AE2" fill-opacity="0.2" shape-rendering="crispEdges"/>
</g>
<defs>
<filter id="filter0_d_21_2905" x="0" y="14.0001" width="48" height="48" filterUnits="userSpaceOnUse" color-interpolation-filters="sRGB">
<feFlood flood-opacity="0" result="BackgroundImageFix"/>
<feColorMatrix in="SourceAlpha" type="matrix" values="0 0 0 0 0 0 0 0 0 0 0 0 0 0 0 0 0 0 127 0" result="hardAlpha"/>
<feOffset dy="4"/>
<feGaussianBlur stdDeviation="2"/>
<feComposite in2="hardAlpha" operator="out"/>
<feColorMatrix type="matrix" values="0 0 0 0 0 0 0 0 0 0 0 0 0 0 0 0 0 0 0.25 0"/>
<feBlend mode="normal" in2="BackgroundImageFix" result="effect1_dropShadow_21_2905"/>
<feBlend mode="normal" in="SourceGraphic" in2="effect1_dropShadow_21_2905" result="shape"/>
</filter>
</defs>
</svg>
