<svg width="92" height="72" viewBox="0 0 92 72" fill="none" xmlns="http://www.w3.org/2000/svg">
<path d="M25.6305 63.759V64.999H16.0905V50.799H25.4505V52.039H17.4905V57.159H24.4305V58.339H17.4905V63.759H25.6305ZM27.7004 60.179V58.919H33.5404V60.179H27.7004ZM51.8379 64.999H50.4779V59.179C50.4779 57.9657 50.2846 57.0724 49.8979 56.499C49.5112 55.9257 48.9379 55.639 48.1779 55.639C47.3912 55.639 46.6846 55.919 46.0579 56.479C45.4446 57.039 45.0112 57.759 44.7579 58.639V64.999H43.3979V59.179C43.3979 57.9524 43.2112 57.059 42.8379 56.499C42.4646 55.9257 41.8912 55.639 41.1179 55.639C40.3446 55.639 39.6446 55.9124 39.0179 56.459C38.3912 57.0057 37.9512 57.7257 37.6979 58.619V64.999H36.3379V54.579H37.5779V56.939C38.0179 56.1257 38.5779 55.499 39.2579 55.059C39.9512 54.619 40.7179 54.399 41.5579 54.399C42.4246 54.399 43.1246 54.6457 43.6579 55.139C44.1912 55.6324 44.5179 56.279 44.6379 57.079C45.1179 56.199 45.6912 55.5324 46.3579 55.079C47.0379 54.6257 47.8046 54.399 48.6579 54.399C49.2446 54.399 49.7379 54.5057 50.1379 54.719C50.5512 54.9324 50.8779 55.239 51.1179 55.639C51.3712 56.0257 51.5512 56.499 51.6579 57.059C51.7779 57.6057 51.8379 58.219 51.8379 58.899V64.999ZM53.8768 61.999C53.8768 61.3457 54.0635 60.7857 54.4368 60.319C54.8101 59.839 55.3235 59.4724 55.9768 59.219C56.6435 58.9524 57.4101 58.819 58.2768 58.819C58.7835 58.819 59.3101 58.859 59.8568 58.939C60.4035 59.019 60.8901 59.139 61.3168 59.299V58.419C61.3168 57.539 61.0568 56.839 60.5368 56.319C60.0168 55.799 59.2968 55.539 58.3768 55.539C57.8168 55.539 57.2635 55.6457 56.7168 55.859C56.1835 56.059 55.6235 56.359 55.0368 56.759L54.5168 55.799C55.1968 55.3324 55.8635 54.9857 56.5168 54.759C57.1701 54.519 57.8368 54.399 58.5168 54.399C59.7968 54.399 60.8101 54.7657 61.5568 55.499C62.3035 56.2324 62.6768 57.2457 62.6768 58.539V63.359C62.6768 63.5457 62.7168 63.6857 62.7968 63.779C62.8768 63.859 63.0035 63.9057 63.1768 63.919V64.999C63.0301 65.0124 62.9035 65.0257 62.7968 65.039C62.6901 65.0524 62.6101 65.0524 62.5568 65.039C62.2235 65.0257 61.9701 64.919 61.7968 64.719C61.6235 64.519 61.5301 64.3057 61.5168 64.079L61.4968 63.319C61.0301 63.919 60.4235 64.3857 59.6768 64.719C58.9301 65.039 58.1701 65.199 57.3968 65.199C56.7301 65.199 56.1235 65.059 55.5768 64.779C55.0435 64.4857 54.6235 64.099 54.3168 63.619C54.0235 63.1257 53.8768 62.5857 53.8768 61.999ZM60.8568 62.799C61.0035 62.6124 61.1168 62.4324 61.1968 62.259C61.2768 62.0857 61.3168 61.9324 61.3168 61.799V60.279C60.8635 60.1057 60.3901 59.9724 59.8968 59.879C59.4168 59.7857 58.9301 59.739 58.4368 59.739C57.4635 59.739 56.6768 59.9324 56.0768 60.319C55.4768 60.7057 55.1768 61.2324 55.1768 61.899C55.1768 62.2857 55.2768 62.6524 55.4768 62.999C55.6768 63.3324 55.9701 63.6124 56.3568 63.839C56.7435 64.0524 57.1968 64.159 57.7168 64.159C58.3701 64.159 58.9768 64.0324 59.5368 63.779C60.1101 63.5257 60.5501 63.199 60.8568 62.799ZM65.6152 64.999V54.579H66.9752V64.999H65.6152ZM65.6152 52.399V50.399H66.9752V52.399H65.6152ZM70.0307 50.399H71.3907V62.639C71.3907 63.159 71.484 63.499 71.6707 63.659C71.8574 63.819 72.084 63.899 72.3507 63.899C72.5907 63.899 72.8307 63.8724 73.0707 63.819C73.3107 63.7657 73.5174 63.7124 73.6907 63.659L73.9307 64.759C73.6774 64.8657 73.364 64.9524 72.9907 65.019C72.6307 65.0857 72.3174 65.119 72.0507 65.119C71.4374 65.119 70.944 64.939 70.5707 64.579C70.2107 64.219 70.0307 63.7257 70.0307 63.099V50.399ZM75.2199 56.599V54.639H76.3799V56.599H75.2199ZM75.2199 64.999V63.039H76.3799V64.999H75.2199Z" fill="#7B4AE2"/>
<path d="M58.8594 5.60823L29.7344 13.8114C29.4864 13.8791 29.2654 14.0217 29.1015 14.2196C28.9375 14.4175 28.8385 14.6612 28.818 14.9174C28.7975 15.1736 28.8565 15.4299 28.9869 15.6514C29.1173 15.8729 29.3129 16.0488 29.5469 16.1551L42.9219 22.4832C43.1839 22.6046 43.3943 22.815 43.5156 23.077L49.8437 36.452C49.9501 36.686 50.126 36.8815 50.3474 37.0119C50.5689 37.1424 50.8252 37.2013 51.0814 37.1808C51.3376 37.1603 51.5813 37.0614 51.7792 36.8974C51.9771 36.7334 52.1197 36.5124 52.1875 36.2645L60.3906 7.13948C60.4528 6.92694 60.4566 6.7016 60.4017 6.48707C60.3469 6.27253 60.2353 6.07671 60.0787 5.92013C59.9221 5.76355 59.7263 5.65198 59.5118 5.5971C59.2973 5.54222 59.0719 5.54607 58.8594 5.60823V5.60823Z" stroke="#7B4AE2" stroke-opacity="0.5" stroke-linecap="round" stroke-linejoin="round"/>
<path d="M43.3281 22.6709L50.3906 15.6084" stroke="#7B4AE2" stroke-opacity="0.5" stroke-linecap="round" stroke-linejoin="round"/>
</svg>
