<svg width="60" height="60" viewBox="0 0 60 60" fill="none" xmlns="http://www.w3.org/2000/svg">
<g clip-path="url(#clip0_149_191)">
<path d="M8.43481 48.2341L8.79418 47.7309L25.7941 15.4744L25.83 15.1329L18.336 1.05673C17.7082 -0.1224 15.9407 0.175726 15.7346 1.49568L8.43481 48.2341Z" fill="#7B4AE2" fill-opacity="0.1"/>
<path d="M8.64679 47.8503L8.91864 47.3202L25.7404 15.4017L18.2652 1.26827C17.644 0.101486 16.0663 0.398922 15.8624 1.70504L8.64679 47.8503Z" fill="#7B4AE2" fill-opacity="0.5"/>
<path d="M31.2931 25.7803L36.8728 20.0657L31.2915 9.41083C30.7616 8.40227 29.2823 8.39936 28.7581 9.41083L25.7762 15.0979V15.5822L31.2931 25.7803Z" fill="#7B4AE2" fill-opacity="0.5"/>
<path d="M31.1935 25.5424L36.6181 19.9868L31.1935 9.65749C30.6784 8.67698 29.4271 8.57425 28.9174 9.55759L25.9197 15.3327L25.8301 15.628L31.1935 25.5424Z" fill="#7B4AE2" fill-opacity="0.2"/>
<path d="M8.43481 48.2341L8.59771 48.0704L9.18956 47.8298L30.9425 26.1577L31.2181 25.4075L25.7916 15.0669L8.43481 48.2341Z" fill="#7B4AE2" fill-opacity="0.5"/>
<path d="M31.9898 59.164L51.6767 48.1844L46.0548 13.5608C45.8789 12.4775 44.5499 12.0493 43.7746 12.826L8.43481 48.2342L28.0088 59.163C29.2458 59.8537 30.7524 59.854 31.9898 59.164Z" fill="#7B4AE2" fill-opacity="0.5"/>
<path d="M51.5003 48.0923L45.921 13.7316C45.7465 12.6565 44.6413 12.2117 43.8719 12.9825L8.65308 48.167L28.0121 58.9876C29.2397 59.673 30.7349 59.6733 31.9628 58.9885L51.5003 48.0923Z" fill="#7B4AE2" fill-opacity="0.5"/>
<path d="M31.9898 58.8404C30.7524 59.5305 29.2458 59.5301 28.0088 58.8394L8.59247 48.0676L8.43481 48.2341L28.0088 59.1629C29.2458 59.8536 30.7524 59.8539 31.9898 59.1639L51.6767 48.1843L51.6285 47.8877L31.9898 58.8404Z" fill="#7B4AE2" fill-opacity="0.5"/>
</g>
<defs>
<clipPath id="clip0_149_191">
<rect width="59.3623" height="59.3623" fill="white" transform="translate(0.318848 0.318848)"/>
</clipPath>
</defs>
</svg>
