<svg id="Layer_1" data-name="Layer 1" xmlns="http://www.w3.org/2000/svg" viewBox="0 0 37.57 36.65">
  <defs>
    <style>.cls-1{fill:#fff;fill-opacity:0.5;}.cls-1,.cls-2{fill-rule:evenodd;}.cls-2{fill:#090E16;}</style>
  </defs>
  <path class="cls-1"
    d="M19.77.75a18.79,18.79,0,0,0-5.94,36.61c.94.17,1.29-.4,1.29-.89s0-1.93,0-3.5c-4.72.87-5.95-1.15-6.32-2.21a6.76,6.76,0,0,0-1.93-2.65c-.65-.35-1.59-1.22,0-1.25a3.78,3.78,0,0,1,2.89,1.93,4,4,0,0,0,5.47,1.55,3.93,3.93,0,0,1,1.2-2.51C11.76,26.68,7.9,25.3,8,19.07A9.39,9.39,0,0,1,9.77,13.5a6.74,6.74,0,0,1,.18-5s1.58-.49,5.17,1.93a17.54,17.54,0,0,1,9.39,0c3.6-2.44,5.17-1.93,5.17-1.93a6.76,6.76,0,0,1,.19,5,7.31,7.31,0,0,1,1.92,5.05c0,7.21-4.39,8.81-8.57,9.28a4.43,4.43,0,0,1,1.27,3.47c0,2.51,0,4.53,0,5.17s.35,1.08,1.29.89a18.8,18.8,0,0,0-6-36.61Z"
    transform="translate(-0.98 -0.75)" />
  <path class="cls-2"
    d="M15.17,36l0-3.13S10.38,34,9,31.1s-1.89-2.83-2.48-3.3-.46-.73-.46-.73.14-.53,1.6-.13A4.49,4.49,0,0,1,10,29.1a4,4,0,0,0,3,1.67h.05c1.88-.05,2.18-.49,2.18-.49a4.34,4.34,0,0,1,1.19-2.5s-7.83-.26-8.38-7.25c0,0-.55-4.07,1.79-7,0,0-1-1.61.19-4.95,0,0,1.73-.43,5.14,1.91a16.66,16.66,0,0,1,9.35,0s2.95-2.25,5.14-1.91a6.88,6.88,0,0,1,.19,4.95,8.73,8.73,0,0,1,1.82,6.76c-.63,4-2.13,6.79-8.44,7.5a4.37,4.37,0,0,1,1.24,2.88c0,1.72,0,5.36,0,5.36A17.61,17.61,0,0,1,15.17,36Z"
    transform="translate(-0.98 -0.75)" />
</svg>
