<svg width="64" height="64" viewBox="0 0 64 64" fill="none" xmlns="http://www.w3.org/2000/svg">
<path d="M38.2173 0.817139C38.2173 0.817139 44.6997 7.30172 32.069 17.2732C24.2369 23.4585 27.1365 27.5879 29.9199 31.5519C30.736 32.7141 31.5421 33.8621 32.0648 35.0435C26.1526 29.7093 21.8139 25.0135 24.7247 20.6432C26.1462 18.5087 28.4049 16.7401 30.6901 14.9507C35.2732 11.3622 39.9626 7.69038 38.2173 0.817139Z" fill="#7B4AE2" fill-opacity="0.5"/>
<path d="M34.8761 30.6479C37.8854 34.1126 34.0854 37.2304 34.0854 37.2304C34.0854 37.2304 41.7265 33.2858 38.2173 28.3462C38.0765 28.1484 37.9372 27.9548 37.8004 27.7648C34.7536 23.5328 33.0108 21.112 46.033 13.5596C46.033 13.5596 24.6751 18.8939 34.8761 30.6479Z" fill="#7B4AE2" fill-opacity="0.5"/>
<path d="M23.7046 44.6365C19.6208 44.2141 22.2948 42.2347 22.2948 42.2347C11.7273 45.7421 28.1744 49.7195 42.9408 45.4016C41.3712 44.8482 40.3731 43.8362 40.3731 43.8362C33.1563 45.2258 28.9857 45.1813 23.7046 44.6365Z" fill="#7B4AE2" fill-opacity="0.5"/>
<path d="M25.4839 50.9208C21.4031 50.4516 23.7872 49.0652 23.7872 49.0652C14.1944 51.7456 29.622 57.2831 41.8352 52.0488C39.8348 51.2709 38.4024 50.3727 38.4024 50.3727C32.9544 51.4039 30.4277 51.4848 25.4839 50.9208Z" fill="#7B4AE2" fill-opacity="0.5"/>
<path d="M49.0859 56.6957C52.7932 55.5711 51.0289 54.1174 51.0289 54.1174C57.4879 57.0309 36.9966 62.8876 12.0955 58.8493C2.96466 57.3692 16.4902 52.2009 18.9658 53.9449C18.9658 53.9449 18.1832 53.8896 16.8138 54.1865C15.5007 54.4685 11.3262 55.8124 13.5522 56.7808C19.7447 59.4762 42.0363 58.8313 49.0859 56.6957Z" fill="#7B4AE2" fill-opacity="0.5"/>
<path d="M24.9337 35.1575C24.9337 35.1575 13.5948 37.8507 20.9183 38.8287C24.0105 39.2427 30.1748 39.149 35.9166 38.6679C40.6092 38.2721 45.321 37.4305 45.321 37.4305C45.321 37.4305 43.6664 38.1391 42.4693 38.9565C30.9548 41.9848 8.71106 40.576 15.1148 37.4784C20.5304 34.8606 24.9337 35.1575 24.9337 35.1575Z" fill="#7B4AE2" fill-opacity="0.5"/>
<path d="M47.7899 35.3872C51.5673 34.5998 56.9793 40.4448 45.2743 46.5272C45.2201 46.672 45.039 46.8337 45.039 46.8337C60.6716 42.7242 54.9244 32.3482 47.4514 34.9754C46.7949 35.2085 46.4512 35.7469 46.4512 35.7469C46.4512 35.7469 46.864 35.5799 47.7899 35.3872Z" fill="#7B4AE2" fill-opacity="0.5"/>
<path d="M54.9809 57.2937C54.5723 62.6099 37.3192 63.7282 26.0839 63.009C18.7543 62.5389 17.2854 61.3643 17.2639 61.3471L17.2636 61.3469C24.2786 62.5035 36.1059 62.7142 45.6955 60.9095C54.1954 59.309 54.9809 57.2937 54.9809 57.2937Z" fill="#7B4AE2" fill-opacity="0.5"/>
</svg>
