<svg width="656" height="650" viewBox="0 0 656 650" fill="none" xmlns="http://www.w3.org/2000/svg">
<path d="M565.667 309.713C565.667 167.408 450.231 52.0464 307.834 52.0464C165.436 52.0464 50 167.408 50 309.713C50 452.018 165.436 567.379 307.834 567.379C450.231 567.379 565.667 452.018 565.667 309.713Z" fill="#7B4AE2" fill-opacity="0.2"/>
<g filter="url(#filter0_d_112_65)">
<circle cx="570.143" cy="331.11" r="35.8102" fill="#090E16"/>
</g>
<path fill-rule="evenodd" clip-rule="evenodd" d="M548 318C548 313.582 551.582 310 556 310H583.883C588.301 310 591.883 313.582 591.883 318V345.883C591.883 350.301 588.301 353.883 583.883 353.883H556C551.582 353.883 548 350.301 548 345.883V318ZM559.538 346.672C559.538 346.672 559.538 346.672 559.538 346.672L559.539 346.672C560.511 348.733 562.426 350.442 565.724 350.442C569.377 350.442 571.881 348.498 571.881 344.226V332.208C571.881 331.07 570.958 330.147 569.819 330.147V330.147C568.68 330.147 567.757 331.07 567.757 332.208V344.168C567.757 346.23 566.903 346.76 565.548 346.76V346.76C563.577 346.76 561.502 345.484 559.816 346.504L559.539 346.672L559.539 346.672C559.538 346.672 559.538 346.672 559.538 346.672V346.672ZM578.722 345.804C577.888 345.093 576.722 344.724 575.773 345.273V345.273C574.846 345.81 574.478 347.004 575.187 347.807C576.57 349.375 578.706 350.442 581.632 350.442C585.55 350.442 588.466 348.41 588.466 344.698C588.466 341.252 586.493 339.72 582.987 338.218L581.956 337.776C580.189 337.01 579.423 336.509 579.423 335.272C579.423 334.27 580.189 333.505 581.397 333.505C581.9 333.505 582.328 333.596 582.708 333.799C583.673 334.315 584.826 334.772 585.746 334.181V334.181C586.594 333.636 586.896 332.492 586.206 331.758C584.971 330.443 583.399 329.911 581.397 329.911C577.714 329.911 575.358 332.267 575.358 335.36C575.358 338.718 577.332 340.309 580.307 341.575L581.338 342.018C583.223 342.842 584.342 343.343 584.342 344.757C584.342 345.935 583.253 346.79 581.544 346.79C580.333 346.79 579.436 346.413 578.722 345.804Z" fill="#7B4AE2" fill-opacity="0.5"/>
<g filter="url(#filter1_d_112_65)">
<circle cx="85.8102" cy="239.794" r="35.8102" fill="#090E16"/>
</g>
<path d="M99.2074 233.496C98.7898 233.352 98.3572 233.216 97.9117 233.088C97.9849 232.789 98.0521 232.494 98.1119 232.204C99.0927 227.443 98.4514 223.608 96.2616 222.345C94.1619 221.134 90.728 222.396 87.2599 225.415C86.9264 225.705 86.592 226.012 86.2577 226.334C86.035 226.121 85.8126 225.915 85.5908 225.718C81.9561 222.491 78.313 221.131 76.1253 222.397C74.0276 223.612 73.4064 227.217 74.2893 231.729C74.3745 232.165 74.4742 232.61 74.5869 233.063C74.0713 233.209 73.5735 233.365 73.0972 233.531C68.836 235.017 66.1146 237.345 66.1146 239.76C66.1146 242.255 69.036 244.757 73.4744 246.274C73.8247 246.393 74.1881 246.506 74.5627 246.614C74.4411 247.103 74.3354 247.583 74.2466 248.051C73.4048 252.484 74.0622 256.005 76.1543 257.211C78.3153 258.458 81.942 257.177 85.4734 254.09C85.7526 253.846 86.0327 253.587 86.3133 253.316C86.677 253.666 87.0402 253.997 87.4014 254.308C90.8221 257.252 94.2005 258.441 96.2907 257.231C98.4495 255.981 99.1511 252.199 98.2403 247.598C98.1707 247.246 98.0897 246.887 97.9988 246.522C98.2535 246.447 98.5035 246.369 98.7473 246.288C103.361 244.759 106.364 242.288 106.364 239.76C106.364 237.336 103.554 234.992 99.2074 233.496ZM98.2066 244.656C97.9865 244.729 97.7607 244.799 97.5306 244.868C97.0212 243.255 96.3337 241.54 95.4924 239.769C96.2952 238.039 96.9561 236.346 97.4513 234.744C97.863 234.863 98.2626 234.989 98.6477 235.122C102.372 236.404 104.644 238.3 104.644 239.76C104.644 241.316 102.191 243.336 98.2066 244.656ZM96.5535 247.932C96.9563 249.966 97.0138 251.806 96.747 253.244C96.5073 254.536 96.0252 255.397 95.4291 255.743C94.1607 256.477 91.4482 255.522 88.5228 253.005C88.1874 252.716 87.8496 252.408 87.5107 252.082C88.6448 250.842 89.7783 249.4 90.8845 247.798C92.8303 247.626 94.6686 247.343 96.3356 246.958C96.4177 247.289 96.4907 247.614 96.5535 247.932ZM79.8364 255.616C78.5971 256.053 77.6101 256.066 77.0134 255.722C75.7439 254.99 75.2161 252.163 75.936 248.371C76.0185 247.937 76.1166 247.491 76.2297 247.035C77.8785 247.4 79.7033 247.662 81.6537 247.82C82.7674 249.387 83.9336 250.828 85.1089 252.089C84.8521 252.337 84.5963 252.573 84.342 252.795C82.7804 254.16 81.2155 255.129 79.8364 255.616ZM74.0305 244.647C72.0679 243.976 70.4472 243.104 69.3362 242.153C68.3379 241.298 67.8339 240.449 67.8339 239.76C67.8339 238.295 70.019 236.425 73.6632 235.155C74.1054 235.001 74.5683 234.855 75.0486 234.719C75.5523 236.357 76.213 238.07 77.0103 239.802C76.2027 241.56 75.5326 243.3 75.024 244.958C74.6815 244.859 74.3498 244.756 74.0305 244.647ZM75.9767 231.399C75.2203 227.533 75.7226 224.617 76.9868 223.885C78.3333 223.106 81.3109 224.217 84.4491 227.004C84.6497 227.182 84.8511 227.368 85.053 227.561C83.8836 228.817 82.7281 230.247 81.6243 231.804C79.7313 231.98 77.9194 232.262 76.2534 232.639C76.1486 232.218 76.0559 231.804 75.9767 231.399ZM93.3383 235.686C92.94 234.998 92.5312 234.327 92.1144 233.673C93.3986 233.836 94.629 234.051 95.7844 234.315C95.4375 235.427 95.0052 236.589 94.4962 237.781C94.1311 237.087 93.745 236.389 93.3383 235.686ZM86.2583 228.79C87.0514 229.649 87.8456 230.609 88.6268 231.649C87.8396 231.612 87.0426 231.593 86.2391 231.593C85.4431 231.593 84.6521 231.612 83.8697 231.648C84.6517 230.617 85.4528 229.659 86.2583 228.79ZM79.1329 235.698C78.7351 236.388 78.3561 237.083 77.9967 237.779C77.496 236.592 77.0677 235.424 76.7178 234.297C77.8661 234.04 79.0907 233.83 80.3667 233.67C79.9441 234.33 79.5318 235.006 79.1329 235.698V235.698ZM80.4035 245.973C79.0851 245.826 77.8421 245.626 76.694 245.377C77.0495 244.229 77.4873 243.036 77.9987 241.823C78.359 242.519 78.7394 243.215 79.1397 243.906H79.1398C79.5475 244.61 79.9699 245.3 80.4035 245.973ZM86.3059 250.852C85.4909 249.972 84.6781 249 83.8842 247.953C84.6548 247.984 85.4406 247.999 86.2391 247.999C87.0595 247.999 87.8705 247.981 88.6687 247.945C87.8849 249.01 87.0936 249.984 86.3059 250.852ZM94.5126 241.761C95.0506 242.988 95.5041 244.174 95.8641 245.302C94.6972 245.568 93.4372 245.783 92.1096 245.942C92.5275 245.28 92.9399 244.597 93.3452 243.894C93.7552 243.183 94.1445 242.471 94.5126 241.761ZM91.8558 243.035C91.2266 244.126 90.5807 245.167 89.925 246.15C88.7306 246.236 87.4967 246.28 86.2391 246.28C84.9866 246.28 83.7682 246.241 82.595 246.165C81.9128 245.169 81.2528 244.124 80.6277 243.044H80.6278C80.0043 241.967 79.4304 240.881 78.9105 239.802C79.4303 238.719 80.0027 237.632 80.6226 236.557L80.6224 236.557C81.244 235.479 81.8982 234.44 82.5741 233.45C83.7711 233.36 84.9985 233.312 86.239 233.312H86.2391C87.4852 233.312 88.7142 233.36 89.9108 233.451C90.5764 234.434 91.2261 235.47 91.8501 236.548C92.4812 237.638 93.061 238.718 93.5853 239.777C93.0626 240.855 92.4841 241.945 91.8558 243.035ZM95.4028 223.834C96.7506 224.612 97.2747 227.746 96.4279 231.857C96.3739 232.119 96.3131 232.386 96.247 232.657C94.5772 232.272 92.7639 231.985 90.8654 231.807C89.7595 230.232 88.6134 228.8 87.463 227.561C87.7723 227.263 88.0812 226.979 88.3887 226.712C91.3602 224.126 94.1374 223.105 95.4028 223.834ZM86.2391 236.166C88.224 236.166 89.8332 237.775 89.8332 239.76C89.8332 241.745 88.224 243.354 86.2391 243.354C84.2542 243.354 82.645 241.745 82.645 239.76C82.645 237.775 84.2542 236.166 86.2391 236.166Z" fill="#7B4AE2" fill-opacity="0.5"/>
<g filter="url(#filter2_d_112_65)">
<circle cx="85.8102" cy="468.98" r="35.8102" fill="#090E16"/>
</g>
<path fill-rule="evenodd" clip-rule="evenodd" d="M85.5002 445C73.0753 445 63 455.328 63 468.07C63 478.262 69.447 486.91 78.387 489.96C79.5115 490.174 79.9243 489.46 79.9243 488.851C79.9243 488.3 79.9034 486.483 79.8937 484.555C73.6342 485.951 72.3133 481.834 72.3133 481.834C71.2898 479.167 69.8151 478.458 69.8151 478.458C67.7736 477.026 69.969 477.056 69.969 477.056C72.2284 477.218 73.4181 479.433 73.4181 479.433C75.4249 482.96 78.6817 481.94 79.9656 481.351C80.1676 479.86 80.7507 478.842 81.3942 478.266C76.3966 477.682 71.143 475.704 71.143 466.865C71.143 464.346 72.022 462.288 73.4613 460.673C73.2277 460.091 72.4575 457.745 73.6792 454.567C73.6792 454.567 75.5687 453.947 79.8684 456.932C81.6632 456.421 83.588 456.165 85.5002 456.156C87.4123 456.165 89.3386 456.421 91.1368 456.932C95.4313 453.947 97.3181 454.567 97.3181 454.567C98.5428 457.745 97.7723 460.091 97.5387 460.673C98.9813 462.288 99.8543 464.346 99.8543 466.865C99.8543 475.725 94.5907 477.676 89.5804 478.248C90.3875 478.963 91.1066 480.367 91.1066 482.52C91.1066 485.606 91.0805 488.091 91.0805 488.851C91.0805 489.464 91.4855 490.184 92.626 489.957C101.561 486.903 108 478.259 108 468.07C108 455.328 97.9262 445 85.5002 445ZM71.427 477.863C71.3775 477.978 71.2016 478.012 71.0414 477.933C70.8782 477.858 70.7865 477.702 70.8394 477.587C70.8879 477.469 71.0641 477.436 71.2269 477.515C71.3905 477.59 71.4837 477.748 71.427 477.863ZM72.5338 478.876C72.4265 478.978 72.2167 478.93 72.0744 478.769C71.9272 478.608 71.8996 478.393 72.0084 478.29C72.1191 478.188 72.3225 478.235 72.4701 478.396C72.6172 478.559 72.6459 478.773 72.5338 478.876ZM73.2931 480.171C73.1552 480.269 72.9298 480.177 72.7904 479.972C72.6526 479.767 72.6526 479.521 72.7934 479.422C72.9331 479.324 73.1552 479.413 73.2964 479.616C73.4339 479.825 73.4339 480.071 73.2931 480.171ZM74.5772 481.672C74.4538 481.811 74.1912 481.774 73.9989 481.583C73.8022 481.397 73.7474 481.133 73.8711 480.994C73.9959 480.854 74.2601 480.893 74.4538 481.082C74.6491 481.268 74.7087 481.534 74.5772 481.672ZM76.2367 482.178C76.1823 482.359 75.9293 482.441 75.6745 482.364C75.42 482.285 75.2535 482.073 75.3049 481.891C75.3578 481.709 75.6119 481.623 75.8686 481.706C76.1227 481.784 76.2896 481.994 76.2367 482.178ZM78.1254 482.393C78.1317 482.583 77.9156 482.741 77.6481 482.744C77.3791 482.751 77.1615 482.597 77.1585 482.409C77.1585 482.217 77.3698 482.061 77.6388 482.056C77.9063 482.051 78.1254 482.204 78.1254 482.393ZM79.9808 482.32C80.0129 482.506 79.8269 482.696 79.5613 482.747C79.3001 482.796 79.0583 482.681 79.0251 482.497C78.9927 482.307 79.182 482.116 79.4428 482.067C79.7088 482.02 79.9469 482.131 79.9808 482.32Z" fill="#7B4AE2" fill-opacity="0.5"/>
<g filter="url(#filter3_f_112_65)">
<circle cx="309.624" cy="305.148" r="255.148" fill="#7B4AE2" fill-opacity="0.2"/>
</g>
<path fill-rule="evenodd" clip-rule="evenodd" d="M262.636 404.465C299.391 424.056 340.608 421.88 372.901 404.463V447.383L373.266 447.373V472.572H262.636V404.465Z" fill="#BB7D52"/>
<path fill-rule="evenodd" clip-rule="evenodd" d="M262.635 440.226C299.39 459.819 340.607 457.642 372.901 440.226V467.595L397.734 466.976L398.042 466.988C398.042 532.959 240.326 542.834 240.326 466.889L240.942 466.861L262.635 466.972V440.226V440.226Z" fill="#DFA278"/>
<path fill-rule="evenodd" clip-rule="evenodd" d="M198.067 169.098C285.781 113.249 397.996 133.109 435.909 169.937C446.87 196.314 447.645 221.755 444.42 249.065C451.825 243.751 460.631 244.967 467.569 249.916C470.38 272.577 477.909 317.405 444.169 319.35C367.5 483.5 267 481 190.95 319.823C157.51 318.669 166.527 273.364 168.616 251.608C176.639 245.504 185.801 248.576 191.487 251.307L198.067 169.098Z" fill="#DFA278"/>
<path fill-rule="evenodd" clip-rule="evenodd" d="M185.039 230.339C185.499 231.604 184.002 232.87 179.511 235.172C170.215 239.815 169.4 240.78 169.377 248.053V248.405C169.377 258.185 170.874 260.715 177.322 261.637C183.887 262.558 188.034 264.053 189.186 265.894C189.645 266.7 190.107 270.382 190.107 274.179C190.107 282.349 192.64 293.856 195.75 299.839C204.502 316.87 227.304 325.5 254.943 322.278C268.533 320.551 276.479 317.905 285.116 312.151C298.015 303.522 304.003 292.475 304.924 275.1C305.616 264.513 305.616 264.513 309.071 263.362C313.562 261.752 324.733 261.752 329.34 263.362C332.909 264.628 332.909 264.628 332.909 272.799C332.909 282.234 335.328 293.511 338.552 299.84C347.305 316.87 370.107 325.5 397.631 322.278C411.336 320.552 419.282 317.905 427.92 312.153C440.818 303.523 446.807 292.131 447.958 274.295C448.764 262.558 448.189 263.133 460.857 261.522C467.305 260.717 468.803 258.185 468.803 248.289C468.803 240.464 467.536 238.97 456.826 234.367L450.376 231.604L440.357 228.499L432.987 226.888C428.956 226.082 423.774 225.391 421.585 225.276C419.282 225.276 413.525 223.204 407.767 220.329C398.207 215.61 397.747 215.495 386.461 215.495C373.563 215.495 364.464 218.142 357.093 223.896C354.906 225.621 350.299 227.807 347.074 228.613C343.734 229.419 337.516 231.605 333.255 233.446C322.084 238.164 316.326 237.934 302.046 232.18C295.827 229.65 289.953 227.577 289.148 227.577C288.34 227.577 285.692 225.967 283.274 224.011C275.673 218.027 267.151 215.495 254.022 215.495C242.851 215.495 242.161 215.726 232.257 220.444C225.577 223.666 220.394 225.276 217.285 225.276C214.75 225.391 209.223 226.082 205.077 227.003L185.039 230.339V230.339ZM277.17 245.183C290.988 249.67 295.249 255.768 295.365 271.187C295.48 279.358 295.02 282.005 292.832 286.491C285.232 302.026 263.58 310.772 237.898 308.815C218.206 307.204 208.071 301.681 202.659 289.484C199.204 281.544 198.743 262.558 201.967 256.689C204.962 251.165 210.721 247.369 220.163 244.837C227.534 242.881 231.565 242.651 249.991 242.881C265.883 243.226 272.794 243.802 277.17 245.183V245.183ZM419.972 245.183C433.793 249.67 438.053 255.768 438.169 271.187C438.284 279.358 437.823 282.005 435.635 286.491C428.034 302.026 406.383 310.772 380.701 308.815C361.009 307.204 350.874 301.681 345.461 289.484C342.006 281.544 341.546 262.558 344.77 256.689C347.765 251.165 353.523 247.369 362.966 244.837C370.337 242.881 374.367 242.651 392.793 242.881C408.686 243.226 415.596 243.802 419.972 245.183V245.183Z" fill="#A66F49"/>
<path fill-rule="evenodd" clip-rule="evenodd" d="M289.25 99.5002L285.75 100L282.22 100C278.25 100.5 275.75 100.5 268.75 102C263.75 102.5 263.75 102.5 258.25 104C254.25 104.5 251.902 105.5 250.75 105.5C247.75 106 247.25 108 245.75 108C241.75 109 241.75 109.167 239.25 110C236.25 111 235.75 113 232.25 115C229.75 116.5 230.168 116.465 227.75 117.5C224.986 118.766 224.25 119.5 220.75 121C217.285 122.485 215.75 125 214.25 125.5C210.25 128.5 210.25 131 205.25 134C201.75 137.5 200.544 139.994 198.75 142.5C195.065 148.484 195.207 148.5 194.25 150.5C192.576 154 190.25 156.5 189.053 160.492C188.15 163.5 188.25 163 188.25 165C187.75 169 186.25 169 186.75 171.5C186.25 173.5 185.826 173 185.597 175.438C184.216 190.167 184.676 223.246 186.289 227.503C186.75 228.769 185.253 230.035 180.761 232.337C171.317 237.054 170.627 237.975 170.627 245.569C170.627 255.35 172.124 257.881 178.573 258.802C185.137 259.722 189.283 261.218 190.435 263.06C190.895 263.865 191.356 267.547 191.356 271.344C191.356 279.514 193.89 291.021 196.999 297.005C205.752 314.035 228.554 322.665 256.194 319.443C269.783 317.717 277.729 315.07 286.367 309.317C299.265 300.687 305.253 289.64 306.175 272.265C306.866 261.678 306.866 261.679 310.321 260.528C314.812 258.917 325.983 258.917 330.59 260.528C334.16 261.794 334.16 261.794 334.16 269.964C334.16 279.4 336.578 290.676 339.803 297.005C348.555 314.036 371.358 322.665 398.882 319.444C412.586 317.717 420.532 315.071 429.17 309.318C442.068 300.688 448.057 289.296 449.209 271.46C450.014 259.723 449.439 260.299 462.107 258.687C468.556 257.882 470.053 255.35 470.053 245.455C470.053 237.63 468.786 236.134 458.076 231.532L451.627 228.77V217.263C451.512 197.586 448.748 183.663 443.911 179.176C442.298 177.68 438.729 175.379 435.849 173.997C431.358 171.811 430.437 171.696 429.055 173.192C427.673 174.573 428.018 175.839 431.473 182.743C435.734 191.258 439.534 205.642 440.801 218.069L441.608 225.664L434.237 226.052C430.206 225.247 425.024 227.557 422.835 225.442C420.532 225.442 421.222 226.061 408.75 225.664C399.191 224.945 398.536 225.664 387.25 225.664C374.351 225.664 375.25 226.061 358.344 226.061C350.25 227 351.549 226.973 348.325 227.779C344.985 228.584 338.766 228.77 334.505 230.611C323.334 235.33 317.576 235.099 303.295 229.346C297.077 226.814 291.204 224.743 290.397 224.743C289.591 224.743 286.943 226.132 284.524 224.176C264.75 224.176 261.879 225 248.75 225C237.579 225 248.75 225 232.75 224.743C218.535 227.442 221.644 227.442 218.535 227.442C216.001 227.557 210.474 228.247 206.328 229.167C194.581 231.699 195.502 228.195 196.423 208.864C197.114 192.294 199.302 178.256 201.836 173.422C204.715 168.014 227.518 157.392 250.09 149.798C278.075 140.478 309.514 139.91 344.985 142.327C375.388 144.283 383.45 142.814 417.078 160.88C428.825 167.209 434.217 171.155 436.75 171.5C440.897 172.075 437.483 173.952 438.75 170.5C435.354 155.958 439.96 165.048 435.354 155.958C431.899 149.284 435.25 153.5 428.078 138.5C424.25 133.849 424.805 136.38 423.078 133.849C421.465 131.432 423.514 134.53 417.078 129C414.75 127 416.75 129 414.75 127C412.75 125.5 412.75 125.5 410.75 123.5C408.25 121.5 408.25 121.5 405.25 119C401.75 117.5 400.981 117.846 400.75 117.5C400.405 117.155 400.5 116.5 396.5 115.5C393 114.5 393 114.5 389.5 113.5C387.5 113 389.75 112.5 383.75 111.5C375.25 109 383.75 111.5 368.75 106.5C362.25 105 362.75 105 358.75 104C353.75 102.5 353.896 101.341 349.75 101.5C345.373 99.6593 347.75 100 339.75 98.5002C334.25 98.5002 340.25 98.5928 331.25 98.5002C323.25 97.5291 324.972 96.9251 320.25 97.5001C315.183 98.0758 320.25 97.0001 308.25 97.0001C301.75 98.0002 301.362 98.1153 299.75 98.0001C298.138 98.0001 298.75 98.5002 289.25 99.5002ZM278.419 242.347C292.239 246.835 296.5 252.934 296.615 268.353C296.731 276.523 296.27 279.169 294.082 283.657C286.481 299.191 264.83 307.936 239.148 305.98C219.456 304.37 209.321 298.846 203.909 286.648C200.454 278.709 199.993 259.722 203.218 253.854C206.212 248.331 211.97 244.534 221.413 242.002C228.784 240.046 232.815 239.815 251.241 240.046C267.133 240.391 274.043 240.966 278.419 242.347ZM421.222 242.347C435.042 246.835 439.303 252.934 439.418 268.353C439.534 276.523 439.073 279.169 436.885 283.657C429.284 299.191 407.633 307.936 381.952 305.98C362.259 304.37 352.124 298.846 346.712 286.648C343.257 278.709 342.796 259.722 346.021 253.854C349.015 248.331 354.773 244.534 364.216 242.002C371.587 240.046 375.618 239.815 394.044 240.046C409.936 240.391 416.846 240.966 421.222 242.347Z" fill="#1B1413"/>
<path fill-rule="evenodd" clip-rule="evenodd" d="M240.087 254.771C233.983 257.647 226.957 264.896 226.957 268.349C226.957 270.995 228.8 270.995 232.37 268.118C241.698 260.754 261.507 260.754 271.641 268.003C273.599 269.269 275.672 270.419 276.363 270.419C278.781 270.419 277.63 266.277 273.945 261.904C269.108 255.921 260.471 252.009 252.293 252.009C248.032 252.009 244.002 252.929 240.087 254.77V254.771V254.771Z" fill="#533824"/>
<path fill-rule="evenodd" clip-rule="evenodd" d="M373.677 254.771C367.573 257.647 360.548 264.896 360.548 268.349C360.548 270.995 362.391 270.995 365.961 268.118C375.289 260.754 395.097 260.754 405.232 268.003C407.189 269.269 409.262 270.419 409.954 270.419C412.372 270.419 411.22 266.277 407.535 261.904C402.698 255.921 394.061 252.009 385.884 252.009C381.623 252.009 377.593 252.929 373.677 254.77L373.677 254.771V254.771Z" fill="#533824"/>
<path fill-rule="evenodd" clip-rule="evenodd" d="M292.256 309.773C293.523 314.721 297.208 318.634 303.657 321.741C308.84 324.272 311.488 324.847 319.089 324.847C326.69 324.847 329.339 324.272 334.521 321.741C340.97 318.634 344.655 314.722 345.922 309.773L346.498 307.242H319.089H291.68L292.256 309.773V309.773Z" fill="#AF754C"/>
<path fill-rule="evenodd" clip-rule="evenodd" d="M185.039 226.003C185.499 227.269 184.002 228.535 179.511 230.836C170.215 235.479 169.4 236.446 169.377 243.718V244.07C169.377 253.85 170.874 256.381 177.322 257.302C183.887 258.222 188.034 259.718 189.186 261.559C189.645 262.365 190.107 266.047 190.107 269.844C190.107 278.014 192.64 289.522 195.75 295.504C204.502 312.535 227.304 321.164 254.943 317.943C268.533 316.216 276.479 313.57 285.116 307.817C298.015 299.187 304.003 288.141 304.924 270.765C305.616 260.178 305.616 260.178 309.071 259.028C313.562 257.418 324.733 257.418 329.34 259.028C332.909 260.293 332.909 260.293 332.909 268.464C332.909 277.899 335.328 289.176 338.552 295.506C347.305 312.535 370.107 321.164 397.631 317.943C411.336 316.217 419.282 313.57 427.92 307.818C440.818 299.188 446.807 287.796 447.958 269.96C448.764 258.222 448.189 258.799 460.857 257.187C467.305 256.382 468.803 253.85 468.803 243.954C468.803 236.13 467.536 234.635 456.826 230.032L450.376 227.269L440.357 224.164L432.987 222.552C428.956 221.747 423.774 221.056 421.585 220.941C419.282 220.941 414 220.184 404.5 219.676C394 219.115 394.5 219.5 380.701 219.561C370 219.676 372.5 219.12 361.5 220.941C351.074 222.667 350.299 223.473 347.074 224.278C343.734 225.084 337.516 227.27 333.255 229.111C322.084 233.829 316.326 233.599 302.046 227.845C295.827 225.315 302.046 227.845 289.148 223.242C286 222.5 286 221.255 277.5 219.5C269 217.745 265 218.109 251.5 217.5C240.329 217.5 245 217.5 232.257 218.109C224 219.5 224 219.5 217 220.5C210.419 221.44 209.223 221.747 205.077 222.667L185.039 226.003ZM277.17 240.848C290.988 245.336 295.249 251.434 295.365 266.853C295.48 275.023 295.02 277.67 292.832 282.156C285.232 297.691 263.58 306.437 237.898 304.479C218.206 302.869 208.071 297.346 202.659 285.149C199.204 277.209 198.743 258.222 201.967 252.354C204.962 246.83 210.721 243.034 220.163 240.502C227.534 238.546 231.565 238.316 249.991 238.546C265.883 238.89 272.794 239.467 277.17 240.848ZM419.972 240.848C433.793 245.336 438.053 251.434 438.169 266.853C438.284 275.023 437.823 277.67 435.635 282.156C428.034 297.691 406.383 306.437 380.701 304.479C361.009 302.869 350.874 297.346 345.461 285.149C342.006 277.209 341.546 258.222 344.77 252.354C347.765 246.83 353.523 243.034 362.966 240.502C370.337 238.546 374.367 238.316 392.793 238.546C408.686 238.89 415.596 239.467 419.972 240.848Z" fill="#071224"/>
<path fill-rule="evenodd" clip-rule="evenodd" d="M286.958 356.03C288.455 365.581 295.711 375.362 304.694 379.965C311.258 383.417 323.35 384.107 330.26 381.461C340.625 377.433 349.608 366.617 351.22 356.03H286.958V356.03Z" fill="#3E291B"/>
<path d="M359.721 578.002L367.116 571.994C368.83 570.602 371.349 570.861 372.742 572.574C374.136 574.286 373.876 576.802 372.162 578.195L368.583 581.102L394.568 602.978C396.281 604.37 396.541 606.887 395.148 608.599C394.357 609.57 393.205 610.074 392.043 610.074C391.156 610.074 390.263 609.781 389.522 609.179L359.721 584.202C358.787 583.443 358.245 582.305 358.245 581.102C358.245 579.899 358.787 578.76 359.721 578.002V578.002Z" fill="#7B4AE2"/>
<path d="M392.56 541.293C394.683 541.31 396.391 543.043 396.374 545.165L396.044 606.263C396.027 608.384 394.291 610.091 392.168 610.073C391.63 610.07 391.12 609.955 390.656 609.752C389.291 609.154 388.341 607.786 388.354 606.201L388.685 545.104C388.702 542.982 390.437 541.276 392.56 541.293V541.293Z" fill="#7B4AE2"/>
<path d="M409.437 583.321L412.169 581.102L402.441 573.198C400.727 571.806 400.468 569.29 401.861 567.577C403.254 565.865 405.773 565.605 407.487 566.998L421.03 578.001C421.965 578.76 422.507 579.899 422.507 581.102C422.507 582.305 421.965 583.443 421.03 584.202L414.483 589.521C413.742 590.123 412.849 590.417 411.963 590.417C410.8 590.417 409.648 589.913 408.857 588.942C407.464 587.23 407.724 584.713 409.437 583.321V583.321Z" fill="#C83267"/>
<path fill-rule="evenodd" clip-rule="evenodd" d="M239.624 466.93C205.652 470.236 174.789 482.889 149.107 503.977C127.008 522.046 120.843 536.407 104.663 556.86C137.629 591.033 181.958 619.987 230.298 635.98C262.543 646.58 284.54 650 319.088 650C353.639 650 375.634 646.58 407.881 635.98C456.649 620.396 497.728 594.859 534.759 558.205C509.396 525.495 498.957 504.057 458.091 483.914C440.931 475.365 420.778 469.21 405.346 467.614L398.078 466.959L397.733 466.952L396.939 472.402C393.485 498.392 360.895 517.542 320.241 517.542C279.589 517.542 247.573 498.619 243.426 472.288C242.621 467.044 242.274 466.588 239.626 466.93H239.624V466.93Z" fill="#090E16"/>
<path d="M386.489 560.392L393.071 554.698C393.964 553.974 395.275 554.109 396 555C396.725 555.892 396.59 557.202 395.698 557.927L391.103 562.006L404.628 573.396C404.93 574.5 404.93 574.5 404.93 576.322C404.519 576.828 403.919 577.09 403.314 577.09C402.853 577.09 402.388 576.938 402.002 576.624L386.489 563.62C386.003 563.225 385.721 562.632 385.721 562.006C385.721 561.38 386.003 560.787 386.489 560.392Z" fill="white"/>
<path d="M426.441 560.16L419.859 554.466C418.967 553.741 417.655 553.877 416.93 554.768C416.205 555.659 416.34 556.97 417.232 557.695L421.828 561.774L408.302 573.163C408 574.268 408 574.268 408 576.09C408.411 576.596 409.011 576.858 409.616 576.858C410.078 576.858 410.542 576.705 410.928 576.392L426.441 563.388C426.927 562.993 427.209 562.4 427.209 561.774C427.209 561.148 426.927 560.555 426.441 560.16Z" fill="#7B4AE2"/>
<path d="M402.997 576.786C401.887 576.481 401.164 575.602 401.383 574.822L407.596 552.327C407.815 551.546 408.892 551.161 410.002 551.465C410.284 551.542 410.54 551.656 410.762 551.795C411.418 552.208 411.78 552.846 411.617 553.429L405.404 575.923C405.185 576.704 404.108 577.09 402.997 576.786V576.786Z" fill="white"/>
<defs>
<filter id="filter0_d_112_65" x="484.333" y="249.3" width="171.62" height="171.62" filterUnits="userSpaceOnUse" color-interpolation-filters="sRGB">
<feFlood flood-opacity="0" result="BackgroundImageFix"/>
<feColorMatrix in="SourceAlpha" type="matrix" values="0 0 0 0 0 0 0 0 0 0 0 0 0 0 0 0 0 0 127 0" result="hardAlpha"/>
<feOffset dy="4"/>
<feGaussianBlur stdDeviation="25"/>
<feComposite in2="hardAlpha" operator="out"/>
<feColorMatrix type="matrix" values="0 0 0 0 0 0 0 0 0 0 0 0 0 0 0 0 0 0 0.5 0"/>
<feBlend mode="normal" in2="BackgroundImageFix" result="effect1_dropShadow_112_65"/>
<feBlend mode="normal" in="SourceGraphic" in2="effect1_dropShadow_112_65" result="shape"/>
</filter>
<filter id="filter1_d_112_65" x="-3.05176e-05" y="157.984" width="171.62" height="171.62" filterUnits="userSpaceOnUse" color-interpolation-filters="sRGB">
<feFlood flood-opacity="0" result="BackgroundImageFix"/>
<feColorMatrix in="SourceAlpha" type="matrix" values="0 0 0 0 0 0 0 0 0 0 0 0 0 0 0 0 0 0 127 0" result="hardAlpha"/>
<feOffset dy="4"/>
<feGaussianBlur stdDeviation="25"/>
<feComposite in2="hardAlpha" operator="out"/>
<feColorMatrix type="matrix" values="0 0 0 0 0 0 0 0 0 0 0 0 0 0 0 0 0 0 0.5 0"/>
<feBlend mode="normal" in2="BackgroundImageFix" result="effect1_dropShadow_112_65"/>
<feBlend mode="normal" in="SourceGraphic" in2="effect1_dropShadow_112_65" result="shape"/>
</filter>
<filter id="filter2_d_112_65" x="-3.05176e-05" y="387.169" width="171.62" height="171.62" filterUnits="userSpaceOnUse" color-interpolation-filters="sRGB">
<feFlood flood-opacity="0" result="BackgroundImageFix"/>
<feColorMatrix in="SourceAlpha" type="matrix" values="0 0 0 0 0 0 0 0 0 0 0 0 0 0 0 0 0 0 127 0" result="hardAlpha"/>
<feOffset dy="4"/>
<feGaussianBlur stdDeviation="25"/>
<feComposite in2="hardAlpha" operator="out"/>
<feColorMatrix type="matrix" values="0 0 0 0 0 0 0 0 0 0 0 0 0 0 0 0 0 0 0.5 0"/>
<feBlend mode="normal" in2="BackgroundImageFix" result="effect1_dropShadow_112_65"/>
<feBlend mode="normal" in="SourceGraphic" in2="effect1_dropShadow_112_65" result="shape"/>
</filter>
<filter id="filter3_f_112_65" x="4.47623" y="0" width="610.296" height="610.296" filterUnits="userSpaceOnUse" color-interpolation-filters="sRGB">
<feFlood flood-opacity="0" result="BackgroundImageFix"/>
<feBlend mode="normal" in="SourceGraphic" in2="BackgroundImageFix" result="shape"/>
<feGaussianBlur stdDeviation="25" result="effect1_foregroundBlur_112_65"/>
</filter>
</defs>
</svg>
