<svg width="64" height="64" viewBox="0 0 64 64" fill="none" xmlns="http://www.w3.org/2000/svg">
<path d="M21.5732 30.5142L21.5725 30.5179C21.3412 31.7207 20.8939 32.5136 20.3209 32.9483C19.739 33.3897 18.7942 33.6523 17.4004 33.6523H15.8345L16.9822 27.7676H19.0117C20.3643 27.7676 21.0667 28.0188 21.3753 28.3599C21.6696 28.6851 21.8112 29.324 21.5732 30.5142ZM13.8604 41.6348H14.2721L14.3511 41.2307L15.1265 37.2646H17.791C19.19 37.2646 20.3466 37.1153 21.2939 36.7995C22.243 36.4832 23.0857 35.9815 23.8682 35.2515C24.47 34.6976 24.9651 34.0936 25.349 33.4388L24.722 36.6694L24.6065 37.2646H25.2129H28.7773H29.1897L29.2682 36.8598L31.0208 27.8164H33.4648C33.8883 27.8164 34.221 27.8568 34.4658 27.9218C34.7177 27.9886 34.8344 28.0701 34.8785 28.1181C34.9186 28.1619 34.9771 28.2622 35.0002 28.4752C35.0233 28.6877 35.0072 28.9805 34.9282 29.364L34.9282 29.364L34.9271 29.3696L33.5111 36.6694L33.3956 37.2646H34.002H37.6152H38.0274L38.1061 36.86L39.5953 29.194L39.5959 29.1908C39.9019 27.5589 39.7031 26.2198 38.7625 25.3399C37.8571 24.4929 36.3174 24.1553 34.2949 24.1553H31.7283L32.4663 20.3811L32.5828 19.7852H31.9756H28.4111H27.9988L27.9203 20.1899L26.3571 28.2444C26.2075 27.3746 25.8587 26.6108 25.2978 25.9636C24.2142 24.7132 22.5321 24.1553 20.3789 24.1553H13.4697H13.0574L12.9789 24.56L9.78064 41.0395L9.66512 41.6348H10.2715H13.8604ZM49.5761 30.5142L49.5754 30.5179C49.3441 31.7207 48.8968 32.5136 48.3238 32.9483C47.742 33.3897 46.7971 33.6523 45.4033 33.6523H43.8374L44.9851 27.7676H47.0146C48.3672 27.7676 49.0697 28.0188 49.3783 28.3599C49.6726 28.6851 49.8142 29.324 49.5761 30.5142ZM37.7836 41.0395L37.668 41.6348H38.2744H41.8633H42.275L42.354 41.2307L43.1295 37.2646H45.7939C47.1929 37.2646 48.3496 37.1153 49.2968 36.7995C50.2459 36.4832 51.0886 35.9815 51.8711 35.2515C52.5163 34.6577 53.0388 34.0064 53.4332 33.2965C53.8251 32.5911 54.112 31.8084 54.2685 30.9502C54.677 28.9035 54.3857 27.2154 53.3007 25.9636C52.2171 24.7132 50.5351 24.1553 48.3818 24.1553H41.4727H41.0604L40.9818 24.56L37.7836 41.0395ZM62.75 31.9307C62.75 36.1896 59.4576 40.1656 53.8644 43.1063C48.2945 46.0349 40.5651 47.8613 32 47.8613C23.4349 47.8613 15.7055 46.0349 10.1356 43.1063C4.54245 40.1656 1.25 36.1896 1.25 31.9307C1.25 27.6717 4.54245 23.6958 10.1356 20.755C15.7055 17.8264 23.4349 16 32 16C40.5651 16 48.2945 17.8264 53.8644 20.755C59.4576 23.6958 62.75 27.6717 62.75 31.9307Z" stroke="#7B4AE2" stroke-opacity="0.5"/>
</svg>
