<svg width="64" height="64" viewBox="0 0 64 64" fill="none" xmlns="http://www.w3.org/2000/svg">
<path fill-rule="evenodd" clip-rule="evenodd" d="M63.226 30.3148C63.205 29.513 63.1627 28.6903 63.1205 27.8885C63.0783 27.0655 63.0573 26.2428 62.9728 25.42C62.8251 24.3016 62.6774 23.1624 62.4242 22.0653C62.2343 21.158 61.9179 20.2931 61.6015 19.4281C61.2006 18.4151 60.7997 17.3814 60.2934 16.411C59.4704 14.8497 58.3944 13.4571 57.4027 12.0013C56.7487 11.0728 55.9049 10.3133 55.2719 9.3641C54.9132 8.81551 54.3856 8.35116 53.8583 7.92928C53.0143 7.25423 52.1281 6.64217 51.2421 6.0516C50.5668 5.58724 49.8917 5.14437 49.1745 4.74349C48.6046 4.42684 47.9928 4.17367 47.402 3.8995C46.727 3.58285 46.0729 3.20321 45.3134 3.0555C45.1234 3.01327 44.9547 2.95004 44.7648 2.8868C44.2794 2.71786 43.8153 2.52816 43.33 2.38046C42.5917 2.14828 41.8744 1.87386 41.1146 1.68417C40.3764 1.49422 39.6168 1.36752 38.8573 1.26205C38.0133 1.13558 37.1483 1.09335 36.3043 1.00887C35.7558 0.94564 35.2072 0.882408 34.6796 0.861168C33.8781 0.819176 33.0551 0.819176 32.2533 0.797935C31.8524 0.776939 31.4306 0.734703 31.0297 0.755699C30.4179 0.776939 29.8061 0.840172 29.194 0.924644C28.6034 0.987877 28.0126 1.09335 27.4428 1.17782C26.7467 1.26205 26.0504 1.30428 25.3541 1.38876C24.7001 1.47323 24.025 1.59969 23.371 1.70516C23.1388 1.7474 22.9066 1.83187 22.6747 1.87386C22.1684 1.97958 21.6408 2.02181 21.1344 2.19051C20.2272 2.46468 19.32 2.78133 18.4337 3.11874C17.611 3.45638 16.8092 3.81503 16.0287 4.23714C15.2269 4.68002 14.4674 5.2076 13.7077 5.71395C12.9904 6.19906 12.2731 6.70565 11.5768 7.25423C10.9018 7.78158 10.2687 8.3724 9.65688 8.96322C9.31923 9.30062 9.04506 9.7015 8.72841 10.0814C8.20107 10.6932 7.67348 11.284 7.16714 11.9168C6.74526 12.4444 6.36538 12.993 5.96474 13.5416C5.24721 14.512 4.6354 15.5457 4.06582 16.5797C3.83364 17.0015 3.6227 17.4237 3.41176 17.8455C3.09511 18.4786 2.75771 19.0904 2.4623 19.7445C2.25136 20.1876 2.08242 20.6727 1.95595 21.158C1.66054 22.1917 1.36513 23.2467 1.09096 24.2806C0.83779 25.2088 0.774313 26.1795 0.753317 27.129C0.732077 27.9727 0.816549 28.7957 0.901022 29.6397C0.922018 29.8507 0.795553 30.1038 1.04873 30.2725C1.06972 30.2725 1.04873 30.357 1.02749 30.378C0.964254 30.5047 1.02749 30.6312 1.1542 30.6734C1.1542 30.6734 1.17519 30.6947 1.17519 30.7157H1.06972C1.00649 30.9056 1.21743 31.0533 1.13296 31.2642C1.11196 31.3065 1.19643 31.3907 1.23842 31.4542C1.23842 31.5174 1.21743 31.6019 1.23842 31.6651C1.25966 31.8551 1.34414 32.0448 1.34414 32.2559C1.34414 32.4036 1.4706 32.5723 1.51284 32.7201C1.53383 32.7833 1.51284 32.8888 1.4706 32.931C1.34414 33.0787 1.36513 33.2054 1.55507 33.2896C1.59731 33.3109 1.66054 33.3951 1.66054 33.4373C1.66054 33.564 1.61831 33.6905 1.59731 33.8172C1.6393 33.8595 1.66054 33.9015 1.6393 33.9437C1.6393 34.0069 1.57607 34.0704 1.59731 34.1126C1.76601 34.45 1.82924 34.8299 1.85048 35.2096C1.85048 35.294 1.89272 35.3785 1.93471 35.484C1.95595 35.484 2.01919 35.484 2.06142 35.505L1.93471 35.8848C2.04018 35.8214 2.12465 35.8004 2.23012 35.7581C2.29336 36.0326 2.35683 36.2857 2.44106 36.5177C2.4623 36.5599 2.50454 36.6021 2.56777 36.6444C2.54653 36.6866 2.54653 36.7708 2.50454 36.7921C2.58877 37.1717 2.631 37.5306 2.77871 37.8892C2.79995 37.8892 2.82094 37.868 2.84194 37.868C2.77871 37.4884 2.73647 37.0875 2.67324 36.7076V36.5811C2.67324 36.5811 2.71548 36.5599 2.73647 36.5599C2.75771 36.6444 2.79995 36.7498 2.79995 36.8131C2.96865 36.8131 3.22182 36.9185 3.39052 36.9185C3.41176 36.8553 3.43276 36.7708 3.454 36.7288C3.32729 36.6021 3.22182 36.4122 3.09511 36.2857C3.13735 36.4544 3.09511 36.5177 3.09511 36.5811C3.01089 36.5389 2.90542 36.4967 2.79995 36.4544C2.88418 36.349 2.96865 36.2435 3.09511 36.1168C3.09511 35.9271 2.98965 35.7581 2.69423 35.7794C2.82094 35.7371 2.94765 35.6739 3.09511 35.6317C3.11635 35.6949 3.13735 35.7581 3.15859 35.8004C3.32729 35.505 3.07412 35.273 3.07412 34.9776C3.09511 34.619 2.88418 34.2603 2.82094 33.8805C2.71548 33.2896 2.73647 32.4036 2.67324 31.8128C2.67324 31.7706 2.61001 31.7284 2.56777 31.6861C2.54653 31.7074 2.44106 31.9815 2.42006 32.0028C2.4833 32.5091 2.54653 33.0155 2.58877 33.5218C2.56777 33.5218 2.54653 33.5218 2.54653 33.5428C2.4623 33.0997 2.37783 32.6356 2.27236 32.1292C2.25136 32.2769 2.23012 32.3402 2.23012 32.4246C2.16689 32.4036 2.1459 32.3824 2.04018 32.3402C2.12465 32.5301 2.20913 32.6568 2.27236 32.8045C2.12465 32.7411 1.95595 32.7623 1.95595 32.7623V33.3529C1.74502 33.1419 1.68154 32.9732 1.57607 32.8255C1.53383 32.6568 1.51284 32.4879 1.4706 32.3192L1.53383 32.2979C1.51284 32.2137 1.4706 32.1502 1.4706 32.087C1.44961 31.9393 1.42837 31.7706 1.40737 31.5807C1.42837 31.5597 1.51284 31.5384 1.55507 31.4964L1.38613 31.2432C1.55507 31.2642 1.66054 31.2852 1.76601 31.2852C1.76601 31.2432 1.78701 31.222 1.76601 31.201C1.55507 31.0111 1.70278 30.8421 1.78701 30.6734C1.82924 30.589 1.97695 30.568 2.01919 30.4835C2.18789 30.1671 2.4623 29.9139 2.4623 29.513C2.4623 29.3231 2.52553 29.1121 2.54653 28.9222C2.58877 28.5636 2.631 28.2049 2.65224 27.8463C2.69423 27.3822 2.65224 26.9178 2.75771 26.4749C2.92641 25.7364 3.13735 24.9979 3.36953 24.2596C3.53823 23.732 3.72817 23.2257 3.93911 22.6983C4.25576 21.8753 4.55092 21.0526 4.9518 20.2718C5.52163 19.1327 6.17568 18.0355 6.80849 16.9173C7.20937 16.221 7.63149 15.567 8.07436 14.8917C8.49648 14.2376 8.91836 13.5626 9.40371 12.9508C10.0788 12.0858 10.8173 11.284 11.64 10.5665C12.484 9.80697 13.2858 9.02645 14.193 8.33016C15.3747 7.42294 16.6193 6.62118 17.9486 5.92489C19.0246 5.35531 20.1427 4.91219 21.2611 4.49007C21.9784 4.2159 22.7589 4.08944 23.4975 3.85726C24.3415 3.58285 25.1854 3.45638 26.0714 3.43514C26.6413 3.41415 27.1898 3.35091 27.7594 3.28768C28.2658 3.24545 28.7721 3.20321 29.3207 3.13998C29.2575 3.22421 29.2362 3.26644 29.2152 3.30868C28.9831 3.64632 28.7299 3.98373 28.4979 4.32137C28.308 4.59579 28.0971 4.89095 27.9071 5.16537C27.5695 5.60848 27.2108 6.0516 26.8944 6.51571C26.4091 7.212 25.966 7.92928 25.4596 8.62557C24.9533 9.30062 24.4047 9.93368 23.8773 10.5877C23.1811 11.495 22.527 12.4232 21.8307 13.3304C21.1977 14.1956 20.5226 15.0184 19.9108 15.8834C19.3622 16.6429 18.8769 17.4447 18.3495 18.2254C17.5687 19.3858 16.7882 20.525 16.0075 21.6854C15.3957 22.5716 14.7838 23.4366 14.1508 24.3228C14.1085 24.3861 14.0453 24.4073 13.9821 24.4493C13.9398 24.4915 13.8554 24.5338 13.8554 24.576C13.8134 24.7237 13.8134 24.8714 13.7499 24.9979C13.5812 25.3145 13.4125 25.6309 13.2226 25.9264C13.1171 26.0951 12.9694 26.2428 12.8427 26.4115C12.8004 26.3905 12.7794 26.3695 12.7372 26.3695C12.8217 26.1583 13.1803 26.0318 13.0116 25.7154C12.9061 25.8841 12.8004 26.0318 12.695 26.2005L12.4418 26.7069C12.5263 26.7703 12.674 26.8123 12.5263 26.939C12.463 27.0445 12.3996 27.171 12.3363 27.2767C12.3576 27.2767 12.3576 27.2977 12.3786 27.2977C12.4418 27.2132 12.5053 27.15 12.5685 27.0655C12.5895 27.0655 12.6107 27.0868 12.6317 27.0868C12.5685 27.2977 12.4418 27.4876 12.3363 27.6776C12.2519 27.8463 12.0409 27.9727 11.8932 28.0994C11.9144 28.1204 12.0622 28.1839 12.0832 28.2049C12.1464 28.1204 12.1676 28.1627 12.2309 28.0785C12.2731 28.1417 12.3363 28.0362 12.3576 28.0994C12.4208 28.015 12.484 27.9517 12.5053 27.8885C12.5895 27.6776 12.7162 27.5086 12.9271 27.4244C13.0116 27.3822 13.0749 27.3187 13.1381 27.2555C13.7711 26.6014 14.4252 25.9686 14.9948 25.2723C15.881 24.1961 16.6828 23.078 17.5265 21.9808C17.8854 21.5167 18.3073 21.0526 18.6869 20.6095C18.7291 20.6307 18.7714 20.6307 18.7926 20.6517C18.7504 21.0948 18.7082 21.5589 18.6869 22.002C18.6237 22.7826 18.5814 23.5633 18.5182 24.3651C18.4972 24.6815 18.5182 24.9979 18.4972 25.3145C18.4972 25.3988 18.4337 25.462 18.4337 25.5465C18.4337 25.7574 18.4972 25.9896 18.4972 26.2005C18.4337 26.9813 18.3495 27.7408 18.286 28.5213C18.265 28.6903 18.3495 28.859 18.3917 29.0067C18.3705 28.9857 18.3495 28.9644 18.286 28.9222C18.286 30.1461 18.5182 31.3487 18.3283 32.5514C18.4127 32.5301 18.455 32.5091 18.455 32.4669C18.476 32.3192 18.5182 32.1715 18.5182 32.0238C18.5394 31.8973 18.5182 31.7706 18.5182 31.6229V31.4119C18.5394 31.0321 18.6237 30.6312 18.5814 30.2515C18.5394 29.8294 18.5394 29.4286 18.6237 29.0277C18.6659 28.859 18.6027 28.648 18.7082 28.4371V28.7535C18.6869 29.9561 18.7291 31.1588 18.5604 32.3614C18.5394 32.4669 18.6237 32.6568 18.3917 32.6356C18.3705 32.6356 18.3495 32.7411 18.3073 32.8045C18.2018 33.0155 18.4337 33.2896 18.2228 33.5006C18.1806 33.5428 18.265 33.7327 18.286 33.8595C18.286 33.9015 18.3073 33.9437 18.286 33.9649C18.2018 34.1126 18.2018 34.1126 18.3283 34.1336C18.3495 34.5977 18.3917 35.0199 18.4127 35.4627H18.476C18.7504 34.661 18.5814 33.8382 18.7291 33.0155C18.7504 33.3529 18.7714 33.6905 18.7504 34.0492C18.7504 34.5977 18.7291 35.1253 18.7082 35.6739C18.7082 35.7794 18.6869 35.8848 18.6659 35.9903C18.6027 36.2857 18.5814 36.5811 18.476 36.8553C18.3917 37.0662 18.4337 37.3829 18.4337 37.6361V38.4376C18.4337 38.4588 18.4972 38.5221 18.4972 38.6065C18.5182 38.7965 18.4127 38.9864 18.476 39.1973C18.4972 39.2396 18.455 39.3028 18.4337 39.3451C18.4127 39.4083 18.3917 39.4715 18.4127 39.5348L18.476 39.8514C18.476 39.8724 18.4972 39.8936 18.5182 39.9356C18.5394 39.8514 18.5394 39.7879 18.5394 39.7669C18.8981 39.8092 18.7082 40.1256 18.8769 40.2945C18.7926 40.3365 18.7291 40.3577 18.7291 40.3787C18.7504 40.4632 18.7926 40.5265 18.7926 40.6109C18.7926 40.8006 18.7714 40.9696 18.7504 41.1595C18.7504 41.6446 18.7291 42.13 18.7291 42.5941C18.7291 42.6573 18.7504 42.7208 18.7504 42.784C18.7504 42.8263 18.7291 42.8685 18.7291 42.9317V43.3748H18.8136C18.7714 43.4381 18.7291 43.5013 18.6659 43.5645C18.6449 43.5645 18.5814 43.5645 18.5814 43.5435V40.8851H18.265C18.2228 42.151 18.3283 43.2904 18.0963 44.4718C17.8432 44.493 17.7587 44.5352 17.4845 44.5352C16.8305 44.5352 16.1764 44.5352 15.5224 44.5562C14.7416 44.5562 13.9821 44.5775 13.2013 44.5775C12.8217 44.5775 12.4208 44.6195 12.0409 44.6195C11.5346 44.6195 11.0072 44.5562 10.5009 44.5562C9.72011 44.5562 8.96059 44.6195 8.18007 44.6407C7.61025 44.6617 7.04067 44.6617 6.47109 44.6829C6.09121 44.7039 5.71132 44.7252 5.33169 44.7672C5.16298 44.7884 5.01528 44.8516 4.8041 44.9149C4.74087 44.9149 4.59316 44.8939 4.4667 44.9149C4.25576 44.9571 4.06582 45.0838 3.85488 45.1258C3.53823 45.1893 3.454 45.2735 3.49599 45.5902V45.8011C3.454 45.7589 3.39052 45.7166 3.34829 45.6956C3.32729 45.6956 3.3063 45.7166 3.3063 45.7166C3.32729 45.7799 3.36953 45.8221 3.39052 45.8856C3.475 45.8433 3.58047 45.7379 3.66494 45.7379H3.96035C3.91811 45.7379 3.89687 45.8643 3.83364 45.9698C4.00234 45.9066 4.10805 45.8643 4.21352 45.8221C4.23452 45.8856 4.23452 45.9698 4.23452 45.9911C4.52993 45.9698 4.8041 45.8856 5.05727 45.9488C5.88027 46.1598 6.72426 46.2442 7.56801 46.3285C8.1166 46.3707 8.64419 46.3919 9.19277 46.4129C9.97329 46.4552 10.754 46.4974 11.5346 46.4974C12.1886 46.4974 12.8217 46.4342 13.4757 46.4342C14.383 46.4342 15.2902 46.4762 16.1974 46.4974C16.3874 46.4974 16.5983 46.4762 16.8092 46.4762H18.3495C19.7208 46.4342 21.0922 46.4129 22.4638 46.3707C23.2443 46.3497 24.046 46.3075 24.8268 46.2865L27.2318 46.223C28.1603 46.202 29.0885 46.202 29.9957 46.1807C30.692 46.1807 31.3673 46.1598 32.0634 46.1388C32.8441 46.1175 33.6459 46.0543 34.4264 46.012C34.8485 45.9911 35.2704 45.9488 35.6925 45.9066C36.1989 45.8643 36.7262 45.8011 37.2326 45.7799C37.9921 45.7379 38.7729 45.7166 39.5324 45.6744C40.4818 45.6112 41.4313 45.5267 42.4018 45.5057C43.288 45.4635 44.1952 45.4847 45.0812 45.4635C45.862 45.4425 46.6425 45.4002 47.4442 45.3792L48.7736 45.3158C48.7736 45.3158 49.6596 45.2948 50.1027 45.2525C50.8622 45.2103 51.6217 45.1258 52.3812 45.1048C52.8666 45.0838 53.352 45.1048 53.8371 45.0838C54.6178 45.0626 55.4196 45.0203 56.2001 45.0203C56.4955 45.0203 56.8122 45.0626 57.1918 45.0838C57.0231 45.2315 56.9176 45.3158 56.7909 45.4212C56.8754 45.4425 56.9596 45.4847 57.0441 45.5267C57.0441 45.5479 57.0231 45.5689 57.0231 45.6112C56.9176 45.6112 56.8122 45.6324 56.7064 45.6324C56.6645 45.7379 56.6222 45.7799 56.58 45.9911H56.9596C56.8122 45.9911 56.6854 46.1807 56.5377 46.3075C56.559 46.3285 56.58 46.3285 56.601 46.3497C56.369 46.2652 56.2213 46.3075 56.1369 46.5396C56.2001 46.5606 56.2423 46.5606 56.3056 46.5606C56.2846 46.6239 56.2636 46.6873 56.2423 46.7716C56.2213 46.8138 56.2001 46.856 56.2001 46.9193L56.1369 46.856C56.1369 46.8138 56.1369 46.7716 56.1159 46.7293C55.9892 46.856 55.7992 46.9405 55.9047 47.2147C55.8205 47.2569 55.715 47.2992 55.6095 47.3624C55.6305 47.4046 55.6728 47.4469 55.6937 47.5101C55.5041 47.5311 55.3141 47.5733 55.3563 47.8055C55.4406 47.8265 55.525 47.8687 55.5883 47.8897C55.4828 47.932 55.3773 47.9952 55.2719 48.0374C55.2506 48.0797 55.2296 48.1851 55.1874 48.2064C54.892 48.2696 55.0609 48.3751 55.1452 48.4806C55.0819 48.5228 55.0187 48.565 54.9555 48.586C55.0187 48.6073 55.0609 48.6283 55.1032 48.6705C55.0397 48.7127 54.9975 48.7337 54.9555 48.755C54.9975 48.776 55.0609 48.8182 55.0819 48.8182C54.9975 48.8814 54.892 48.9659 54.7655 49.0714C54.7655 49.1136 54.7655 49.1346 54.7865 49.1768C54.7023 49.2613 54.6178 49.3455 54.5333 49.4723C54.4491 49.5987 54.4069 49.7677 54.3014 49.8941C53.8583 50.3795 53.5416 50.9491 52.9721 51.3289C52.7611 51.4766 52.5712 51.6663 52.3812 51.8563C52.0016 52.2149 51.664 52.6158 51.2631 52.9535C50.7357 53.3966 50.1872 53.7974 49.6173 54.1983C48.9213 54.6834 48.225 55.1688 47.5287 55.6329C47.1488 55.8861 46.727 56.076 46.3261 56.3082C45.9252 56.5401 45.5456 56.7513 45.1444 56.9832C44.8913 57.1522 44.6593 57.3841 44.3849 57.5108C43.6886 57.8062 42.9503 58.0594 42.2331 58.3336C42.1696 58.3546 42.1276 58.3758 42.0641 58.3968C41.5368 58.629 41.0304 58.8822 40.5028 59.0721C40.0175 59.2408 39.5114 59.3675 39.0048 59.473C38.8361 59.5152 38.6461 59.473 38.4564 59.494C38.0976 59.5572 37.7389 59.6417 37.3803 59.6839C36.452 59.8106 35.5236 59.8949 34.5954 60.0216C34.0468 60.0848 33.5192 60.1903 32.9706 60.2535C32.591 60.2747 32.1901 60.2325 31.8102 60.2325C31.536 60.2325 31.2406 60.2957 30.9662 60.2535C30.5233 60.1903 30.0802 60.0848 29.6371 60.0003C29.5316 59.9793 29.3839 59.9371 29.2995 59.9793C29.1308 60.0636 28.9831 59.9371 28.8144 59.9793C28.7089 60.0003 28.6034 59.9161 28.4977 59.9161C28.4135 59.8949 28.308 59.9371 28.2025 59.9161C27.9704 59.8526 27.7594 59.7684 27.5062 59.7894C27.2531 59.8106 26.9999 59.6839 26.7255 59.6207C26.3458 59.5362 25.9872 59.4517 25.6073 59.3675C25.4596 59.3253 25.3332 59.262 25.1854 59.1776C25.1432 59.1986 25.0797 59.2408 24.9955 59.2408C24.6369 59.1776 24.2782 59.1566 23.9406 59.0299C23.6452 58.9244 23.371 58.7767 23.0543 58.8189C22.9701 58.8399 22.9066 58.7977 22.8224 58.7977C22.7589 58.7135 22.6957 58.5445 22.6325 58.5445C22.2103 58.5658 21.9572 58.2071 21.5985 58.1016C21.4086 58.0382 21.2611 57.8272 21.0712 57.764C20.6071 57.5741 20.2272 57.1732 19.6999 57.1099C19.5309 57.0887 19.3622 57.0045 19.1723 56.941C19.2355 57.0255 19.2777 57.0887 19.341 57.1522L19.2987 57.1942C18.7291 56.8568 18.1596 56.5191 17.59 56.2027C17.5055 56.1815 17.4423 56.0973 17.3788 56.055L16.8092 55.6751C16.746 55.6329 16.6193 55.5697 16.6193 55.5907C16.4928 55.7386 16.3661 55.6119 16.2819 55.5697C15.7121 55.1688 15.058 54.9156 14.5094 54.4725C14.2775 54.2828 14.0031 54.1561 13.8344 53.9239C13.539 53.5653 13.1803 53.3121 12.7794 53.1012C12.463 52.9325 12.1676 52.7425 11.8722 52.5526C11.7245 52.4471 11.5768 52.3206 11.5768 52.0885C11.5768 51.9408 11.5136 51.7931 11.3236 51.8775C11.2392 51.7508 11.1549 51.6031 11.0495 51.5609C10.7963 51.4554 10.6273 51.2657 10.4374 51.0968C10.2477 50.9281 10.1 50.6959 9.86782 50.6117C9.44594 50.4427 9.19277 50.0841 8.9396 49.7887C8.34878 49.0924 7.82119 48.3328 7.2726 47.5943C7.23061 47.5311 7.14614 47.4889 7.08291 47.4256L7.06167 47.4469C7.16714 47.6578 7.2726 47.8477 7.37832 48.0587C7.35708 48.0797 7.31484 48.1009 7.29384 48.1219C7.16714 47.9742 7.01943 47.8265 6.89297 47.6788C6.87173 47.7 6.85073 47.721 6.82973 47.721L8.34878 50.1263C8.47524 50.3162 8.58071 50.5059 8.70742 50.6959C8.68642 50.7171 8.66518 50.7381 8.62295 50.7591C8.39101 50.7171 8.18007 50.5482 8.07436 50.3582C7.88466 50.0208 7.67348 49.8099 7.25161 49.8519C7.20937 49.7042 7.16714 49.5355 7.14614 49.3878C7.06167 49.3878 6.99843 49.3878 6.85073 49.3668C7.14614 49.8309 7.39931 50.2318 7.67348 50.6959C7.56801 50.6327 7.50478 50.5904 7.46255 50.5694C7.84243 50.9703 8.1166 51.4766 8.60195 51.7298C8.70742 52.2149 9.256 52.4471 9.38247 52.9112C9.277 52.8902 9.19277 52.869 9.0873 52.848C8.91836 52.637 8.72841 52.4261 8.53872 52.1939C8.58071 52.3416 8.64419 52.4681 8.72841 52.5738C8.98159 52.8902 9.21377 53.2066 9.50918 53.481C9.61465 53.5865 9.76235 53.6287 9.76235 53.8184C9.80459 53.7762 9.84682 53.7552 9.93105 53.713C9.88881 53.7974 9.86782 53.8397 9.84682 53.9029C9.93105 53.9029 9.99453 53.9239 10.0578 53.9239C10.1 54.0506 10.0365 54.2406 10.2897 54.1983C10.3109 54.1983 10.3319 54.2193 10.3532 54.2406C10.4586 54.5147 10.6273 54.5147 10.8595 54.4093C10.9018 54.3883 11.0072 54.4093 11.0282 54.4515C11.1337 54.6834 11.2814 54.7047 11.4713 54.536C11.4713 54.6414 11.4923 54.7469 11.4923 54.8311H11.5768C11.5768 54.7891 11.5558 54.7257 11.5558 54.6202C11.6613 54.7047 11.7245 54.7469 11.7667 54.7891C11.9777 55.0843 12.1676 55.3587 12.463 55.5907C12.8639 55.9283 13.2226 56.2869 13.6022 56.6036C14.3407 57.2154 15.1635 57.7218 15.9865 58.1859C16.9992 58.7555 17.9696 59.3675 19.0036 59.9159C20.2482 60.5702 21.5775 61.013 22.9489 61.3297C23.4552 61.4351 23.9406 61.5406 24.4469 61.6671C24.89 61.7938 25.3332 61.9837 25.776 62.0892C26.4513 62.2369 27.1476 62.3634 27.8227 62.4901C27.9704 62.5111 28.1181 62.5323 28.2868 62.5533V62.5955C28.4767 62.5955 28.7089 62.5111 28.7511 62.5743C28.8566 62.7432 28.9408 62.6588 29.0675 62.6378C29.2152 62.5955 29.3839 62.5955 29.5526 62.5955C30.1435 62.6165 30.713 62.7432 31.3039 62.701C31.4306 62.701 31.6205 62.5955 31.726 62.8065C31.7682 62.7852 31.7892 62.7642 31.8314 62.7432C31.9157 62.722 32.0214 62.722 32.1056 62.701V62.7432C32.0634 62.7642 32.0214 62.7642 31.9369 62.7855C32.0424 62.8065 32.1056 62.8275 32.1691 62.8487C32.1269 62.891 32.1056 62.891 32.0634 62.9119C32.0214 62.9329 31.9579 62.9542 31.8737 63.0174C32.6332 63.1651 33.3505 63.1864 33.9835 63.0174V62.891H34.0678C34.0678 62.9329 34.089 62.9752 34.11 63.0174C35.0805 63.1019 36.0299 62.9752 36.9372 62.6588C37.0216 62.7642 37.0849 62.9119 37.2116 62.701C37.2538 62.6378 37.3593 62.6165 37.4435 62.5955C37.6334 62.5533 37.8656 62.4688 38.0343 62.5323C38.2243 62.5955 38.2875 62.4266 38.4352 62.4266C38.6884 62.4266 38.9206 62.4056 39.1525 62.3634C39.2792 62.3424 39.4057 62.2789 39.5534 62.2369C39.5534 62.2157 39.5534 62.1947 39.5324 62.1734C39.3847 62.1524 39.216 62.1314 39.0893 62.1314C39.3424 62.0047 39.5746 61.8993 39.8065 61.7938C39.8065 61.8148 39.8278 61.8148 39.8278 61.836C39.7643 61.857 39.7223 61.9415 39.6378 61.9415H39.9333C39.87 61.9415 39.7855 62.1314 39.6801 62.2579C40.4396 62.068 41.1359 61.8993 41.8109 61.7306V61.6883C41.7267 61.7093 41.6632 61.7093 41.6 61.7306C41.579 61.2874 42.0641 61.4351 42.2331 61.182C42.0219 61.2452 41.8109 61.3084 41.6 61.3507V61.3084C42.3173 60.992 43.0558 60.6756 43.7731 60.359C43.7731 60.3802 43.7943 60.3802 43.7943 60.4012C43.6676 60.4857 43.5412 60.5489 43.3512 60.6544C43.4777 60.6756 43.5622 60.6756 43.6254 60.6966C43.6254 60.7598 43.6254 60.8021 43.6044 60.8233C43.963 60.8021 43.8786 60.4857 43.984 60.2957C44.0475 60.3167 44.1317 60.359 44.1952 60.338C44.3849 60.2957 44.5539 60.2325 44.7436 60.1693C44.9547 60.1058 45.1657 60.0426 45.3766 59.9581C45.7143 59.8104 46.0307 59.6207 46.3683 59.4517C46.4315 59.4307 46.537 59.4517 46.6215 59.4517C46.6847 59.4517 46.727 59.4095 46.7692 59.3675C46.8534 59.304 46.9379 59.1776 47.0011 59.1986C47.2965 59.2408 47.5075 59.1353 47.5919 58.8612C47.6132 58.8612 47.6132 58.8399 47.6342 58.8399C47.7396 58.7557 47.8451 58.6712 47.9506 58.6077C48.4149 58.3546 48.8578 58.1016 49.3222 57.8482C49.3432 57.8272 49.3854 57.8482 49.4276 57.8482C49.4909 57.8482 49.5753 57.8482 49.6173 57.8272C49.8917 57.7005 50.1449 57.5531 50.3981 57.4054C50.3349 57.3841 50.3981 57.3631 50.1872 57.3419V57.2996C50.3981 57.2577 50.4613 57.2364 50.588 57.1942L50.5458 57.1522C51.0944 56.6036 51.7907 56.2027 52.318 55.7386C52.4235 55.7596 52.4657 55.7806 52.529 55.7806C52.5502 55.7174 52.5502 55.6541 52.5502 55.6119C52.6344 55.5064 52.7189 55.3797 52.8244 55.2955C53.2885 54.8734 53.7951 54.5147 54.2169 54.0716C54.8288 53.4598 55.4196 52.827 55.9682 52.1729C56.4745 51.5821 56.9809 50.9913 57.4027 50.3372C57.9936 49.43 58.4999 48.5018 59.0272 47.5523C59.4071 46.877 59.7448 46.202 60.1244 45.5267C60.1666 45.4635 60.2511 45.3792 60.3144 45.3792C60.8839 45.3158 61.4538 45.2735 62.0023 45.2103C62.1288 45.1893 62.2765 45.1048 62.4032 45.0416C62.3397 44.9361 62.2975 44.8094 62.2343 44.7039C62.15 44.5772 62.0233 44.4718 61.9389 44.3453C61.8546 44.2398 61.7914 44.1131 61.7279 43.9867C61.6647 43.8812 61.6015 43.7967 61.538 43.6912C61.4115 43.4591 61.2848 43.2271 61.1793 42.974C61.1583 42.9105 61.1161 42.805 61.1371 42.7418C61.517 41.919 61.6647 41.0328 62.0233 40.21C62.382 39.3661 62.4874 38.4166 62.6564 37.5094C62.8041 36.6444 62.8883 35.7794 62.9938 34.9141C63.0573 34.3023 63.1415 33.7115 63.1627 33.0997C63.2892 32.1292 63.247 31.222 63.226 30.3148ZM10.1842 53.8607C10.0368 53.692 9.91006 53.502 9.76235 53.3333L9.82558 53.2698C10.0578 53.5233 10.2899 53.7762 10.5219 54.0506C10.3954 53.9874 10.2477 53.9451 10.1842 53.8607ZM10.5219 54.0506C10.5851 54.0296 10.6486 54.0296 10.7118 54.0084C10.775 54.1138 10.8173 54.2405 10.8805 54.367C10.5851 54.346 10.4374 54.2193 10.5219 54.0506ZM32.4643 62.7642V62.701C32.8651 62.6588 33.245 62.6165 33.6459 62.5745V62.6378C33.245 62.701 32.8651 62.7432 32.4643 62.7642ZM37.7812 62.2156C37.4857 62.2791 37.1693 62.3211 36.8739 62.3633C36.7685 62.3846 36.642 62.4901 36.5998 62.3001C36.5575 62.3211 36.5153 62.3211 36.473 62.3423C36.5785 62.6588 36.8317 62.4056 37.0426 62.5323C36.5785 62.5955 36.1354 62.6378 35.6925 62.701V62.6588C35.819 62.6378 35.9667 62.6165 36.0934 62.5955V62.5323C35.8822 62.511 35.6713 62.4901 35.4604 62.4901C35.3971 62.4901 35.3126 62.5745 35.2494 62.5955C35.1649 62.6165 35.0805 62.6378 34.975 62.6378C34.6164 62.6588 34.2577 62.6588 33.9201 62.68C33.8991 62.68 33.8568 62.6588 33.8358 62.6588V62.5955C35.2494 62.4056 36.642 62.2156 38.0556 62.0259C38.0766 62.0679 38.0766 62.1102 38.0976 62.1524C37.9711 62.1524 37.8866 62.1946 37.7812 62.2156ZM38.0976 62.0047C38.5829 61.9415 39.026 61.8992 39.4901 61.836C38.5197 62.1102 38.2033 62.1524 38.0976 62.0047ZM19.7208 19.4068C20.3961 18.4786 21.0922 17.5501 21.7675 16.6007C21.9784 16.3265 22.1471 16.0311 22.3583 15.7569C22.4215 15.6724 22.5058 15.6302 22.6115 15.5457L22.5902 15.5037C22.6747 15.398 22.7589 15.3138 22.8012 15.2293C22.9066 15.0606 22.9701 14.8707 23.0543 14.6807C23.0756 14.6385 23.1388 14.5965 23.1388 14.5965C23.4342 14.744 23.4342 14.4276 23.5397 14.3221C23.7296 14.1112 23.9196 13.879 24.0883 13.668C24.2147 13.4993 24.3415 13.3516 24.4469 13.1617C24.4679 13.0985 24.4047 12.993 24.3837 12.9085H24.3205C24.3837 12.8663 24.4469 12.803 24.5102 12.7608C24.5314 12.7608 24.5314 12.7608 24.5524 12.7398C24.6791 12.5499 24.8056 12.3599 24.9323 12.1912C25.1854 11.8536 25.4596 11.5159 25.755 11.2205C25.7128 11.326 25.6706 11.4317 25.6286 11.5159C25.6496 11.5159 25.6496 11.5372 25.6706 11.5372C25.9237 11.1995 26.1981 10.8831 26.4513 10.5455C26.4301 10.5245 26.4091 10.5032 26.3881 10.5032C26.2826 10.6087 26.1981 10.7142 26.0927 10.8197C26.0714 10.7987 26.0504 10.7777 26.0292 10.7777C26.2404 10.5032 26.4513 10.2291 26.6623 9.91242C26.7045 9.9759 26.7467 10.0601 26.831 10.2291C26.9154 10.0179 26.9999 9.87019 27.0631 9.72273C26.9999 9.78596 26.9154 9.84919 26.8522 9.91242L26.7887 9.84919L27.1686 9.27961C27.5695 8.70979 27.9704 8.11921 28.3712 7.54939C28.5189 7.33845 28.7089 7.16975 28.8354 6.95881C29.2362 6.15705 29.8693 5.524 30.3544 4.78547C30.4601 4.63801 30.6076 4.5113 30.7343 4.38459C30.8397 4.25813 30.9242 4.30036 31.0087 4.40583C31.5783 5.12312 32.1479 5.86164 32.7174 6.57893C33.1395 7.10652 33.5614 7.61286 33.9623 8.1612C34.4477 8.8365 34.9118 9.51155 35.3971 10.1868C35.9457 10.9674 36.4943 11.7481 37.0216 12.5499C37.8234 13.7313 38.5829 14.9129 39.3847 16.0943C39.9755 16.9595 40.5663 17.8033 41.1359 18.6685H40.0597C39.0683 18.6473 38.0556 18.5628 37.0639 18.6051C35.7135 18.6685 34.3422 18.816 32.9918 18.9215C31.2829 19.0692 29.5526 19.0904 27.8439 19.0904C27.2318 19.0904 26.62 19.1746 26.0082 19.2169C25.2697 19.2591 24.5524 19.3013 23.8139 19.3226C22.9489 19.3646 22.1049 19.3858 21.2399 19.4068C20.7548 19.428 20.2482 19.4068 19.7208 19.4068ZM43.9208 29.1121V29.3021C43.8998 29.3021 43.8786 29.3231 43.8363 29.3231C43.7521 29.0276 43.6676 28.7112 43.5622 28.4158C43.3512 27.804 43.119 27.1922 42.7394 26.6436C42.3173 26.0528 41.9376 25.441 41.5155 24.8292C41.4101 24.6815 41.2624 24.5547 41.1359 24.4283C40.6928 23.9429 40.2497 23.4366 39.6801 23.0779C38.8361 22.5506 37.9711 22.1075 37.0426 21.7276C36.7895 21.6221 36.5575 21.4957 36.3043 21.348H36.8107L40.4186 21.2847C41.1991 21.2635 41.9586 21.2635 42.7394 21.2213C42.9293 21.2213 43.0348 21.2847 43.1403 21.4534C43.3302 21.7698 43.5199 22.0862 43.7309 22.4029C43.7521 22.4449 43.7943 22.5084 43.7943 22.5716C43.7943 23.0357 43.7943 23.5211 43.8153 23.9852C43.8366 24.4705 43.8786 24.9346 43.8998 25.42C43.8998 25.9051 43.8576 26.4114 43.8786 26.9178C43.8998 27.6353 43.9208 28.3736 43.9208 29.1121ZM21.2189 22.0443C22.2106 22.002 23.1598 21.9385 24.1305 21.8966C24.89 21.8543 25.6706 21.8331 26.4301 21.7911C26.7467 21.7698 27.0421 21.7488 27.3585 21.7911C27.0209 21.9598 26.6835 22.1285 26.3881 22.3397C26.0082 22.5926 25.6496 22.9302 25.2697 23.2047C24.89 23.4788 24.5524 23.8165 24.236 24.1751C23.8351 24.6605 23.392 25.0823 22.9701 25.5465C22.6747 25.8841 22.3371 26.2005 22.0839 26.5592C21.7252 27.0235 21.4088 27.5299 21.0712 28.0572C21.1767 26.0528 21.3034 24.0697 21.2189 22.0443ZM34.9962 42.3409C34.3209 42.5096 33.6249 42.6995 32.9286 42.784C32.3378 42.8685 31.726 42.8472 31.1142 42.8472C30.5656 42.8472 30.038 42.8262 29.4894 42.784C28.8776 42.7208 28.2658 42.6573 27.6749 42.3831C27.1686 42.1509 26.6413 41.94 26.1349 41.6868C25.6286 41.4337 25.122 41.1382 24.7423 40.6741C24.4679 40.3365 24.0883 40.0623 23.7506 39.7669C23.8139 40.0201 23.9616 40.231 24.1937 40.3787C24.0883 40.5054 23.9406 40.442 23.7296 40.1046C23.6664 40.1465 23.6029 40.1678 23.5607 40.1888C23.6242 40.0411 23.6874 39.8936 23.7506 39.7669C23.6664 39.5982 23.5607 39.4083 23.4765 39.2396C23.3075 38.9651 23.1388 38.6697 22.9911 38.3956C22.9489 38.3321 22.9489 38.2689 22.9066 38.2056C22.8012 38.0789 22.6957 37.9525 22.6115 37.8257C22.4425 37.5726 22.2948 37.2984 22.0839 37.0452C22.0839 37.1085 22.1049 37.1717 22.1049 37.2562C22.0839 37.2562 22.0629 37.2772 22.0629 37.2772L21.6198 36.2012C21.5985 36.2012 21.5985 36.2012 21.5775 36.2225L21.9574 37.6148C21.9362 37.6148 21.9152 37.636 21.8939 37.636C21.8307 37.5516 21.7675 37.4671 21.7252 37.3616C21.683 37.1929 21.5565 37.1929 21.4508 37.2562C21.3876 37.2984 21.3454 37.4461 21.3666 37.5093C21.5143 37.868 21.683 38.2266 21.8517 38.5855C21.8939 38.712 21.9362 38.8174 21.9994 38.9442C22.0207 38.9864 22.0839 39.0284 22.0839 39.0919C22.1684 39.2606 22.2316 39.4293 22.3371 39.577C22.527 39.8301 22.7379 40.0833 22.9279 40.3365C23.1178 40.5897 23.2865 40.8641 23.4552 41.1172C23.4765 41.1595 23.5397 41.1595 23.5607 41.1805C23.6664 41.4969 24.025 41.7291 24.2782 41.6026C24.3415 42.0877 24.8688 42.2567 25.08 42.7208C24.8268 42.6153 24.6369 42.5308 24.4679 42.4464C24.4469 42.4676 24.4469 42.4886 24.4259 42.5308C24.6791 42.6573 24.9323 42.784 25.1642 42.9317C25.3751 43.0582 25.5863 43.1849 25.776 43.3326C26.0294 43.5645 26.3246 43.6912 26.6835 43.7757C26.6623 43.7122 26.6413 43.6912 26.6413 43.6912C27.2318 43.9656 27.8439 44.2608 28.308 44.493C26.1137 44.5352 23.7719 44.5775 21.3454 44.6194C21.3454 44.2186 21.3244 43.8389 21.3244 43.438C21.3244 43.2693 21.3666 43.1216 21.3454 42.9527C21.2821 41.9822 21.2821 41.0118 21.1557 40.0623C21.029 39.0496 21.029 38.0579 21.0502 37.0452C21.0712 36.4966 21.029 35.9271 21.008 35.3785C21.008 34.64 21.008 33.9227 21.029 33.1841C21.029 33.0787 21.0712 32.9942 21.1134 32.8887H21.1767C21.1977 32.931 21.1767 32.9942 21.2189 33.0154C21.2821 33.0787 21.3876 33.1841 21.4298 33.1631C21.5565 33.0787 21.7462 32.9942 21.7885 32.8677C21.8939 32.6146 21.9362 32.3401 21.9362 32.087C21.9362 31.8973 22.0207 31.7706 22.1049 31.6439C22.1471 31.5806 22.1684 31.5174 22.2106 31.4329C22.1261 31.3697 22.0416 31.3275 21.9362 31.2432C22.0207 31.011 21.9994 30.7366 22.3161 30.6102C22.3583 30.5889 22.3583 30.4835 22.3793 30.4202C22.4003 30.2515 22.4215 30.0616 22.4425 29.8929C22.4848 29.9561 22.5058 29.9771 22.548 30.0193C22.5692 29.9771 22.5902 29.9561 22.5902 29.9561C22.5902 29.8716 22.5692 29.7029 22.5902 29.7029C22.8434 29.6607 22.7379 29.3865 22.8646 29.2598C22.8856 29.2388 22.8434 29.1754 22.8434 29.1334C22.8434 29.0911 22.8434 29.0276 22.8646 29.0276C23.1598 28.9644 23.1178 28.648 23.3075 28.5003C23.371 28.4581 23.392 28.3948 23.4765 28.2894C23.6452 28.5848 23.3498 28.7325 23.3288 28.9434C23.6874 28.7325 23.7929 28.2261 23.5819 28.0784C23.6664 28.015 23.7506 27.9307 23.8139 27.8463C24.046 27.5931 24.2992 27.3609 24.5102 27.1077C24.6579 26.9178 24.7423 26.6859 24.89 26.4959C24.9745 26.3904 25.1432 26.306 25.2697 26.2427C25.6496 26.0318 26.0082 25.7996 26.2404 25.441C26.2826 25.3987 26.3458 25.3565 26.4091 25.3145C26.4723 25.2723 26.599 25.2723 26.62 25.2088C26.6413 25.1668 26.5778 25.0613 26.5355 24.9979C26.62 24.9556 26.7045 24.8714 26.8732 24.7869C26.81 24.9136 26.789 24.9979 26.7467 25.0823L26.8522 25.1878C27.0421 25.0401 27.3375 24.8714 27.5272 24.7447C27.5272 24.7237 27.4218 24.6392 27.4218 24.6392C27.2953 24.7027 27.1054 24.8082 26.9154 24.8924C26.9577 24.8292 26.9577 24.7869 26.9787 24.7659C27.2741 24.576 27.5695 24.386 27.8859 24.2383C28.6244 23.9007 29.3629 23.5633 30.1012 23.2466C30.2279 23.1834 30.3966 23.2256 30.5443 23.2256C30.6076 23.2256 30.6498 23.2256 30.7133 23.2047C31.0507 23.0992 31.3883 22.9937 31.726 22.9092C31.8737 22.867 32.0424 22.846 32.1901 22.846C32.8231 22.867 33.456 22.867 34.089 22.9092C34.3632 22.9302 34.6164 22.9937 34.8695 23.0779C35.1862 23.1834 35.5236 23.3311 35.819 23.4788C36.1776 23.6688 36.5153 23.8797 36.8529 24.1119C37.4647 24.5128 38.0343 24.9556 38.6461 25.3145C39.237 25.6732 39.7011 26.1583 40.081 26.7068C40.5451 27.3609 41.0727 27.9517 41.2836 28.7535L41.6 30.1461C41.6632 30.3992 41.8109 30.6524 41.7477 30.9478C41.6422 31.4752 41.5578 32.0237 41.4735 32.5513C41.4313 32.7623 41.3891 32.9732 41.4101 33.1841C41.4523 33.8382 41.1991 34.4078 40.9459 34.9986C40.8615 35.1885 40.735 35.3785 40.6295 35.5894C40.6505 35.6104 40.7772 35.6739 40.7982 35.6739L40.9882 35.294C41.0092 35.294 41.0092 35.294 41.0304 35.3152C40.9249 35.6104 40.8405 35.9271 40.735 36.2225C40.4818 36.8765 40.2287 37.5516 39.9123 38.1846C39.7433 38.5433 39.4479 38.8387 39.237 39.1761C39.026 39.4715 38.8573 39.7879 38.6461 40.0623C38.4564 40.2945 38.2665 40.5264 38.0133 40.6954C37.4435 41.1172 36.8529 41.5391 36.2411 41.8768C35.8612 42.1089 35.4181 42.2354 34.9962 42.3409ZM23.7506 41.2227L23.7296 41.2437C23.6874 41.2227 23.6242 41.2015 23.5819 41.1595L23.0756 40.4C23.0333 40.3365 23.0124 40.2733 23.0333 40.1888C23.2653 40.5474 23.4975 40.8851 23.7506 41.2227ZM36.8739 44.1131C37.8234 43.7122 38.6041 43.1426 39.3214 42.4886C39.4269 42.3831 39.5324 42.2776 39.6591 42.1932C40.5451 41.6446 41.1991 40.8851 41.7899 40.0411C42.465 39.0706 42.9081 37.9734 43.4567 36.9398C43.4989 36.8553 43.5412 36.7708 43.5834 36.7076C43.5412 39.1129 43.8153 41.4759 44.1317 43.8599C41.7477 43.9444 39.3214 44.0289 36.8739 44.1131ZM58.268 43.4803C58.2467 43.5225 58.2045 43.5645 58.1835 43.6068C58.1623 43.5645 58.1623 43.5013 58.1413 43.4171C58.0145 43.7545 57.7404 43.5858 57.5504 43.5858C56.4113 43.6068 55.2509 43.6068 54.1115 43.6068C53.0143 43.6068 51.8961 43.6068 50.799 43.628C50.4403 43.628 50.0604 43.7122 49.7018 43.7335C48.8368 43.7757 47.9718 43.7967 47.1068 43.8177C47.0434 43.8177 46.9801 43.7122 46.8747 43.628C46.8537 43.6702 46.8114 43.7335 46.7479 43.8177C46.727 43.7757 46.6847 43.7335 46.6425 43.6702C46.6215 43.7335 46.6002 43.7967 46.5792 43.8389H46.516C46.4738 43.5435 46.3893 43.2693 46.3893 42.9739C46.3893 42.3409 46.4525 41.7081 46.4738 41.075C46.4948 40.7796 46.4738 40.5054 46.4738 40.231C46.5583 40.2945 46.6215 40.3365 46.706 40.4C46.7479 40.3155 46.7902 40.2523 46.8324 40.1888C46.8324 40.1888 46.7902 40.1678 46.7479 40.1255C46.7902 40.1046 46.8324 40.0623 46.8324 40.0413C46.8537 39.9778 46.8957 39.9146 46.8957 39.8724C46.8957 39.7247 46.8537 39.5982 46.8324 39.4715C46.8537 39.4715 46.8747 39.4715 46.8957 39.4505L47.0224 40.0833H47.0856C47.0014 39.9356 47.2755 39.8091 47.0434 39.6402C47.0224 39.6192 47.0646 39.4925 47.0646 39.4293C47.0014 39.3028 46.9591 39.1761 46.8957 39.0074C46.9169 38.9864 46.9801 38.9651 47.0434 38.9442C46.9591 38.9019 46.8957 38.8597 46.8324 38.8384C47.0434 38.6487 47.0434 38.5433 46.8537 38.3321C46.8957 38.3111 46.9379 38.3111 46.9379 38.2901C46.9379 38.1002 46.9379 37.9102 46.8957 37.7203C46.8537 37.5093 46.9591 37.2562 46.6425 37.1297C46.6637 37.1929 46.6847 37.2352 46.727 37.2984C46.727 37.2984 46.6637 37.3194 46.6002 37.3616C46.3261 37.1085 46.4948 36.7708 46.4315 36.3912C46.5792 36.4334 46.6847 36.4756 46.7902 36.5176C46.7479 36.3702 46.6425 36.2012 46.5792 36.0113H46.4948V34.619C46.4948 34.64 46.6425 34.64 46.727 34.6609C46.727 34.64 46.7479 34.619 46.7479 34.5977C46.6847 34.5132 46.6002 34.429 46.516 34.3235L46.5583 34.2813C46.3893 34.0704 46.4738 33.775 46.4738 33.7117V32.2347C46.6847 32.4456 46.3683 32.72 46.6847 32.8465V32.6356H46.6637C46.6425 32.3192 46.6425 32.0027 46.6215 31.6861H46.5792C46.5583 31.7283 46.5583 31.7496 46.537 31.7916H46.4948C46.537 30.1248 46.5792 28.4581 46.6215 26.7491C46.8324 27.0235 47.0646 27.2767 47.2123 27.5508C47.6974 28.4371 48.3305 29.1966 48.9213 29.9984C49.4276 30.6946 49.8917 31.4542 50.3559 32.1714C50.9254 33.0364 51.474 33.9014 52.0438 34.7667C52.4657 35.4207 52.9088 36.0748 53.352 36.7076C53.7528 37.2772 54.1747 37.8257 54.5968 38.3743C54.9555 38.8597 55.3351 39.345 55.6937 39.8301C56.1159 40.421 56.5377 41.0118 56.9599 41.5814C57.1708 41.8768 57.4027 42.1722 57.6349 42.4676C57.7614 42.6363 57.9513 42.763 58.078 42.8685C58.0568 42.8685 58.0358 42.8685 57.9936 42.8472C58.0568 42.9317 58.099 42.9949 58.1413 43.0372C58.3734 43.1636 58.3944 43.2903 58.268 43.4803ZM59.3439 38.2056V38.0579C59.3439 38.1002 59.3649 38.1634 59.3439 38.2056ZM60.0612 28.9012C60.0402 28.9012 59.9135 28.7745 59.8925 28.7535C59.8712 28.8167 59.8925 28.88 59.8502 28.9644C59.8292 28.9012 59.6815 28.9222 59.6815 28.859C59.6603 29.1544 59.808 29.4498 59.787 29.7452C59.8502 29.703 60.1034 29.6817 60.1666 29.6185C60.1879 29.6397 60.2299 29.6607 60.2511 29.6607C59.8292 29.9771 59.9347 30.2938 60.1244 30.6524C60.1666 30.7367 60.2934 30.9056 60.1666 31.0743C60.1244 31.1165 60.1879 31.2433 60.2089 31.3487H60.2721V31.3907L60.0824 31.4542C60.0402 31.3907 59.787 31.2643 59.787 31.1588V32.2347C59.9979 32.2979 59.9979 32.5934 60.0824 32.7411C60.1244 32.6778 60.1457 32.6356 60.1666 32.5724L60.1879 32.5934C60.1666 32.7201 60.1457 32.8465 60.1034 32.9732C60.0612 33.1632 60.0189 33.3319 59.9979 33.5218C59.9979 33.5428 60.0402 33.5851 60.0402 33.606C59.808 34.1336 59.9347 34.7245 59.8502 35.273C59.787 35.6739 59.8502 36.0958 59.808 36.5177C59.7658 36.8766 59.6815 37.2562 59.5971 37.6148C59.5761 37.6781 59.5338 37.6993 59.4284 37.7415C59.4704 37.4884 59.4494 37.3194 59.4071 37.0875C59.3861 37.0875 59.1117 36.9398 59.0907 36.9398C59.0907 37.2352 59.2594 37.6361 59.3229 37.9735C59.2594 37.9525 59.0062 37.8048 58.9853 37.8048C58.943 38.058 58.943 38.3956 58.922 38.6698C58.9008 38.8807 58.7108 39.0706 58.6898 39.3028C58.6898 39.4293 58.8375 39.5138 58.8163 39.7247H58.9853C58.9853 39.3028 59.1752 38.9229 59.1752 38.4798H59.2384C59.2594 38.5221 59.3229 38.5643 59.3017 38.5855C59.2594 38.8175 59.1752 39.0706 59.1962 39.3028C59.1962 39.4293 59.3017 39.556 59.2594 39.7037C59.2172 39.8302 59.1962 39.9569 59.1752 40.1466C59.154 40.0411 59.133 39.9991 59.133 39.9356C59.1117 39.9356 58.922 39.9146 58.9008 39.9146C58.8798 40.0411 59.0485 40.1678 59.0275 40.2733C59.0062 40.2945 58.9853 40.2945 58.943 40.3155L58.2467 39.3028C57.6981 38.5011 57.1496 37.6993 56.601 36.8766C56.4533 36.6654 56.3268 36.4544 56.2213 36.2435C55.5673 35.1253 54.85 34.0492 54.0482 33.0155C53.4362 32.2347 52.9511 31.3907 52.3812 30.568C51.8539 29.7874 51.3263 29.0277 50.799 28.2472C50.609 27.994 50.3771 27.7618 50.2082 27.4876C49.6596 26.6227 49.1745 25.7364 48.6259 24.8714C48.1618 24.1539 47.6552 23.4579 47.1701 22.7616C47.0014 22.5294 46.8324 22.2762 46.6637 22.023C46.6425 21.9808 46.6215 21.9386 46.6215 21.8753C46.5792 21.4112 46.537 20.9471 46.516 20.504C46.516 20.0819 46.5583 19.66 46.5583 19.2169V18.8372C46.5583 18.7318 46.5792 18.6473 46.5792 18.5418C46.6002 18.5206 46.6215 18.4786 46.6425 18.4574C46.0307 18.4574 45.3979 18.4364 44.7858 18.4574C44.3852 18.4786 44.174 18.3097 43.8998 18.0145C43.098 17.107 42.5072 16.0733 41.8109 15.1029C41.1569 14.1744 40.4818 13.2672 39.8065 12.36C39.2582 11.6214 38.7096 10.9041 38.161 10.1656C37.5492 9.32187 36.9584 8.47787 36.3253 7.63388C35.5658 6.62119 34.7853 5.60849 34.0045 4.59579C33.6459 4.13144 33.245 3.68857 32.8441 3.20322C33.1183 3.24545 33.3715 3.28769 33.6249 3.30869L34.6376 3.37192C35.3971 3.43539 36.1566 3.47739 36.9162 3.58286C37.5492 3.66733 38.182 3.79404 38.8361 3.89951C40.2287 4.13144 41.6 4.51132 42.9293 4.95444C43.7099 5.20761 44.4694 5.54526 45.2289 5.86166C46.9379 6.55795 48.5626 7.4017 50.1659 8.28793C50.6725 8.5621 50.9677 9.00522 51.3476 9.4061C51.8961 9.97592 52.4447 10.5455 52.9721 11.1363C53.5839 11.8326 54.1537 12.5499 54.7443 13.2672C55.2719 13.9002 55.8205 14.5331 56.3478 15.1661C56.5167 15.356 56.6432 15.588 56.7909 15.7989C57.1286 16.3053 57.5082 16.7906 57.8036 17.3392C58.0148 17.7401 58.1413 18.2042 58.289 18.6473C58.4999 19.3014 58.7108 19.9344 58.922 20.5885C59.0695 21.0736 59.1962 21.5799 59.3017 22.0863C59.3861 22.4239 59.3649 22.7826 59.4704 23.1202C59.5971 23.5633 59.4704 24.0484 59.5971 24.4915C59.6181 24.5338 59.6393 24.597 59.6603 24.6393C59.7448 24.7237 59.808 24.808 59.6815 24.9347C59.6603 24.9557 59.6603 25.0401 59.6815 25.1034C59.7235 25.0614 59.7448 25.0191 59.787 24.9557C59.787 24.9979 59.808 25.0191 59.808 25.0401C59.808 25.1246 59.787 25.2088 59.808 25.2933C59.808 25.3355 59.8502 25.3988 59.8712 25.441C59.9135 25.3988 59.9557 25.3778 60.0402 25.3145C60.2299 26.0318 60.2511 26.7491 60.2511 27.4876C60.2511 28.1839 60.3776 28.88 60.0824 29.5553C60.1457 29.3231 59.9979 29.1122 60.0612 28.9012Z" fill="#7B4AE2" fill-opacity="0.5"/>
<path fill-rule="evenodd" clip-rule="evenodd" d="M46.6487 37.175C46.6697 37.175 46.6909 37.1963 46.6909 37.1963L46.6697 37.175C46.6697 37.1541 46.6697 37.1541 46.6487 37.175ZM49.9822 58.0205C49.7502 58.1892 49.5181 58.3369 49.2227 58.4001C49.2017 58.3792 49.2017 58.3579 49.1804 58.3369C49.4126 58.1892 49.6658 58.0415 49.8979 57.8938C49.9189 57.936 49.9612 57.9783 49.9822 58.0205ZM10.4226 29.4319C10.6545 29.1365 10.8867 28.8411 11.1399 28.5459C11.1609 28.5669 11.3298 28.6091 11.3508 28.6301C11.1189 28.9255 10.8022 29.3264 10.5703 29.6428C10.5281 29.6008 10.4648 29.4531 10.4226 29.4319ZM4.43066 39.7703C4.26172 39.4116 4.09302 39.0317 3.92432 38.6731C3.94531 38.6521 4.09302 38.5886 4.11401 38.5886C4.34619 38.9263 4.45166 39.3271 4.62036 39.6858C4.62036 39.6858 4.45166 39.7703 4.43066 39.7703ZM9.81079 29.6428C9.68408 29.8328 9.55762 30.0437 9.43091 30.2336C9.40991 30.2126 9.17773 30.3181 9.15674 30.2969C9.2832 30.1072 9.59961 29.7695 9.72632 29.5796C9.74731 29.6008 9.76855 29.6218 9.81079 29.6428ZM47.7246 58.8855C47.7458 58.8855 47.7458 58.8643 47.7668 58.8643C47.9146 58.8855 48.0835 58.9065 48.2522 58.9065C47.9778 59.0964 47.8091 59.0754 47.7246 58.8855ZM9.85278 30.5291C9.87402 30.4658 9.91626 30.4023 9.95825 30.3391C10.0005 30.3391 10.064 30.3181 10.064 30.3181C10.1482 30.1704 10.1482 30.0649 10.2327 29.9382C10.2117 29.9172 10.1904 29.9172 10.1694 29.896C10.0427 29.9805 9.91626 30.0859 9.78955 30.1704C9.83179 30.2126 9.83179 30.2336 9.83179 30.2759C9.66309 30.2549 9.59961 30.3391 9.51538 30.5713C9.49414 30.6345 9.38867 30.6555 9.2832 30.74C9.26221 30.7822 9.24097 30.8877 9.19873 30.9932L9.21997 31.0144C9.17773 31.0564 9.1145 31.0776 9.1145 31.0776C8.98779 31.2041 8.84009 31.3098 8.71362 31.4363C8.69238 31.4995 8.67139 31.563 8.67139 31.6262C8.81909 31.4785 9.07227 31.2041 9.26221 31.0354L9.2832 31.0564C9.36768 30.9299 9.43091 30.8032 9.51538 30.6768C9.53638 30.6978 9.53638 30.719 9.55762 30.74C9.49414 30.9087 9.43091 31.0986 9.36768 31.2676C9.32544 31.2886 9.26221 31.3308 9.26221 31.3098C9.17773 31.373 9.1145 31.4573 9.03003 31.5208L8.65039 31.7739C8.43921 31.9639 8.22827 32.1326 7.99634 32.3225C7.84863 32.5544 7.70093 32.7654 7.53198 33.0398C7.78516 32.9766 7.84863 33.082 7.82739 33.293C8.1228 33.3352 8.1438 33.103 8.22827 32.9343C8.24951 32.8921 8.27051 32.8076 8.31274 32.7866C8.50269 32.6179 8.71362 32.4702 8.92456 32.3013C8.9668 32.259 8.9668 32.1748 8.9668 32.1113C8.9668 32.0903 8.86133 32.0903 8.7981 32.0693C8.98779 31.8582 9.26221 31.4995 9.45215 31.2676C9.55762 31.2041 9.66309 31.1199 9.66309 31.0564C9.64185 30.8245 9.78955 30.7612 9.95825 30.6768C9.87402 30.6135 9.85278 30.55 9.85278 30.5291Z" fill="#7B4AE2" fill-opacity="0.5"/>
<path fill-rule="evenodd" clip-rule="evenodd" d="M10.2749 30.2969C10.1904 30.4446 10.1062 30.5713 10.0217 30.719L9.89502 30.6555C9.81079 31.1409 9.51538 31.563 9.21997 31.6472C9.30444 31.6895 9.38867 31.7317 9.45215 31.7104C9.51538 31.6895 9.55762 31.584 9.59961 31.5208L10.1694 30.6978L10.3594 30.3813L10.2749 30.2969ZM3.24902 39.5591C3.35449 39.5591 3.45996 39.5803 3.58667 39.5803C3.58667 39.4958 3.69214 39.5171 3.69214 39.4326H3.75537C3.75537 39.5381 3.77661 39.6226 3.77661 39.728H3.3335C3.31225 39.7068 3.22803 39.5803 3.24902 39.5591ZM3.08032 38.5886C3.01709 38.5254 2.91138 38.4622 2.91138 38.3987C2.89038 38.3145 2.95361 38.209 3.01709 38.1035C3.05908 38.251 3.08032 38.3777 3.12256 38.5254C3.10132 38.5464 3.08032 38.5676 3.08032 38.5886ZM3.60767 37.2383C3.69214 37.4495 3.77661 37.6814 3.86084 37.8923C3.83984 37.8923 3.71313 37.9558 3.69214 37.9768C3.60767 37.7659 3.5022 37.5337 3.41797 37.3228C3.43896 37.3018 3.56543 37.2383 3.60767 37.2383ZM50.573 57.4087C50.6785 57.3665 50.8052 57.3452 50.9739 57.303C50.7839 57.4507 50.6362 57.5562 50.5098 57.6829C50.4885 57.6616 50.4675 57.6406 50.4465 57.6406C50.4885 57.5562 50.5308 57.4932 50.573 57.4087ZM24.6431 12.8274C24.7695 12.7429 24.875 12.6797 25.0017 12.5952L25.0439 12.6375C24.9172 12.8064 24.8118 12.9751 24.6641 13.186C24.6431 13.0383 24.6431 12.9539 24.6218 12.8484C24.6008 12.8484 24.6218 12.8484 24.6431 12.8274ZM30.8247 23.5032C31.0147 23.4189 31.2046 23.3345 31.4368 23.229C31.4155 23.3555 31.4155 23.4399 31.4155 23.5244C31.3523 23.5032 31.2678 23.4822 31.2046 23.4822C31.0781 23.5032 30.846 23.6721 30.7405 23.6931C30.7192 23.6931 30.8247 23.5244 30.8247 23.5032ZM46.6487 41.3948C46.6909 41.6057 47.0918 41.7112 46.6909 41.9221C46.7542 41.9644 46.8174 41.9856 46.8809 42.0278C46.8809 42.0488 46.8596 42.0911 46.8386 42.1121C46.7964 42.1333 46.7119 42.1755 46.6697 42.1543C46.6487 42.1543 46.6064 42.0698 46.6064 42.0278C46.6064 41.8379 46.6277 41.6479 46.6487 41.3948Z" fill="#7B4AE2" fill-opacity="0.5"/>
</svg>
