<svg width="64" height="64" viewBox="0 0 64 64" fill="none" xmlns="http://www.w3.org/2000/svg">
<path fill-rule="evenodd" clip-rule="evenodd" d="M31.7353 0.892578C15.9071 0.892579 16.8955 7.75664 16.8955 7.75664L16.9132 14.8677H32.0176V17.0028H10.9137C10.9137 17.0028 0.785278 15.8542 0.785278 31.825C0.785277 47.7958 9.62562 47.2294 9.62562 47.2294H14.9016V39.8183C14.9016 39.8183 14.6172 30.978 23.6008 30.978H38.5817C38.5817 30.978 46.9986 31.114 46.9986 22.8435V9.16827C46.9986 9.16827 48.2765 0.892578 31.7353 0.892578ZM23.4067 5.67448C24.9095 5.67448 26.1241 6.88909 26.1241 8.39187C26.1241 9.89466 24.9095 11.1093 23.4067 11.1093C21.9039 11.1093 20.6893 9.89466 20.6893 8.39187C20.6893 6.88909 21.9039 5.67448 23.4067 5.67448Z" fill="#7B4AE2" fill-opacity="0.5"/>
<mask id="path-2-inside-1_149_254" fill="white">
<path fill-rule="evenodd" clip-rule="evenodd" d="M32.1848 62.9174C48.013 62.9174 47.0246 56.0534 47.0246 56.0534L47.007 48.9423H31.9025V46.8072H53.0064C53.0064 46.8072 63.1349 47.9558 63.1349 31.985C63.1349 16.0143 54.2945 16.5806 54.2945 16.5806H49.0186V23.9917C49.0186 23.9917 49.3029 32.832 40.3194 32.832H25.3384C25.3384 32.832 16.9216 32.696 16.9216 40.9666V54.6417C16.9216 54.6417 15.6437 62.9174 32.1848 62.9174ZM40.5135 58.1357C39.0107 58.1357 37.7961 56.921 37.7961 55.4183C37.7961 53.9155 39.0107 52.7009 40.5135 52.7009C42.0163 52.7009 43.2309 53.9155 43.2309 55.4183C43.2309 56.921 42.0163 58.1357 40.5135 58.1357Z"/>
</mask>
<path d="M47.0246 56.0534L46.0246 56.0559L46.0248 56.1262L46.0348 56.1959L47.0246 56.0534ZM47.007 48.9423L48.007 48.9398L48.0045 47.9423H47.007V48.9423ZM31.9025 48.9423H30.9025V49.9423H31.9025V48.9423ZM31.9025 46.8072V45.8072H30.9025V46.8072H31.9025ZM53.0064 46.8072L53.1191 45.8135L53.0629 45.8072H53.0064V46.8072ZM63.1349 31.985H62.1349H63.1349ZM54.2945 16.5806V17.5806H54.3265L54.3585 17.5786L54.2945 16.5806ZM49.0186 16.5806V15.5806H48.0186V16.5806H49.0186ZM49.0186 23.9917H48.0186V24.0078L48.0191 24.0238L49.0186 23.9917ZM25.3384 32.832L25.3223 33.8319L25.3303 33.832H25.3384V32.832ZM16.9216 54.6417L17.9099 54.7943L17.9216 54.7185V54.6417H16.9216ZM43.2309 55.4183H42.2309V55.4183L43.2309 55.4183ZM32.1848 63.9174C40.2056 63.9174 44.2377 62.1844 46.2442 60.1957C47.2533 59.1956 47.7099 58.1677 47.9041 57.3596C48.0002 56.9594 48.0308 56.6191 48.036 56.369C48.0386 56.2439 48.0348 56.1408 48.0296 56.0635C48.027 56.0248 48.024 55.9924 48.0213 55.9669C48.02 55.9541 48.0186 55.943 48.0175 55.9336C48.0169 55.929 48.0163 55.9247 48.0158 55.9209C48.0156 55.919 48.0153 55.9172 48.0151 55.9155C48.015 55.9147 48.0148 55.9135 48.0147 55.9131C48.0146 55.912 48.0144 55.9108 47.0246 56.0534C46.0348 56.1959 46.0347 56.1948 46.0345 56.1938C46.0345 56.1935 46.0343 56.1925 46.0343 56.1918C46.0341 56.1906 46.0339 56.1894 46.0338 56.1883C46.0335 56.1862 46.0333 56.1844 46.0331 56.1831C46.0327 56.1803 46.0326 56.1791 46.0326 56.1793C46.0327 56.1797 46.0333 56.1859 46.0341 56.1974C46.0357 56.2206 46.0377 56.265 46.0364 56.3276C46.0338 56.4529 46.0179 56.6488 45.9594 56.8922C45.8443 57.3711 45.5588 58.0592 44.8364 58.7751C43.3801 60.2185 39.9922 61.9174 32.1848 61.9174V63.9174ZM48.0246 56.0509L48.007 48.9398L46.007 48.9448L46.0246 56.0559L48.0246 56.0509ZM47.007 47.9423H31.9025V49.9423H47.007V47.9423ZM32.9025 48.9423V46.8072H30.9025V48.9423H32.9025ZM31.9025 47.8072H53.0064V45.8072H31.9025V47.8072ZM53.0064 46.8072C52.8937 47.8008 52.8945 47.8009 52.8954 47.801C52.8957 47.801 52.8966 47.8011 52.8972 47.8012C52.8985 47.8013 52.9 47.8015 52.9017 47.8017C52.9049 47.802 52.9088 47.8024 52.9134 47.8029C52.9224 47.8038 52.9339 47.8049 52.9478 47.8061C52.9756 47.8086 53.013 47.8115 53.0594 47.8143C53.1521 47.82 53.281 47.8252 53.4408 47.8253C53.7601 47.8256 54.206 47.8054 54.7367 47.7261C55.7969 47.5678 57.2129 47.1706 58.6301 46.214C61.5201 44.2633 64.1349 40.1892 64.1349 31.985H62.1349C62.1349 39.7517 59.6854 43.0887 57.5112 44.5563C56.3962 45.3089 55.2802 45.6228 54.4412 45.7481C54.0224 45.8107 53.677 45.8255 53.4424 45.8253C53.3253 45.8253 53.2366 45.8214 53.1809 45.818C53.1531 45.8163 53.1336 45.8148 53.1231 45.8138C53.1178 45.8134 53.1148 45.8131 53.1141 45.813C53.1138 45.813 53.114 45.813 53.1148 45.8131C53.1153 45.8131 53.1158 45.8132 53.1165 45.8133C53.1169 45.8133 53.1175 45.8134 53.1177 45.8134C53.1184 45.8135 53.1191 45.8135 53.0064 46.8072ZM64.1349 31.985C64.1349 23.8231 61.8716 19.6377 59.3575 17.5278C58.1133 16.4836 56.8596 15.9945 55.9065 15.7686C55.4308 15.6559 55.0294 15.6084 54.7392 15.5896C54.594 15.5801 54.4761 15.5778 54.39 15.5782C54.3469 15.5783 54.3117 15.5791 54.285 15.5801C54.2716 15.5805 54.2604 15.581 54.2513 15.5815C54.2467 15.5817 54.2427 15.5819 54.2393 15.5821C54.2375 15.5822 54.236 15.5823 54.2345 15.5824C54.2338 15.5825 54.2328 15.5825 54.2324 15.5825C54.2315 15.5826 54.2306 15.5827 54.2945 16.5806C54.3585 17.5786 54.3576 17.5786 54.3568 17.5787C54.3566 17.5787 54.3558 17.5787 54.3553 17.5788C54.3544 17.5788 54.3536 17.5789 54.353 17.5789C54.3517 17.579 54.3509 17.579 54.3506 17.579C54.35 17.5791 54.3514 17.579 54.3548 17.5789C54.3615 17.5786 54.376 17.5782 54.3977 17.5781C54.441 17.578 54.5131 17.5791 54.6095 17.5854C54.8029 17.5979 55.0921 17.631 55.4452 17.7147C56.1496 17.8817 57.106 18.2492 58.0719 19.0598C59.978 20.6594 62.1349 24.1762 62.1349 31.985H64.1349ZM54.2945 15.5806H49.0186V17.5806H54.2945V15.5806ZM48.0186 16.5806V23.9917H50.0186V16.5806H48.0186ZM49.0186 23.9917C48.0191 24.0238 48.0191 24.0234 48.019 24.0229C48.019 24.0228 48.019 24.0224 48.019 24.0222C48.019 24.0218 48.019 24.0216 48.019 24.0214C48.019 24.0212 48.019 24.0214 48.019 24.0222C48.0191 24.0237 48.0191 24.0273 48.0192 24.0328C48.0194 24.0439 48.0196 24.0629 48.0196 24.0893C48.0195 24.142 48.0184 24.224 48.014 24.3312C48.0054 24.5457 47.9838 24.8588 47.9319 25.2371C47.8274 25.9986 47.6037 26.9969 47.1348 27.9821C46.6683 28.9625 45.9679 29.9122 44.9118 30.62C43.8609 31.3243 42.394 31.832 40.3194 31.832V33.832C42.7366 33.832 44.6029 33.2347 46.0253 32.2814C47.4425 31.3316 48.3555 30.0713 48.9408 28.8416C49.5237 27.6167 49.7904 26.4049 49.9133 25.5089C49.9752 25.0584 50.0015 24.6808 50.0124 24.4119C50.0178 24.2773 50.0194 24.1694 50.0196 24.0927C50.0196 24.0543 50.0193 24.0236 50.019 24.0013C50.0188 23.9901 50.0186 23.981 50.0184 23.974C50.0183 23.9705 50.0183 23.9675 50.0182 23.9651C50.0182 23.9639 50.0181 23.9628 50.0181 23.9619C50.0181 23.9614 50.0181 23.9608 50.0181 23.9606C50.0181 23.9601 50.018 23.9595 49.0186 23.9917ZM40.3194 31.832H25.3384V33.832H40.3194V31.832ZM25.3384 32.832C25.3546 31.8322 25.3541 31.8321 25.3535 31.8321C25.3533 31.8321 25.3527 31.8321 25.3523 31.8321C25.3514 31.8321 25.3503 31.8321 25.3492 31.8321C25.3469 31.832 25.344 31.832 25.3407 31.832C25.334 31.8319 25.3253 31.8319 25.3146 31.8319C25.2932 31.8319 25.264 31.832 25.2273 31.8326C25.1541 31.8339 25.0512 31.8368 24.9228 31.8438C24.6665 31.8576 24.3066 31.8873 23.8773 31.9507C23.0236 32.0767 21.8687 32.3397 20.7008 32.8946C19.5292 33.4513 18.3232 34.3126 17.4121 35.6407C16.4962 36.9759 15.9216 38.7205 15.9216 40.9666H17.9216C17.9216 39.0774 18.3991 37.7374 19.0613 36.7721C19.7284 35.7996 20.6266 35.1441 21.5592 34.701C22.4955 34.2561 23.4448 34.0362 24.1693 33.9293C24.5291 33.8762 24.8268 33.8519 25.0307 33.8409C25.1325 33.8354 25.2104 33.8332 25.2605 33.8324C25.2855 33.832 25.3035 33.8319 25.314 33.8319C25.3192 33.8319 25.3226 33.8319 25.324 33.8319C25.3247 33.8319 25.3249 33.8319 25.3246 33.8319C25.3245 33.8319 25.3242 33.8319 25.3238 33.8319C25.3236 33.8319 25.3232 33.8319 25.3231 33.8319C25.3227 33.8319 25.3223 33.8319 25.3384 32.832ZM15.9216 40.9666V54.6417H17.9216V40.9666H15.9216ZM16.9216 54.6417C15.9333 54.4891 15.9331 54.4901 15.933 54.4911C15.9329 54.4915 15.9328 54.4925 15.9326 54.4933C15.9324 54.4948 15.9322 54.4965 15.9319 54.4982C15.9314 54.5018 15.9308 54.5059 15.9302 54.5105C15.9289 54.5197 15.9274 54.5309 15.9258 54.5442C15.9226 54.5707 15.9188 54.6052 15.9151 54.6472C15.9077 54.7312 15.9007 54.8454 15.899 54.9857C15.8958 55.2658 15.9141 55.6526 15.9959 56.1107C16.1604 57.0311 16.5814 58.2355 17.5864 59.425C19.6065 61.8157 23.7762 63.9174 32.1848 63.9174V61.9174C24.0523 61.9174 20.5904 59.8813 19.1141 58.1342C18.371 57.2547 18.0776 56.3902 17.9648 55.7589C17.908 55.4412 17.8969 55.1814 17.8989 55.009C17.8999 54.923 17.9042 54.8594 17.9074 54.8221C17.9091 54.8035 17.9104 54.7916 17.911 54.7868C17.9113 54.7843 17.9114 54.7837 17.9112 54.785C17.9112 54.7856 17.911 54.7867 17.9108 54.7882C17.9107 54.789 17.9105 54.7899 17.9104 54.7909C17.9103 54.7914 17.9102 54.7923 17.9101 54.7925C17.91 54.7934 17.9099 54.7943 16.9216 54.6417ZM40.5135 57.1357C39.563 57.1357 38.7961 56.3688 38.7961 55.4183H36.7961C36.7961 57.4733 38.4584 59.1357 40.5135 59.1357V57.1357ZM38.7961 55.4183C38.7961 54.4678 39.563 53.7009 40.5135 53.7009V51.7009C38.4584 51.7009 36.7961 53.3632 36.7961 55.4183H38.7961ZM40.5135 53.7009C41.464 53.7009 42.2309 54.4678 42.2309 55.4183H44.2309C44.2309 53.3632 42.5685 51.7009 40.5135 51.7009V53.7009ZM42.2309 55.4183C42.2309 56.3688 41.464 57.1357 40.5135 57.1357V59.1357C42.5685 59.1357 44.2309 57.4733 44.2309 55.4183L42.2309 55.4183Z" fill="#7B4AE2" fill-opacity="0.5" mask="url(#path-2-inside-1_149_254)"/>
</svg>
