<svg width="130" height="34" viewBox="0 0 130 34" fill="none" xmlns="http://www.w3.org/2000/svg">
<g clip-path="url(#clip0_30_56)">
<path d="M15.9999 0C24.837 0 32 7.164 32 16.0001C32 24.8361 24.837 32 15.9999 32C7.1629 32 0 24.836 0 16.0001C0 7.16411 7.16301 0 15.9999 0Z" fill="white" fill-opacity="0.5"/>
<path d="M9.01599 21.984H12.012V11.998H9.01599V21.984ZM20.688 11.6521C19.234 11.6521 17.933 12.183 17.0101 13.3551V11.9651H14.0031V21.9841H17.0101V16.5661C17.0101 15.4211 18.0591 14.304 19.3731 14.304C20.687 14.304 21.0111 15.4211 21.0111 16.5381V21.9831H24.0071V16.3151C24.007 12.378 22.143 11.6521 20.688 11.6521ZM10.5 11C11.328 11 12 10.328 12 9.49997C12 8.67195 11.328 8.00003 10.5 8.00003C9.67199 8.00003 8.99995 8.67206 8.99995 9.50008C8.99995 10.3281 9.67199 11 10.5 11Z" fill="#090E16"/>
</g>
<path fill-rule="evenodd" clip-rule="evenodd" d="M64.7381 0.333344C55.6745 0.333344 48.3334 7.67445 48.3334 16.738C48.3334 23.9971 53.0292 30.1284 59.5501 32.302C60.3703 32.4455 60.6779 31.9534 60.6779 31.5228C60.6779 31.1332 60.6574 29.8413 60.6574 28.4674C56.5357 29.2261 55.4694 27.4626 55.1413 26.5399C54.9568 26.0682 54.157 24.6123 53.4598 24.2227C52.8857 23.9151 52.0654 23.1564 53.4393 23.1359C54.7312 23.1154 55.654 24.3252 55.9616 24.8174C57.438 27.2986 59.7962 26.6014 60.7394 26.1707C60.883 25.1044 61.3136 24.3867 61.7852 23.9766C58.1352 23.5665 54.3211 22.1516 54.3211 15.8768C54.3211 14.0928 54.9568 12.6164 56.0026 11.468C55.8385 11.0579 55.2644 9.37644 56.1666 7.12079C56.1666 7.12079 57.5405 6.69017 60.6779 8.80227C61.9903 8.43316 63.3847 8.24861 64.7791 8.24861C66.1735 8.24861 67.5679 8.43316 68.8803 8.80227C72.0177 6.66966 73.3916 7.12079 73.3916 7.12079C74.2938 9.37644 73.7197 11.0579 73.5556 11.468C74.6014 12.6164 75.2371 14.0723 75.2371 15.8768C75.2371 22.1721 71.4025 23.5665 67.7524 23.9766C68.3471 24.4893 68.8598 25.4735 68.8598 27.0115C68.8598 29.2056 68.8393 30.9691 68.8393 31.5228C68.8393 31.9534 69.1468 32.4661 69.9671 32.302C76.4469 30.1284 81.1428 23.9766 81.1428 16.738C81.1428 7.67445 73.8017 0.333344 64.7381 0.333344Z" fill="white" fill-opacity="0.5"/>
<path d="M118.416 16.704C118.193 16.7031 117.973 16.7487 117.768 16.838C117.564 16.9272 117.381 17.0581 117.23 17.2223C117.08 17.3865 116.965 17.5803 116.894 17.7914C116.822 18.0024 116.796 18.2261 116.816 18.448H120.112C120.133 18.2177 120.104 17.9856 120.027 17.7676C119.95 17.5496 119.827 17.3509 119.666 17.1852C119.505 17.0194 119.309 16.8906 119.094 16.8075C118.878 16.7244 118.647 16.6891 118.416 16.704Z" fill="white" fill-opacity="0.5"/>
<path d="M109.984 18.48H108.016V21.584H109.616C111.216 21.584 111.92 21.056 111.92 19.984C111.92 18.912 111.184 18.48 109.984 18.48Z" fill="white" fill-opacity="0.5"/>
<path d="M111.376 15.632C111.376 14.784 110.816 14.272 109.856 14.272H108.016V17.056H109.376C110.8 17.056 111.376 16.544 111.376 15.632Z" fill="white" fill-opacity="0.5"/>
<path d="M114 2C110.836 2 107.742 2.93838 105.111 4.69649C102.48 6.45459 100.429 8.95344 99.2179 11.8771C98.0069 14.8007 97.6901 18.0177 98.3074 21.1214C98.9248 24.2251 100.449 27.0761 102.686 29.3137C104.924 31.5513 107.775 33.0752 110.879 33.6926C113.982 34.3099 117.199 33.9931 120.123 32.7821C123.047 31.5711 125.545 29.5203 127.304 26.8891C129.062 24.2579 130 21.1645 130 18C130 15.8988 129.586 13.8183 128.782 11.8771C127.978 9.93585 126.799 8.17203 125.314 6.68629C123.828 5.20055 122.064 4.022 120.123 3.21793C118.182 2.41385 116.101 2 114 2ZM110.32 23.12H106V12.72H110.32C112.192 12.72 113.424 13.696 113.424 15.28C113.446 15.8121 113.278 16.3347 112.949 16.7541C112.621 17.1734 112.154 17.4619 111.632 17.568C111.963 17.5757 112.289 17.6507 112.589 17.7886C112.89 17.9265 113.159 18.1244 113.381 18.37C113.603 18.6156 113.772 18.9039 113.878 19.2172C113.985 19.5305 114.026 19.8622 114 20.192C114 22.048 112.4 23.12 110.32 23.12ZM116 13.52H120.8V14.32H116V13.52ZM122 19.68H116.72V19.904C116.692 20.1471 116.717 20.3933 116.793 20.626C116.869 20.8587 116.993 21.0725 117.159 21.2529C117.324 21.4333 117.526 21.5762 117.751 21.672C117.976 21.7677 118.219 21.8141 118.464 21.808C118.807 21.8614 119.159 21.7887 119.453 21.6034C119.747 21.4182 119.964 21.1328 120.064 20.8H122C121.828 21.568 121.378 22.2456 120.738 22.7031C120.097 23.1606 119.31 23.366 118.528 23.28C118.028 23.3305 117.523 23.2708 117.048 23.1051C116.574 22.9394 116.141 22.6718 115.781 22.321C115.421 21.9702 115.143 21.5448 114.965 21.0747C114.787 20.6046 114.714 20.1012 114.752 19.6V18.896C114.718 18.4103 114.789 17.9231 114.961 17.4677C115.133 17.0122 115.402 16.5994 115.748 16.2574C116.095 15.9154 116.511 15.6525 116.969 15.4865C117.427 15.3206 117.915 15.2556 118.4 15.296C118.884 15.265 119.368 15.338 119.821 15.51C120.274 15.682 120.685 15.949 121.026 16.2932C121.367 16.6373 121.631 17.0505 121.799 17.505C121.967 17.9595 122.035 18.4447 122 18.928V19.68Z" fill="white" fill-opacity="0.5"/>
<defs>
<clipPath id="clip0_30_56">
<rect width="32" height="32" fill="white"/>
</clipPath>
</defs>
</svg>
