<svg width="64" height="64" viewBox="0 0 64 64" fill="none" xmlns="http://www.w3.org/2000/svg">
<path fill-rule="evenodd" clip-rule="evenodd" d="M60.3116 15.9973L32.0308 0L3.75 15.9973V48.0027L32.0308 64L60.3116 48.0027V15.9973ZM8.13658 17.4274L31.0067 4.49289V13.991L16.354 22.0483L16.2366 22.1124L8.13658 17.4274ZM7.18677 19.1349V45.5161L15.3402 40.8097V23.8412L7.18677 19.1349ZM56.7902 19.1349V45.5161L48.6368 40.8097V23.8412L56.7902 19.1349ZM32.9703 59.5177L55.2641 46.8928L46.8653 42.0477L32.9703 49.6995V59.5177ZM8.71286 46.8928L31.0067 59.5071V49.6888L17.1117 42.0477L8.71286 46.8928ZM32.9703 4.49289L55.8298 17.4274L47.7297 22.123L47.6123 22.059L32.9703 13.991V4.49289ZM31.0063 47.4584L17.3035 39.9133V24.9832L31.0063 32.8911V47.4584ZM46.6728 39.924L32.97 47.4584V32.8911L46.6728 24.9832V39.924ZM18.2213 23.2543L31.9881 15.6879L45.7444 23.2543L31.9881 31.1943L18.2213 23.2543Z" fill="#7B4AE2" fill-opacity="0.5"/>
</svg>
