<svg width="196" height="44" viewBox="0 0 196 44" fill="none" xmlns="http://www.w3.org/2000/svg">
<rect x="0.5" y="0.5" width="195" height="43" rx="15.5" stroke="#7B4AE2" stroke-opacity="0.5"/>
<path d="M50 16.64L53.424 25.808L56.832 16.64H58.736L54.272 28H52.576L48.096 16.64H50ZM58.4168 25.552C58.4168 25.0187 58.5661 24.5547 58.8648 24.16C59.1741 23.7547 59.5954 23.4453 60.1288 23.232C60.6621 23.008 61.2808 22.896 61.9848 22.896C62.3581 22.896 62.7368 22.9227 63.1208 22.976C63.5154 23.0293 63.8621 23.1147 64.1608 23.232V22.704C64.1608 22.1173 63.9848 21.6587 63.6328 21.328C63.2808 20.9973 62.7741 20.832 62.1128 20.832C61.6434 20.832 61.2008 20.9173 60.7848 21.088C60.3688 21.248 59.9261 21.4773 59.4568 21.776L58.8648 20.592C59.4194 20.2187 59.9741 19.9413 60.5288 19.76C61.0941 19.5787 61.6861 19.488 62.3048 19.488C63.4248 19.488 64.3048 19.7867 64.9448 20.384C65.5954 20.9707 65.9208 21.808 65.9208 22.896V26.016C65.9208 26.2187 65.9528 26.3627 66.0168 26.448C66.0914 26.5333 66.2141 26.5813 66.3848 26.592V28C66.2248 28.032 66.0808 28.0533 65.9528 28.064C65.8248 28.0747 65.7181 28.08 65.6328 28.08C65.2594 28.08 64.9768 27.9893 64.7848 27.808C64.5928 27.6267 64.4808 27.4133 64.4488 27.168L64.4008 26.688C64.0381 27.1573 63.5741 27.52 63.0088 27.776C62.4434 28.032 61.8728 28.16 61.2968 28.16C60.7421 28.16 60.2461 28.048 59.8088 27.824C59.3714 27.5893 59.0301 27.2747 58.7848 26.88C58.5394 26.4853 58.4168 26.0427 58.4168 25.552ZM63.7448 26.064C63.8728 25.9253 63.9741 25.7867 64.0488 25.648C64.1234 25.5093 64.1608 25.3867 64.1608 25.28V24.32C63.8621 24.2027 63.5474 24.1173 63.2168 24.064C62.8861 24 62.5608 23.968 62.2408 23.968C61.6008 23.968 61.0781 24.096 60.6728 24.352C60.2781 24.608 60.0807 24.96 60.0807 25.408C60.0807 25.6533 60.1448 25.888 60.2728 26.112C60.4114 26.336 60.6034 26.5173 60.8488 26.656C61.1048 26.7947 61.4194 26.864 61.7928 26.864C62.1768 26.864 62.5448 26.7893 62.8968 26.64C63.2488 26.4907 63.5314 26.2987 63.7448 26.064ZM80.856 28H79.096V23.312C79.096 22.5333 78.968 21.9627 78.712 21.6C78.456 21.2373 78.0827 21.056 77.592 21.056C77.1013 21.056 76.6427 21.2427 76.216 21.616C75.8 21.9787 75.5067 22.4533 75.336 23.04V28H73.576V23.312C73.576 22.5333 73.448 21.9627 73.192 21.6C72.936 21.2373 72.568 21.056 72.088 21.056C71.5973 21.056 71.1387 21.2373 70.712 21.6C70.296 21.9627 69.9973 22.4373 69.816 23.024V28H68.056V19.632H69.656V21.312C69.9867 20.7253 70.4187 20.2773 70.952 19.968C71.496 19.648 72.1147 19.488 72.808 19.488C73.5013 19.488 74.0453 19.6693 74.44 20.032C74.8453 20.3947 75.096 20.848 75.192 21.392C75.5547 20.7733 75.9973 20.304 76.52 19.984C77.0533 19.6533 77.6613 19.488 78.344 19.488C78.8347 19.488 79.2453 19.5787 79.576 19.76C79.9067 19.9413 80.1627 20.192 80.344 20.512C80.5253 20.8213 80.6533 21.184 80.728 21.6C80.8133 22.0053 80.856 22.4373 80.856 22.896V28ZM86.6441 28.16C85.9828 28.16 85.3908 28.048 84.8681 27.824C84.3455 27.5893 83.8921 27.2693 83.5081 26.864C83.1348 26.4587 82.8468 26 82.6441 25.488C82.4415 24.9653 82.3401 24.4107 82.3401 23.824C82.3401 23.2373 82.4415 22.6827 82.6441 22.16C82.8468 21.6373 83.1348 21.1787 83.5081 20.784C83.8921 20.3787 84.3455 20.064 84.8681 19.84C85.4015 19.6053 85.9935 19.488 86.6441 19.488C87.2948 19.488 87.8815 19.6053 88.4041 19.84C88.9375 20.064 89.3908 20.3787 89.7641 20.784C90.1481 21.1787 90.4415 21.6373 90.6441 22.16C90.8468 22.6827 90.9481 23.2373 90.9481 23.824C90.9481 24.4107 90.8468 24.9653 90.6441 25.488C90.4415 26 90.1481 26.4587 89.7641 26.864C89.3908 27.2693 88.9375 27.5893 88.4041 27.824C87.8815 28.048 87.2948 28.16 86.6441 28.16ZM84.1481 23.84C84.1481 24.3733 84.2601 24.8533 84.4841 25.28C84.7081 25.7067 85.0068 26.0427 85.3801 26.288C85.7535 26.5333 86.1748 26.656 86.6441 26.656C87.1028 26.656 87.5188 26.5333 87.8921 26.288C88.2761 26.032 88.5801 25.6907 88.8041 25.264C89.0281 24.8267 89.1401 24.3467 89.1401 23.824C89.1401 23.2907 89.0281 22.8107 88.8041 22.384C88.5801 21.9573 88.2761 21.6213 87.8921 21.376C87.5188 21.12 87.1028 20.992 86.6441 20.992C86.1748 20.992 85.7535 21.12 85.3801 21.376C85.0068 21.632 84.7081 21.9733 84.4841 22.4C84.2601 22.816 84.1481 23.296 84.1481 23.84ZM95.4851 28.16C94.7811 28.16 94.1145 28.048 93.4851 27.824C92.8558 27.5893 92.3171 27.2427 91.8691 26.784L92.5251 25.6C93.0051 26.0267 93.4851 26.336 93.9651 26.528C94.4558 26.72 94.9411 26.816 95.4211 26.816C95.9118 26.816 96.3118 26.7253 96.6211 26.544C96.9305 26.352 97.0851 26.0747 97.0851 25.712C97.0851 25.4453 97.0051 25.248 96.8451 25.12C96.6851 24.992 96.4505 24.88 96.1411 24.784C95.8425 24.688 95.4798 24.5813 95.0531 24.464C94.4558 24.2827 93.9545 24.096 93.5491 23.904C93.1438 23.7013 92.8398 23.456 92.6371 23.168C92.4345 22.88 92.3331 22.512 92.3331 22.064C92.3331 21.52 92.4718 21.056 92.7491 20.672C93.0265 20.288 93.4105 19.9947 93.9011 19.792C94.4025 19.5893 94.9785 19.488 95.6291 19.488C96.2371 19.488 96.7971 19.584 97.3091 19.776C97.8318 19.9573 98.2905 20.2453 98.6851 20.64L97.9331 21.808C97.5598 21.4667 97.1758 21.216 96.7811 21.056C96.3971 20.896 95.9811 20.816 95.5331 20.816C95.2771 20.816 95.0318 20.848 94.7971 20.912C94.5625 20.9653 94.3651 21.072 94.2051 21.232C94.0558 21.3813 93.9811 21.5947 93.9811 21.872C93.9811 22.096 94.0451 22.2773 94.1731 22.416C94.3011 22.5547 94.4931 22.672 94.7491 22.768C95.0051 22.864 95.3198 22.9707 95.6931 23.088C96.3438 23.28 96.8985 23.472 97.3571 23.664C97.8158 23.8453 98.1678 24.0853 98.4131 24.384C98.6691 24.672 98.7971 25.072 98.7971 25.584C98.7971 26.3947 98.4931 27.0293 97.8851 27.488C97.2878 27.936 96.4878 28.16 95.4851 28.16ZM108.114 28.16C107.463 28.16 106.871 28.048 106.338 27.824C105.815 27.5893 105.362 27.2693 104.978 26.864C104.594 26.4587 104.295 25.9947 104.082 25.472C103.879 24.9493 103.778 24.3947 103.778 23.808C103.778 23.0187 103.954 22.2987 104.306 21.648C104.668 20.9973 105.17 20.4747 105.81 20.08C106.46 19.6853 107.228 19.488 108.114 19.488C108.967 19.488 109.708 19.68 110.338 20.064C110.978 20.4373 111.447 20.9387 111.746 21.568L110.034 22.112C109.842 21.76 109.57 21.488 109.218 21.296C108.876 21.0933 108.498 20.992 108.082 20.992C107.612 20.992 107.186 21.1147 106.802 21.36C106.428 21.5947 106.13 21.9253 105.906 22.352C105.692 22.768 105.586 23.2533 105.586 23.808C105.586 24.3413 105.698 24.8267 105.922 25.264C106.146 25.6907 106.444 26.032 106.818 26.288C107.202 26.5333 107.628 26.656 108.098 26.656C108.386 26.656 108.663 26.608 108.93 26.512C109.207 26.4053 109.447 26.2667 109.65 26.096C109.852 25.9147 109.996 25.7173 110.082 25.504L111.81 26.016C111.628 26.432 111.356 26.8 110.994 27.12C110.642 27.44 110.22 27.696 109.73 27.888C109.25 28.0693 108.711 28.16 108.114 28.16ZM116.941 28.16C116.28 28.16 115.688 28.048 115.165 27.824C114.642 27.5893 114.189 27.2693 113.805 26.864C113.432 26.4587 113.144 26 112.941 25.488C112.738 24.9653 112.637 24.4107 112.637 23.824C112.637 23.2373 112.738 22.6827 112.941 22.16C113.144 21.6373 113.432 21.1787 113.805 20.784C114.189 20.3787 114.642 20.064 115.165 19.84C115.698 19.6053 116.29 19.488 116.941 19.488C117.592 19.488 118.178 19.6053 118.701 19.84C119.234 20.064 119.688 20.3787 120.061 20.784C120.445 21.1787 120.738 21.6373 120.941 22.16C121.144 22.6827 121.245 23.2373 121.245 23.824C121.245 24.4107 121.144 24.9653 120.941 25.488C120.738 26 120.445 26.4587 120.061 26.864C119.688 27.2693 119.234 27.5893 118.701 27.824C118.178 28.048 117.592 28.16 116.941 28.16ZM114.445 23.84C114.445 24.3733 114.557 24.8533 114.781 25.28C115.005 25.7067 115.304 26.0427 115.677 26.288C116.05 26.5333 116.472 26.656 116.941 26.656C117.4 26.656 117.816 26.5333 118.189 26.288C118.573 26.032 118.877 25.6907 119.101 25.264C119.325 24.8267 119.437 24.3467 119.437 23.824C119.437 23.2907 119.325 22.8107 119.101 22.384C118.877 21.9573 118.573 21.6213 118.189 21.376C117.816 21.12 117.4 20.992 116.941 20.992C116.472 20.992 116.05 21.12 115.677 21.376C115.304 21.632 115.005 21.9733 114.781 22.4C114.557 22.816 114.445 23.296 114.445 23.84ZM130.31 28H128.55V23.312C128.55 22.5333 128.422 21.9627 128.166 21.6C127.921 21.2373 127.553 21.056 127.062 21.056C126.721 21.056 126.379 21.1413 126.038 21.312C125.707 21.4827 125.409 21.7173 125.142 22.016C124.875 22.304 124.683 22.64 124.566 23.024V28H122.806V19.632H124.406V21.312C124.619 20.9387 124.897 20.6187 125.238 20.352C125.59 20.0747 125.985 19.8613 126.422 19.712C126.859 19.5627 127.323 19.488 127.814 19.488C128.315 19.488 128.726 19.5787 129.046 19.76C129.377 19.9413 129.633 20.192 129.814 20.512C130.006 20.8213 130.134 21.184 130.198 21.6C130.273 22.0053 130.31 22.4373 130.31 22.896V28ZM134.533 28L131.349 19.632H133.173L135.557 26.368L137.941 19.632H139.637L136.453 28H134.533ZM144.411 28.16C143.76 28.16 143.168 28.048 142.635 27.824C142.112 27.5893 141.659 27.2747 141.275 26.88C140.891 26.4747 140.592 26.016 140.379 25.504C140.176 24.9813 140.075 24.4267 140.075 23.84C140.075 23.0507 140.256 22.3307 140.618 21.68C140.981 21.0187 141.488 20.4907 142.139 20.096C142.789 19.6907 143.552 19.488 144.427 19.488C145.301 19.488 146.053 19.6907 146.683 20.096C147.323 20.4907 147.819 21.0133 148.171 21.664C148.523 22.3147 148.699 23.0133 148.699 23.76C148.699 23.888 148.693 24.0107 148.683 24.128C148.672 24.2347 148.661 24.3253 148.651 24.4H141.947C141.979 24.8907 142.112 25.3227 142.347 25.696C142.592 26.0587 142.901 26.3467 143.275 26.56C143.648 26.7627 144.048 26.864 144.475 26.864C144.944 26.864 145.387 26.7467 145.803 26.512C146.229 26.2773 146.517 25.968 146.667 25.584L148.171 26.016C147.989 26.4213 147.712 26.7893 147.339 27.12C146.976 27.44 146.544 27.696 146.043 27.888C145.541 28.0693 144.997 28.16 144.411 28.16ZM141.899 23.232H146.955C146.923 22.752 146.784 22.3307 146.539 21.968C146.304 21.5947 146 21.3067 145.627 21.104C145.264 20.8907 144.859 20.784 144.411 20.784C143.973 20.784 143.568 20.8907 143.195 21.104C142.832 21.3067 142.533 21.5947 142.299 21.968C142.064 22.3307 141.931 22.752 141.899 23.232ZM154.838 21.152C154.155 21.1627 153.547 21.3173 153.014 21.616C152.491 21.9147 152.118 22.336 151.894 22.88V28H150.134V19.632H151.766V21.504C152.054 20.928 152.433 20.4693 152.902 20.128C153.371 19.776 153.867 19.584 154.39 19.552C154.497 19.552 154.582 19.552 154.646 19.552C154.721 19.552 154.785 19.5573 154.838 19.568V21.152ZM159.095 28.16C158.391 28.16 157.724 28.048 157.095 27.824C156.465 27.5893 155.927 27.2427 155.479 26.784L156.135 25.6C156.615 26.0267 157.095 26.336 157.575 26.528C158.065 26.72 158.551 26.816 159.031 26.816C159.521 26.816 159.921 26.7253 160.231 26.544C160.54 26.352 160.695 26.0747 160.695 25.712C160.695 25.4453 160.615 25.248 160.455 25.12C160.295 24.992 160.06 24.88 159.751 24.784C159.452 24.688 159.089 24.5813 158.663 24.464C158.065 24.2827 157.564 24.096 157.159 23.904C156.753 23.7013 156.449 23.456 156.247 23.168C156.044 22.88 155.943 22.512 155.943 22.064C155.943 21.52 156.081 21.056 156.359 20.672C156.636 20.288 157.02 19.9947 157.511 19.792C158.012 19.5893 158.588 19.488 159.239 19.488C159.847 19.488 160.407 19.584 160.919 19.776C161.441 19.9573 161.9 20.2453 162.295 20.64L161.543 21.808C161.169 21.4667 160.785 21.216 160.391 21.056C160.007 20.896 159.591 20.816 159.143 20.816C158.887 20.816 158.641 20.848 158.407 20.912C158.172 20.9653 157.975 21.072 157.815 21.232C157.665 21.3813 157.591 21.5947 157.591 21.872C157.591 22.096 157.655 22.2773 157.783 22.416C157.911 22.5547 158.103 22.672 158.359 22.768C158.615 22.864 158.929 22.9707 159.303 23.088C159.953 23.28 160.508 23.472 160.967 23.664C161.425 23.8453 161.777 24.0853 162.023 24.384C162.279 24.672 162.407 25.072 162.407 25.584C162.407 26.3947 162.103 27.0293 161.495 27.488C160.897 27.936 160.097 28.16 159.095 28.16ZM163.37 25.552C163.37 25.0187 163.519 24.5547 163.818 24.16C164.127 23.7547 164.549 23.4453 165.082 23.232C165.615 23.008 166.234 22.896 166.938 22.896C167.311 22.896 167.69 22.9227 168.074 22.976C168.469 23.0293 168.815 23.1147 169.114 23.232V22.704C169.114 22.1173 168.938 21.6587 168.586 21.328C168.234 20.9973 167.727 20.832 167.066 20.832C166.597 20.832 166.154 20.9173 165.738 21.088C165.322 21.248 164.879 21.4773 164.41 21.776L163.818 20.592C164.373 20.2187 164.927 19.9413 165.482 19.76C166.047 19.5787 166.639 19.488 167.258 19.488C168.378 19.488 169.258 19.7867 169.898 20.384C170.549 20.9707 170.874 21.808 170.874 22.896V26.016C170.874 26.2187 170.906 26.3627 170.97 26.448C171.045 26.5333 171.167 26.5813 171.338 26.592V28C171.178 28.032 171.034 28.0533 170.906 28.064C170.778 28.0747 170.671 28.08 170.586 28.08C170.213 28.08 169.93 27.9893 169.738 27.808C169.546 27.6267 169.434 27.4133 169.402 27.168L169.354 26.688C168.991 27.1573 168.527 27.52 167.962 27.776C167.397 28.032 166.826 28.16 166.25 28.16C165.695 28.16 165.199 28.048 164.762 27.824C164.325 27.5893 163.983 27.2747 163.738 26.88C163.493 26.4853 163.37 26.0427 163.37 25.552ZM168.698 26.064C168.826 25.9253 168.927 25.7867 169.002 25.648C169.077 25.5093 169.114 25.3867 169.114 25.28V24.32C168.815 24.2027 168.501 24.1173 168.17 24.064C167.839 24 167.514 23.968 167.194 23.968C166.554 23.968 166.031 24.096 165.626 24.352C165.231 24.608 165.034 24.96 165.034 25.408C165.034 25.6533 165.098 25.888 165.226 26.112C165.365 26.336 165.557 26.5173 165.802 26.656C166.058 26.7947 166.373 26.864 166.746 26.864C167.13 26.864 167.498 26.7893 167.85 26.64C168.202 26.4907 168.485 26.2987 168.698 26.064ZM177.713 21.152C177.03 21.1627 176.422 21.3173 175.889 21.616C175.366 21.9147 174.993 22.336 174.769 22.88V28H173.009V19.632H174.641V21.504C174.929 20.928 175.308 20.4693 175.777 20.128C176.246 19.776 176.742 19.584 177.265 19.552C177.372 19.552 177.457 19.552 177.521 19.552C177.596 19.552 177.66 19.5573 177.713 19.568V21.152Z" fill="#7B4AE2" fill-opacity="0.5"/>
<path d="M20.2563 26.5937C19.1396 24.7098 18.749 22.483 19.1578 20.3314C19.5666 18.1798 20.7467 16.2514 22.4765 14.9083C24.2064 13.5652 26.367 12.8996 28.5527 13.0366C30.7385 13.1736 32.7991 14.1037 34.3477 15.6523C35.8963 17.2009 36.8264 19.2615 36.9634 21.4473C37.1004 23.633 36.4348 25.7936 35.0917 27.5235C33.7486 29.2533 31.8202 30.4334 29.6686 30.8422C27.5171 31.251 25.2902 30.8604 23.4063 29.7437V29.7437L20.2938 30.625C20.1662 30.6623 20.031 30.6646 19.9023 30.6317C19.7736 30.5987 19.6561 30.5318 19.5622 30.4379C19.4682 30.3439 19.4013 30.2264 19.3683 30.0977C19.3354 29.969 19.3377 29.8338 19.375 29.7062L20.2563 26.5937Z" stroke="#7B4AE2" stroke-opacity="0.5" stroke-linecap="round" stroke-linejoin="round"/>
<path d="M30.2594 27.25C29.2726 27.2525 28.295 27.0599 27.3828 26.6834C26.4706 26.3069 25.6418 25.7539 24.944 25.0561C24.2462 24.3583 23.6931 23.5294 23.3166 22.6173C22.9401 21.7051 22.7476 20.7275 22.75 19.7406C22.7525 19.046 23.0302 18.3808 23.5222 17.8905C24.0142 17.4003 24.6805 17.125 25.375 17.125V17.125C25.4896 17.1241 25.6023 17.1541 25.7013 17.2118C25.8003 17.2696 25.8819 17.3529 25.9375 17.4531L27.0344 19.3656C27.0996 19.4819 27.1331 19.6133 27.1315 19.7466C27.1298 19.8799 27.0931 20.0104 27.025 20.125L26.1438 21.5969C26.5952 22.601 27.399 23.4049 28.4031 23.8562L29.875 22.975C29.9896 22.9069 30.1202 22.8702 30.2535 22.8686C30.3868 22.8669 30.5181 22.9004 30.6344 22.9656L32.5469 24.0625C32.6471 24.1181 32.7305 24.1997 32.7882 24.2987C32.8459 24.3977 32.8759 24.5104 32.875 24.625C32.8726 25.3188 32.5965 25.9836 32.1068 26.4751C31.6171 26.9666 30.9532 27.2451 30.2594 27.25V27.25Z" stroke="#7B4AE2" stroke-opacity="0.5" stroke-linecap="round" stroke-linejoin="round"/>
</svg>
